<svg width="44" height="44" viewBox="0 0 44 44" fill="none" xmlns="http://www.w3.org/2000/svg">
<g clip-path="url(#clip0_714_6542)">
<path d="M44 0H0V44H44V0ZM3.41447 3.88429C3.21819 3.88429 3.05903 3.76045 3.05903 3.60774V1.9684C3.05903 1.81569 3.21819 1.69185 3.41447 1.69185H4.41581C4.61209 1.69185 4.77116 1.81569 4.77116 1.9684V3.60783C4.77116 3.76054 4.61209 3.88438 4.41581 3.88438L3.41447 3.88429ZM10.62 3.88429C10.4237 3.88429 10.2645 3.76045 10.2645 3.60774V1.9684C10.2645 1.81569 10.4237 1.69185 10.62 1.69185H11.6213C11.8176 1.69185 11.9768 1.81569 11.9768 1.9684V3.60783C11.9768 3.76054 11.8176 3.88438 11.6213 3.88438L10.62 3.88429ZM17.8255 3.88429C17.6292 3.88429 17.4701 3.76045 17.4701 3.60774V1.9684C17.4701 1.81569 17.6292 1.69185 17.8255 1.69185H18.8268C19.0231 1.69185 19.1823 1.81569 19.1823 1.9684V3.60783C19.1823 3.76054 19.0231 3.88438 18.8268 3.88438L17.8255 3.88429ZM25.031 3.88429C24.8347 3.88429 24.6756 3.76045 24.6756 3.60774V1.9684C24.6756 1.81569 24.8347 1.69185 25.031 1.69185H26.0324C26.2287 1.69185 26.3878 1.81569 26.3878 1.9684V3.60783C26.3878 3.76054 26.2287 3.88438 26.0324 3.88438L25.031 3.88429ZM32.2365 3.88429C32.0402 3.88429 31.8812 3.76045 31.8812 3.60774V1.9684C31.8812 1.81569 32.0402 1.69185 32.2365 1.69185H33.238C33.4342 1.69185 33.5934 1.81569 33.5934 1.9684V3.60783C33.5934 3.76054 33.4342 3.88438 33.238 3.88438L32.2365 3.88429ZM39.442 3.88429C39.2458 3.88429 39.0866 3.76045 39.0866 3.60774V1.9684C39.0866 1.81569 39.2458 1.69185 39.442 1.69185H40.4434C40.6397 1.69185 40.7988 1.81569 40.7988 1.9684V3.60783C40.7988 3.76054 40.6397 3.88438 40.4434 3.88438L39.442 3.88429ZM3.41447 42.3753C3.21819 42.3753 3.05903 42.2515 3.05903 42.0988V40.4594C3.05903 40.3067 3.21819 40.1829 3.41447 40.1829H4.41581C4.61209 40.1829 4.77116 40.3067 4.77116 40.4594V42.0988C4.77116 42.2515 4.61209 42.3753 4.41581 42.3753H3.41447ZM10.62 42.3753C10.4237 42.3753 10.2645 42.2515 10.2645 42.0988V40.4594C10.2645 40.3067 10.4237 40.1829 10.62 40.1829H11.6213C11.8176 40.1829 11.9768 40.3067 11.9768 40.4594V42.0988C11.9768 42.2515 11.8176 42.3753 11.6213 42.3753H10.62ZM17.8255 42.3753C17.6292 42.3753 17.4701 42.2515 17.4701 42.0988V40.4594C17.4701 40.3067 17.6292 40.1829 17.8255 40.1829H18.8268C19.0231 40.1829 19.1823 40.3067 19.1823 40.4594V42.0988C19.1823 42.2515 19.0231 42.3753 18.8268 42.3753H17.8255ZM25.031 42.3753C24.8347 42.3753 24.6756 42.2515 24.6756 42.0988V40.4594C24.6756 40.3067 24.8347 40.1829 25.031 40.1829H26.0324C26.2287 40.1829 26.3878 40.3067 26.3878 40.4594V42.0988C26.3878 42.2515 26.2287 42.3753 26.0324 42.3753H25.031ZM32.2365 42.3753C32.0402 42.3753 31.8812 42.2515 31.8812 42.0988V40.4594C31.8812 40.3067 32.0402 40.1829 32.2365 40.1829H33.238C33.4342 40.1829 33.5934 40.3067 33.5934 40.4594V42.0988C33.5934 42.2515 33.4342 42.3753 33.238 42.3753H32.2365ZM39.442 42.3753C39.2458 42.3753 39.0866 42.2515 39.0866 42.0988V40.4594C39.0866 40.3067 39.2458 40.1829 39.442 40.1829H40.4434C40.6397 40.1829 40.7988 40.3067 40.7988 40.4594V42.0988C40.7988 42.2515 40.6397 42.3753 40.4434 42.3753H39.442Z" fill="#6770E6"/>
<path d="M44 5.56187H0V38.4382H44V5.56187Z" fill="#5861C7"/>
<path d="M3.41438 1.69185H4.41581C4.46987 1.69185 4.52048 1.70199 4.56629 1.71875H10.4694C10.5152 1.70199 10.5659 1.69185 10.6199 1.69185H11.6212C11.6753 1.69185 11.7259 1.70199 11.7717 1.71875H17.6749C17.7207 1.70199 17.7714 1.69185 17.8253 1.69185H18.8267C18.8807 1.69185 18.9313 1.70199 18.9771 1.71875H24.8803C24.9262 1.70199 24.9768 1.69185 25.0308 1.69185H26.0322C26.0862 1.69185 26.1369 1.70199 26.1827 1.71875H32.0857C32.1315 1.70199 32.1822 1.69185 32.2362 1.69185H33.2376C33.2917 1.69185 33.3423 1.70199 33.3881 1.71875H39.2912C39.3371 1.70199 39.3877 1.69185 39.4417 1.69185H40.4431C40.4971 1.69185 40.5478 1.70199 40.5936 1.71875H44V0H0V1.71875H3.26391C3.3098 1.70199 3.36041 1.69185 3.41438 1.69185Z" fill="#8F95E6"/>
<path d="M40.7086 42.2812C40.6435 42.3385 40.5494 42.3753 40.4435 42.3753H39.442C39.3361 42.3753 39.2421 42.3385 39.1769 42.2812H33.5031C33.4379 42.3385 33.3439 42.3753 33.238 42.3753H32.2365C32.1306 42.3753 32.0366 42.3385 31.9714 42.2812H26.2975C26.2323 42.3385 26.1383 42.3753 26.0324 42.3753H25.031C24.9251 42.3753 24.831 42.3385 24.7659 42.2812H19.092C19.0269 42.3385 18.9329 42.3753 18.8269 42.3753H17.8256C17.7196 42.3753 17.6256 42.3385 17.5605 42.2812H11.8865C11.8214 42.3385 11.7274 42.3753 11.6214 42.3753H10.6201C10.5141 42.3753 10.42 42.3385 10.355 42.2812H4.68093C4.61579 42.3385 4.52177 42.3753 4.41581 42.3753H3.41438C3.30842 42.3753 3.21441 42.3385 3.14927 42.2812H0V44H44V42.2812H40.7086Z" fill="#5861C7"/>
<path d="M40.0138 30.9398H4.11087C3.53002 30.9398 3.05908 30.4689 3.05908 29.888V8.85568C3.05908 8.27483 3.53002 7.80389 4.11087 7.80389H40.0138C40.5946 7.80389 41.0655 8.27483 41.0655 8.85568V29.888C41.0655 30.4689 40.5946 30.9398 40.0138 30.9398Z" fill="#FFEFE4"/>
<path d="M28.2438 18.1916L18.6959 12.6791C17.7874 12.1546 16.6516 12.8103 16.6516 13.8594V24.8844C16.6516 25.9335 17.7874 26.5892 18.6959 26.0647L28.2438 20.5522C29.1524 20.0276 29.1524 18.7162 28.2438 18.1916Z" fill="#FF8354"/>
<path d="M40.0527 35.7766H9.22819C8.66882 35.7766 8.21533 35.3231 8.21533 34.7638C8.21533 34.2044 8.66882 33.7509 9.22819 33.7509H40.0527C40.6121 33.7509 41.0655 34.2044 41.0655 34.7638C41.0655 35.3231 40.6121 35.7766 40.0527 35.7766Z" fill="#6770E6"/>
<path d="M16.6514 36.6737C17.7063 36.6737 18.5614 35.8186 18.5614 34.7638C18.5614 33.7089 17.7063 32.8538 16.6514 32.8538C15.5966 32.8538 14.7415 33.7089 14.7415 34.7638C14.7415 35.8186 15.5966 36.6737 16.6514 36.6737Z" fill="#FF8354"/>
<path d="M3.62859 36.725C3.31406 36.725 3.05908 36.47 3.05908 36.1554V33.3721C3.05908 33.0576 3.31406 32.8026 3.62859 32.8026C3.94312 32.8026 4.1981 33.0576 4.1981 33.3721V36.1554C4.19818 36.47 3.94312 36.725 3.62859 36.725Z" fill="#FFEFE4"/>
<path d="M5.56438 36.725C5.24985 36.725 4.99487 36.47 4.99487 36.1554V33.3721C4.99487 33.0576 5.24985 32.8026 5.56438 32.8026C5.87891 32.8026 6.13389 33.0576 6.13389 33.3721V36.1554C6.13397 36.47 5.879 36.725 5.56438 36.725Z" fill="#FFEFE4"/>
</g>
<defs>
<clipPath id="clip0_714_6542">
<rect width="44" height="44" fill="white"/>
</clipPath>
</defs>
</svg>
