<svg width="46" height="45" viewBox="0 0 46 45" fill="none" xmlns="http://www.w3.org/2000/svg">
<rect x="4" y="4" width="8" height="37" fill="#FF0F0F"/>
<rect x="34" y="4" width="8" height="37" fill="#FF0F0F"/>
<path d="M38.8125 1.26562H7.18755C3.95317 1.26562 1.22192 3.86719 1.22192 7.10156V38.0391C1.22192 41.2031 3.8813 43.875 7.18755 43.875H38.8125C42.0469 43.875 44.7782 41.2734 44.7782 38.0391V7.03125C44.7782 3.86719 42.0469 1.26562 38.8125 1.26562ZM11.1407 20.9531H4.52817V14.0625H11.2125V20.9531H11.1407ZM4.52817 24.1172H11.2125V30.9375H4.52817V24.1172ZM14.375 4.42969H31.625V40.6406H14.375V4.42969ZM41.5438 20.9531H34.8594V14.0625H41.5438V20.9531ZM34.8594 24.1172H41.5438V30.9375H34.8594V24.1172ZM41.5438 7.03125V10.8984H34.8594V4.42969H38.8125C40.3219 4.42969 41.5438 5.55469 41.5438 7.03125ZM7.18755 4.42969H11.1407V10.9688H4.52817V7.03125C4.52817 5.55469 5.67817 4.42969 7.18755 4.42969ZM4.52817 37.9688V34.1016H11.2125V40.6406H7.18755C5.67817 40.6406 4.52817 39.4453 4.52817 37.9688ZM38.8125 40.6406H34.8594V34.1016H41.5438V37.9688C41.5438 39.4453 40.3219 40.6406 38.8125 40.6406Z" fill="#CAD2DB"/>
</svg>
