<svg width="46" height="45" viewBox="0 0 46 45" fill="none" xmlns="http://www.w3.org/2000/svg">
<g clip-path="url(#clip0_241_6780)">
<path d="M28.3547 19.1309C28.0672 18.8672 27.5281 18.8379 27.2047 19.1016C26.8812 19.3359 26.8453 19.7754 27.1687 20.0391C27.5281 20.3613 27.5281 20.918 27.1687 21.2695C26.8812 21.5332 26.8812 21.9434 27.2047 22.207C27.3484 22.3242 27.564 22.3828 27.7437 22.3828C27.9593 22.3828 28.175 22.3242 28.3547 22.1777C29.289 21.2988 29.289 19.9512 28.3547 19.1309Z" fill="#CAD2DB"/>
<path d="M30.3671 17.9004C30.0796 17.6367 29.5405 17.6074 29.2171 17.8711C28.8937 18.1055 28.8577 18.5449 29.1812 18.8086C30.3312 19.8047 30.3312 21.4453 29.1812 22.4414C28.8937 22.7051 28.8937 23.1152 29.2171 23.3789C29.3609 23.4961 29.5765 23.5547 29.7562 23.5547C29.9718 23.5547 30.1874 23.4961 30.3671 23.3496C32.0562 21.8555 32.0562 19.3945 30.3671 17.9004Z" fill="#CAD2DB"/>
<path d="M32.3796 16.6992C32.0921 16.4355 31.553 16.4062 31.2296 16.6699C30.9061 16.9043 30.8702 17.3437 31.1936 17.6074C33.0983 19.2773 33.0983 22.002 31.1936 23.6719C30.9061 23.9355 30.9061 24.3457 31.2296 24.6094C31.3733 24.7266 31.5889 24.7852 31.7686 24.7852C31.9842 24.7852 32.1999 24.7266 32.3796 24.5801C34.8233 22.3828 34.8233 18.8672 32.3796 16.6992Z" fill="#CAD2DB"/>
<path d="M23.8624 14.8535C23.2874 14.5898 22.6046 14.6191 22.0655 14.8828L18.1843 16.8457C18.1483 16.8457 18.1483 16.875 18.1124 16.875H13.5124C12.5421 16.875 11.7515 17.5195 11.7515 18.3105V22.9395C11.7515 23.7305 12.5421 24.375 13.5124 24.375H18.1124C18.1483 24.375 18.1483 24.375 18.1843 24.4043L22.0655 26.3672C22.353 26.5137 22.6765 26.5723 22.9999 26.5723C23.2874 26.5723 23.5749 26.5137 23.8624 26.3965C24.4374 26.1328 24.7608 25.6641 24.7608 25.1367V16.084C24.7608 15.5859 24.4015 15.0879 23.8624 14.8535ZM23.1437 25.166C23.1437 25.2246 23.1077 25.2539 23.0718 25.2539C23.0358 25.2832 22.964 25.2832 22.928 25.2539L19.0468 23.2617C18.7593 23.1152 18.4358 23.0566 18.1124 23.0566H13.5124C13.4405 23.0566 13.3687 22.998 13.3687 22.9395V18.3105C13.3687 18.252 13.4405 18.1934 13.5124 18.1934H18.1124C18.4358 18.1934 18.7593 18.1055 19.0468 17.9883L22.928 16.0254C22.964 15.9961 23.0358 15.9961 23.0718 16.0254C23.1077 16.0547 23.1437 16.084 23.1437 16.1133V25.166Z" fill="#CAD2DB"/>
</g>
<path d="M36.297 43.8047H14.3751C11.0688 43.8047 8.26572 41.3438 7.90635 38.1797C7.90635 38.0391 7.83447 37.9688 7.83447 37.8281V5.55469C7.83447 3.16406 9.7751 1.26562 12.2188 1.26562H33.6376C36.0813 1.26562 38.022 3.16406 38.022 5.55469V30.0234C38.022 32.4141 36.0813 34.3125 33.6376 34.3125H14.3751C13.5126 34.3125 12.6501 34.6641 12.0751 35.2266C11.4282 35.7891 11.1407 36.6328 11.1407 37.4766C11.1407 39.2344 12.5782 40.6406 14.3751 40.6406H36.297C37.1595 40.6406 37.9501 41.3438 37.9501 42.2578C37.9501 43.1719 37.2313 43.8047 36.297 43.8047ZM12.2907 4.42969C11.6438 4.42969 11.1407 4.92188 11.1407 5.55469V31.9922C12.147 31.4297 13.2251 31.1484 14.3751 31.1484H33.7095C34.3563 31.1484 34.8595 30.6563 34.8595 30.0234V5.55469C34.8595 4.92188 34.3563 4.42969 33.7095 4.42969H12.2907Z" fill="#CAD2DB"/>
<path d="M28.175 12.375H17.9688C17.1063 12.375 16.3157 11.6719 16.3157 10.7578C16.3157 9.84375 17.0344 9.14062 17.9688 9.14062H28.175C29.0375 9.14062 29.8282 9.84375 29.8282 10.7578C29.8282 11.6719 29.1094 12.375 28.175 12.375Z" fill="#CAD2DB"/>
<defs>
<clipPath id="clip0_241_6780">
<rect width="23" height="18.75" fill="white" transform="translate(11.5 11.25)"/>
</clipPath>
</defs>
</svg>
