<svg width="44" height="44" viewBox="0 0 44 44" fill="none" xmlns="http://www.w3.org/2000/svg">
<path d="M41.2049 31.3857C41.031 31.3857 40.8548 31.3417 40.6931 31.249C40.1989 30.9658 40.0279 30.3357 40.311 29.8415C41.3749 27.9851 41.9373 25.8686 41.9373 23.7209C41.9373 21.5523 41.3646 19.4182 40.2812 17.549C39.9958 17.0563 40.1635 16.4253 40.6565 16.1397C41.1496 15.8542 41.7803 16.0221 42.0658 16.5149C43.331 18.6978 43.9998 21.1897 43.9998 23.7211C43.9998 26.2282 43.343 28.6993 42.1005 30.8673C41.9103 31.1995 41.5626 31.3857 41.2049 31.3857Z" fill="#D476E2"/>
<path d="M37.9668 30.0401C37.8004 30.0401 37.6318 29.9998 37.4754 29.9148C36.975 29.6428 36.7896 29.0167 37.0615 28.5162C37.8555 27.0542 38.2753 25.3962 38.2753 23.7207C38.2753 21.9513 37.8098 20.2115 36.9293 18.6896C36.6442 18.1967 36.8124 17.5657 37.3054 17.2806C37.7987 16.9949 38.4293 17.1639 38.7144 17.6566C39.7764 19.4923 40.3376 21.5891 40.3376 23.7207C40.3376 25.7389 39.8314 27.7376 38.8736 29.5009C38.6867 29.845 38.3323 30.0401 37.9668 30.0401Z" fill="#D476E2"/>
<path d="M2.79503 31.3857C2.43736 31.3857 2.08983 31.1995 1.89922 30.8669C0.656734 28.6989 0 26.2279 0 23.7207C0 21.1893 0.668766 18.6975 1.93394 16.5145C2.21959 16.0216 2.85037 15.8535 3.34331 16.1393C3.83608 16.425 4.004 17.0559 3.71852 17.5487C2.63519 19.4178 2.0625 21.552 2.0625 23.7205C2.0625 25.8683 2.6247 27.9849 3.68878 29.8412C3.97186 30.3353 3.80084 30.9654 3.3067 31.2487C3.14514 31.3417 2.9688 31.3857 2.79503 31.3857Z" fill="#D476E2"/>
<path d="M6.03337 30.0401C5.66762 30.0401 5.31338 29.845 5.12638 29.5009C4.1687 27.7376 3.66235 25.7389 3.66235 23.7207C3.66235 21.5891 4.2237 19.4921 5.28554 17.6566C5.57085 17.1639 6.20129 16.9947 6.69457 17.2806C7.18751 17.5657 7.35595 18.1967 7.07063 18.6896C6.19012 20.2115 5.72468 21.9514 5.72468 23.7207C5.72468 25.3962 6.1444 27.0544 6.93846 28.5162C7.21037 29.0167 7.02492 29.6428 6.52459 29.9148C6.36835 29.9997 6.19957 30.0401 6.03337 30.0401Z" fill="#D476E2"/>
<path d="M32.1945 44H11.5726C9.59947 44 8 42.4005 8 40.4274V3.57259C8 1.59947 9.59947 0 11.5726 0H32.1943C34.1675 0 35.7669 1.59947 35.7669 3.57259V40.4272C35.7671 42.4005 34.1676 44 32.1945 44Z" fill="#69EBFC"/>
<path d="M32.1945 0H11.5726C9.59947 0 8 1.59947 8 3.57259V4.77572C8 2.80259 9.59947 1.20312 11.5726 1.20312H32.1943C34.1675 1.20312 35.7669 2.80259 35.7669 4.77572V3.57259C35.7671 1.59947 34.1676 0 32.1945 0Z" fill="#A1F1FC"/>
<path d="M11.5726 44H32.1943C34.1675 44 35.7669 42.4005 35.7669 40.4274V39.2243C35.7669 41.1974 34.1675 42.7969 32.1943 42.7969H11.5726C9.59947 42.7969 8 41.1974 8 39.2243V40.4274C8 42.4005 9.59947 44 11.5726 44Z" fill="#5FD4E3"/>
<path d="M11.5726 42.2812C10.5505 42.2812 9.71875 41.4495 9.71875 40.4274V5.80697C9.71875 4.78483 10.5505 3.95312 11.5726 3.95312H32.1943C33.2165 3.95312 34.0482 4.78483 34.0482 5.80697V40.4274C34.0482 41.4495 33.2165 42.2812 32.1943 42.2812H11.5726Z" fill="#FFEFE4"/>
<path d="M20.6622 15.8161H12.1783C11.7692 15.8161 11.4375 15.4844 11.4375 15.0753V6.5914C11.4375 6.18233 11.7692 5.85062 12.1783 5.85062H20.6622C21.0713 5.85062 21.403 6.18233 21.403 6.5914V15.0753C21.403 15.4844 21.0713 15.8161 20.6622 15.8161Z" fill="#FF8354"/>
<path d="M16.4201 7.14157C16.8977 7.14157 17.3254 7.43771 17.4935 7.88493L19.6264 13.5623C19.8014 14.0281 19.4571 14.5253 18.9595 14.5253C18.6557 14.5253 18.3851 14.3325 18.286 14.0453L17.8432 12.7619H14.997L14.5542 14.0453C14.455 14.3325 14.1847 14.5253 13.8808 14.5253C13.3832 14.5253 13.0388 14.0281 13.2139 13.5623L15.3469 7.88493C15.5148 7.43771 15.9425 7.14157 16.4201 7.14157ZM17.3895 11.4831L16.7295 9.6372L16.4613 8.74001H16.3788L16.1107 9.6372L15.4507 11.4831H17.3895Z" fill="#FFEFE4"/>
<path d="M31.4415 7.62696H23.8812C23.3907 7.62696 22.9932 7.22941 22.9932 6.73888C22.9932 6.24835 23.3907 5.8508 23.8812 5.8508H31.4415C31.932 5.8508 32.3296 6.24835 32.3296 6.73888C32.3296 7.22924 31.9319 7.62696 31.4415 7.62696Z" fill="#EDD4C2"/>
<path d="M31.4415 11.7215H23.8812C23.3907 11.7215 22.9932 11.324 22.9932 10.8335C22.9932 10.3429 23.3907 9.94537 23.8812 9.94537H31.4415C31.932 9.94537 32.3296 10.3429 32.3296 10.8335C32.3296 11.3238 31.9319 11.7215 31.4415 11.7215Z" fill="#EDD4C2"/>
<path d="M31.4415 15.8161H23.8812C23.3907 15.8161 22.9932 15.4186 22.9932 14.928C22.9932 14.4375 23.3907 14.0399 23.8812 14.0399H31.4415C31.932 14.0399 32.3296 14.4375 32.3296 14.928C32.3296 15.4186 31.9319 15.8161 31.4415 15.8161Z" fill="#EDD4C2"/>
<path d="M31.4415 19.9107H12.3256C11.835 19.9107 11.4375 19.5131 11.4375 19.0226C11.4375 18.5321 11.835 18.1345 12.3256 18.1345H31.4415C31.932 18.1345 32.3296 18.5321 32.3296 19.0226C32.3296 19.5131 31.9319 19.9107 31.4415 19.9107Z" fill="#EDD4C2"/>
<path d="M31.4415 24.0053H12.3256C11.835 24.0053 11.4375 23.6077 11.4375 23.1172C11.4375 22.6267 11.835 22.2291 12.3256 22.2291H31.4415C31.932 22.2291 32.3296 22.6267 32.3296 23.1172C32.3296 23.6077 31.9319 24.0053 31.4415 24.0053Z" fill="#EDD4C2"/>
<path d="M31.4415 28.0998H12.3256C11.835 28.0998 11.4375 27.7023 11.4375 27.2118C11.4375 26.7212 11.835 26.3237 12.3256 26.3237H31.4415C31.932 26.3237 32.3296 26.7212 32.3296 27.2118C32.3296 27.7023 31.9319 28.0998 31.4415 28.0998Z" fill="#EDD4C2"/>
<path d="M31.4415 32.1944H12.3256C11.835 32.1944 11.4375 31.7969 11.4375 31.3064C11.4375 30.8158 11.835 30.4183 12.3256 30.4183H31.4415C31.932 30.4183 32.3296 30.8158 32.3296 31.3064C32.3296 31.7969 31.9319 32.1944 31.4415 32.1944Z" fill="#EDD4C2"/>
<path d="M21.8835 36.289H12.3256C11.835 36.289 11.4375 35.8915 11.4375 35.4009C11.4375 34.9104 11.835 34.5128 12.3256 34.5128H21.8835C22.3741 34.5128 22.7716 34.9104 22.7716 35.4009C22.7716 35.8915 22.3741 36.289 21.8835 36.289Z" fill="#EDD4C2"/>
<path d="M31.4415 36.289H12.3256C11.835 36.289 11.4375 35.8915 11.4375 35.4009C11.4375 34.9104 11.835 34.5128 12.3256 34.5128H31.4415C31.932 34.5128 32.3296 34.9104 32.3296 35.4009C32.3296 35.8915 31.9319 36.289 31.4415 36.289Z" fill="#EDD4C2"/>
<path d="M21.8835 40.3837H12.3256C11.835 40.3837 11.4375 39.9862 11.4375 39.4957C11.4375 39.0051 11.835 38.6076 12.3256 38.6076H21.8835C22.3741 38.6076 22.7716 39.0051 22.7716 39.4957C22.7716 39.986 22.3741 40.3837 21.8835 40.3837Z" fill="#EDD4C2"/>
<path d="M25.4306 2.73523H15.7585C15.3314 2.73523 14.9851 2.3889 14.9851 1.96179C14.9851 1.53468 15.3314 1.18835 15.7585 1.18835H25.4306C25.8577 1.18835 26.2041 1.53468 26.2041 1.96179C26.2041 2.3889 25.8577 2.73523 25.4306 2.73523Z" fill="#5FD4E3"/>
<path d="M28.0085 2.73523C28.4357 2.73523 28.782 2.38895 28.782 1.96179C28.782 1.53463 28.4357 1.18835 28.0085 1.18835C27.5814 1.18835 27.2351 1.53463 27.2351 1.96179C27.2351 2.38895 27.5814 2.73523 28.0085 2.73523Z" fill="#5FD4E3"/>
</svg>
