<svg width="45" height="45" viewBox="0 0 45 45" fill="none" xmlns="http://www.w3.org/2000/svg">
<g clip-path="url(#clip0_714_6527)">
<path d="M44.6475 8.79596V35.5349C44.6475 36.5158 43.8522 37.3111 42.8713 37.3111H25.272C24.8311 38.3225 23.8222 39.0298 22.6475 39.0298C21.4736 39.0298 20.4646 38.3225 20.0238 37.3111H2.42362C1.44273 37.3111 0.647461 36.5158 0.647461 35.5349V8.79596C0.647461 7.81507 1.44273 7.01981 2.42362 7.01981H20.0238C20.4646 8.03129 21.4736 8.73856 22.6475 8.73856C23.8222 8.73856 24.8311 8.03129 25.272 7.01981H42.8713C43.8522 7.01981 44.6475 7.81507 44.6475 8.79596Z" fill="#6770E6"/>
<path d="M42.8713 35.5923H2.42362C1.44273 35.5923 0.647461 34.797 0.647461 33.8161V35.5349C0.647461 36.5158 1.44273 37.3111 2.42362 37.3111H20.0238C20.4646 38.3225 21.4736 39.0298 22.6475 39.0298C23.8222 39.0298 24.8311 38.3225 25.272 37.3111H42.8713C43.8522 37.3111 44.6475 36.5158 44.6475 35.5349V33.8161C44.6475 34.797 43.8522 35.5923 42.8713 35.5923Z" fill="#333399"/>
<path d="M20.023 6.26527H2.53421C2.29152 6.26527 2.09473 6.46207 2.09473 6.70476V35.5437C2.09473 35.7863 2.29152 35.9831 2.53421 35.9831H20.023C21.1931 35.9831 21.2755 37.3573 22.657 37.3573V35.9831V7.63941C22.657 6.88059 21.4771 6.26527 20.023 6.26527Z" fill="#FFEFE4"/>
<path d="M42.7796 6.26527H25.291C23.8369 6.26527 22.657 6.88059 22.657 7.63941V35.9833V37.3575C24.0385 37.3575 24.1208 35.9833 25.291 35.9833H42.7798C43.0225 35.9833 43.2192 35.7865 43.2192 35.5438V6.70476C43.2192 6.46207 43.0225 6.26527 42.7796 6.26527Z" fill="#FFE4D1"/>
<path d="M20.023 6.26527H2.53421C2.29152 6.26527 2.09473 6.46207 2.09473 6.70476V7.56413C2.09473 7.32145 2.29152 7.12465 2.53421 7.12465H20.023C21.4771 7.12465 22.657 7.73996 22.657 8.49879V7.63941C22.657 6.88059 21.4771 6.26527 20.023 6.26527Z" fill="#FFF7F2"/>
<path d="M42.7796 6.26527H25.291C23.8369 6.26527 22.657 6.88059 22.657 7.63941V8.49879C22.657 7.73996 23.8369 7.12465 25.291 7.12465H42.7798C43.0225 7.12465 43.2192 7.32145 43.2192 7.56413V6.70476C43.2192 6.46207 43.0225 6.26527 42.7796 6.26527Z" fill="#FFEFE4"/>
<path d="M37.9307 15.4852H27.9453C27.4708 15.4852 27.0859 15.1003 27.0859 14.6258C27.0859 14.1512 27.4708 13.7664 27.9453 13.7664H37.9307C38.4053 13.7664 38.7901 14.1512 38.7901 14.6258C38.7901 15.1003 38.4053 15.4852 37.9307 15.4852Z" fill="#FFF7F2"/>
<path d="M37.9307 20.2755H27.9453C27.4708 20.2755 27.0859 19.8907 27.0859 19.4161C27.0859 18.9416 27.4708 18.5567 27.9453 18.5567H37.9307C38.4053 18.5567 38.7901 18.9416 38.7901 19.4161C38.7901 19.8907 38.4053 20.2755 37.9307 20.2755Z" fill="#FFF7F2"/>
<path d="M37.9307 25.066H27.9453C27.4708 25.066 27.0859 24.6812 27.0859 24.2066C27.0859 23.7321 27.4708 23.3472 27.9453 23.3472H37.9307C38.4053 23.3472 38.7901 23.7321 38.7901 24.2066C38.7901 24.6812 38.4053 25.066 37.9307 25.066Z" fill="#FFF7F2"/>
<path d="M37.9307 29.8563H27.9453C27.4708 29.8563 27.0859 29.4715 27.0859 28.9969C27.0859 28.5224 27.4708 28.1376 27.9453 28.1376H37.9307C38.4053 28.1376 38.7901 28.5224 38.7901 28.9969C38.7901 29.4715 38.4053 29.8563 37.9307 29.8563Z" fill="#FFF7F2"/>
<path d="M17.3685 25.066H7.38306C6.90851 25.066 6.52368 24.6812 6.52368 24.2066C6.52368 23.7321 6.90851 23.3472 7.38306 23.3472H17.3685C17.843 23.3472 18.2279 23.7321 18.2279 24.2066C18.2279 24.6812 17.843 25.066 17.3685 25.066Z" fill="#EDD4C2"/>
<path d="M17.3685 29.8563H7.38306C6.90851 29.8563 6.52368 29.4715 6.52368 28.9969C6.52368 28.5224 6.90851 28.1376 7.38306 28.1376H17.3685C17.843 28.1376 18.2279 28.5224 18.2279 28.9969C18.2279 29.4715 17.843 29.8563 17.3685 29.8563Z" fill="#EDD4C2"/>
<path d="M17.4948 20.2755H7.25673C6.85196 20.2755 6.52368 19.9474 6.52368 19.5424V14.4995C6.52368 14.0947 6.85179 13.7664 7.25673 13.7664H17.4948C17.8996 13.7664 18.2279 14.0945 18.2279 14.4995V19.5426C18.2279 19.9474 17.8996 20.2755 17.4948 20.2755Z" fill="#D476E2"/>
</g>
<defs>
<clipPath id="clip0_714_6527">
<rect width="44" height="44" fill="white" transform="translate(0.647461 0.647537)"/>
</clipPath>
</defs>
</svg>
