<svg width="39" height="43" viewBox="0 0 39 43" fill="none" xmlns="http://www.w3.org/2000/svg">
<rect x="12" y="15" width="8" height="13" fill="#1A8245"/>
<path d="M38.2375 36.2812L32.1281 5.13281C31.9125 4.00781 31.2656 2.95312 30.2594 2.32031C29.2531 1.6875 28.1031 1.40625 26.8813 1.61719L21.9219 2.53125C21.2031 1.05469 19.6219 0 17.8969 0H11.2125H4.52813C2.0125 0.0703125 0 2.03906 0 4.42969V38.1797C0 40.5703 2.0125 42.6094 4.52813 42.6094H11.2125H17.8969C20.3406 42.6094 22.425 40.6406 22.425 38.1797V18L26.3781 38.5312C26.5938 39.6562 27.2406 40.7109 28.2469 41.3437C28.9656 41.8359 29.9 42.1172 30.7625 42.1172C31.05 42.1172 31.3375 42.1172 31.625 42.0469L34.7156 41.4844C37.1594 40.9922 38.7406 38.6719 38.2375 36.2812ZM19.1187 4.42969V12.7266H12.7937V3.23438H17.825C18.5437 3.23438 19.1187 3.72656 19.1187 4.42969ZM9.55937 30.7266H3.23438V13.8516H9.55937V30.7266ZM12.7937 15.8906H19.1187V26.0859H12.7937V15.8906ZM4.52813 3.23438H9.55937V10.7578H3.23438V4.42969C3.23438 3.72656 3.80938 3.23438 4.52813 3.23438ZM3.23438 38.1797V33.8906H9.55937V39.375H4.52813C3.80938 39.4453 3.23438 38.8828 3.23438 38.1797ZM17.8969 39.4453H12.8656V29.25H19.1906V38.1797C19.1187 38.8828 18.5438 39.4453 17.8969 39.4453ZM34.0688 38.3203L31.05 38.8828C30.6906 38.9531 30.4031 38.8828 30.1156 38.6719C29.8281 38.4609 29.6844 38.1797 29.6125 37.8984L23.2156 5.55469L27.5281 4.78125C27.8875 4.71094 28.175 4.78125 28.4625 4.99219C28.75 5.20312 28.8937 5.48437 28.9656 5.76562L35.075 36.9141C35.2188 37.5469 34.7875 38.1797 34.0688 38.3203Z" fill="#CAD2DB"/>
</svg>
