<svg width="43" height="44" viewBox="0 0 43 44" fill="none" xmlns="http://www.w3.org/2000/svg">
<rect x="2.73438" y="2.77814" width="27" height="17" fill="#CAD2DB"/>
<rect x="29" y="6" width="13" height="10" fill="#CAD2DB"/>
<path d="M41.4141 3.7375C40.7109 3.23437 39.8672 3.1625 39.0938 3.45L32.625 5.82188V4.52813C32.625 2.08438 30.6563 0 28.1953 0H4.35938C1.96875 0.071875 0 2.08438 0 4.52813V17.4656C0 19.9094 1.96875 21.9937 4.42969 21.9937H13.5L2.67188 41.1125C2.25 41.9031 2.53125 42.8375 3.23438 43.3406C3.51563 43.4844 3.72656 43.5562 4.00781 43.5562C4.57031 43.5562 5.0625 43.2687 5.41406 42.7656L15.75 24.3656L26.0859 42.7656C26.3672 43.2687 26.9297 43.5562 27.4922 43.5562C27.7734 43.5562 28.0547 43.4844 28.2656 43.3406C29.0391 42.9094 29.25 41.9031 28.8281 41.1125L18.0703 21.9219H28.2656C30.6562 21.9219 32.6953 19.9094 32.6953 17.3937V16.1L39.1641 18.4719C39.4453 18.5437 39.7266 18.6156 40.0078 18.6156C40.5 18.6156 41.0625 18.4719 41.4844 18.1125C42.1875 17.6094 42.5391 16.8188 42.5391 16.0281V5.89375C42.5391 5.03125 42.1172 4.24062 41.4141 3.7375ZM28.2656 18.6875H4.35938C3.65625 18.6875 3.09375 18.1125 3.09375 17.3937V4.52813C3.16406 3.80938 3.65625 3.30625 4.35938 3.30625H28.2656C28.9688 3.30625 29.5312 3.88125 29.5312 4.6V17.5375C29.5312 18.1844 28.9688 18.6875 28.2656 18.6875ZM39.375 15.1656L32.6953 12.7219V9.27188L39.375 6.82812V15.1656Z" fill="#FF0F0F"/>
</svg>
