<svg width="45" height="45" viewBox="0 0 45 45" fill="none" xmlns="http://www.w3.org/2000/svg">
<path d="M25.8132 37.859H17.8787L15.4263 19.8262H28.4099L25.8132 37.859Z" fill="#F57F17" stroke="#424242" stroke-miterlimit="10" stroke-linecap="round" stroke-linejoin="round"/>
<path d="M27.1837 23.577L21.9181 21.2689L16.6526 23.577C15.2099 24.2262 13.623 23.1443 13.623 21.5574V16.941C13.623 14.5607 15.5706 12.6131 17.9509 12.6131H25.8853C28.2657 12.6131 30.2132 14.5607 30.2132 16.941V21.5574C30.1411 23.1443 28.5542 24.1541 27.1837 23.577Z" fill="#F57F17" stroke="#424242" stroke-miterlimit="10" stroke-linecap="round" stroke-linejoin="round"/>
<path d="M28.4099 40.0229H15.4263C15.4263 38.7967 16.364 37.859 17.5902 37.859H28.4099V40.0229Z" fill="#F57F17" stroke="#424242" stroke-miterlimit="10" stroke-linecap="round" stroke-linejoin="round"/>
<path d="M29.8524 44.3508H13.9835C12.7573 44.3508 11.8196 43.4131 11.8196 42.1869C11.8196 40.9607 12.7573 40.0229 13.9835 40.0229H29.8524C31.0786 40.0229 32.0163 40.9607 32.0163 42.1869C32.0163 43.4131 31.0065 44.3508 29.8524 44.3508Z" fill="#455A64" stroke="#424242" stroke-miterlimit="10" stroke-linecap="round" stroke-linejoin="round"/>
<path d="M28.6984 37.859H20.764L18.3115 19.8262H31.2951L28.6984 37.859Z" fill="#FFA726" stroke="#424242" stroke-miterlimit="10" stroke-linecap="round" stroke-linejoin="round"/>
<path d="M22.0623 36.4164L19.9705 21.2689" stroke="#FFCC80" stroke-miterlimit="10" stroke-linecap="round" stroke-linejoin="round"/>
<path d="M29.636 21.2689L27.5442 36.4164" stroke="#F57F17" stroke-miterlimit="10" stroke-linecap="round" stroke-linejoin="round"/>
<path d="M23.3606 12.6131C26.5475 12.6131 29.1311 10.0296 29.1311 6.84262C29.1311 3.65567 26.5475 1.07213 23.3606 1.07213C20.1736 1.07213 17.5901 3.65567 17.5901 6.84262C17.5901 10.0296 20.1736 12.6131 23.3606 12.6131Z" fill="#FFA726" stroke="#424242" stroke-miterlimit="10" stroke-linecap="round" stroke-linejoin="round"/>
<path d="M19.0327 6.84262C19.0327 4.4623 20.9803 2.51476 23.3606 2.51476" stroke="#FFCC80" stroke-miterlimit="10" stroke-linecap="round" stroke-linejoin="round"/>
<path d="M30.069 23.577L24.8034 21.2689L19.5378 23.577C18.0952 24.2262 16.5083 23.1443 16.5083 21.5574V16.941C16.5083 14.5607 18.4558 12.6131 20.8362 12.6131H28.7706C31.1509 12.6131 33.0985 14.5607 33.0985 16.941V21.5574C33.0263 23.1443 31.4394 24.1541 30.069 23.577Z" fill="#FFA726" stroke="#424242" stroke-miterlimit="10" stroke-linecap="round" stroke-linejoin="round"/>
<path d="M17.8787 21.5574V16.941C17.8787 15.3541 19.177 14.0557 20.7639 14.0557" stroke="#FFCC80" stroke-miterlimit="10" stroke-linecap="round" stroke-linejoin="round"/>
<path d="M28.6982 14.0557C30.2851 14.0557 31.5835 15.3541 31.5835 16.941V21.5574" stroke="#F57F17" stroke-miterlimit="10" stroke-linecap="round" stroke-linejoin="round"/>
<path d="M31.2951 40.0229H18.3115C18.3115 38.7967 19.2492 37.859 20.4755 37.859H29.1312C30.2853 37.859 31.2951 38.7967 31.2951 40.0229Z" fill="#FFA726" stroke="#424242" stroke-miterlimit="10" stroke-linecap="round" stroke-linejoin="round"/>
<path d="M32.7376 44.3508H16.8688C15.6425 44.3508 14.7048 43.4131 14.7048 42.1869C14.7048 40.9607 15.6425 40.0229 16.8688 40.0229H32.7376C33.9639 40.0229 34.9016 40.9607 34.9016 42.1869C34.9016 43.4131 33.8917 44.3508 32.7376 44.3508Z" fill="#546E7A" stroke="#424242" stroke-miterlimit="10" stroke-linecap="round" stroke-linejoin="round"/>
<path d="M40.8163 5.68852C40.0228 5.47213 39.4458 4.89508 39.2294 4.10164L38.436 1L37.6425 4.10164C37.4261 4.89508 36.8491 5.47213 36.0556 5.68852L33.0261 6.48197L36.1278 7.27541C36.9212 7.4918 37.4983 8.06885 37.7146 8.8623L38.5081 11.9639L39.3015 8.8623C39.5179 8.06885 40.095 7.4918 40.8884 7.27541L43.8458 6.48197L40.8163 5.68852Z" fill="#CFD8DC" stroke="#424242" stroke-miterlimit="10" stroke-linecap="round" stroke-linejoin="round"/>
<path d="M8.71803 31.6557C7.92459 31.4393 7.34754 30.8623 7.13115 30.0688L6.3377 26.9672L5.54426 30.0688C5.32787 30.8623 4.75082 31.4393 3.95738 31.6557L1 32.4492L4.02951 33.2426C4.82295 33.459 5.4 34.0361 5.61639 34.8295L6.40984 37.9311L7.20328 34.8295C7.41967 34.0361 7.99672 33.459 8.79016 33.2426L11.8918 32.4492L8.71803 31.6557Z" fill="#CFD8DC" stroke="#424242" stroke-miterlimit="10" stroke-linecap="round" stroke-linejoin="round"/>
<path d="M24.8032 21.2689V37.859" stroke="#424242" stroke-miterlimit="10" stroke-linecap="round" stroke-linejoin="round"/>
</svg>
