<svg width="46" height="45" viewBox="0 0 46 45" fill="none" xmlns="http://www.w3.org/2000/svg">
<path d="M27.0766 22.4993L21.1448 26.4996L21.0101 18.7065L27.0766 22.4993Z" fill="#FF0F0F"/>
<path d="M38.8125 1.26562H7.18755C3.95317 1.26562 1.22192 3.86719 1.22192 7.10156V38.0391C1.22192 41.2031 3.8813 43.875 7.18755 43.875H38.8125C42.0469 43.875 44.7782 41.2734 44.7782 38.0391V7.03125C44.7782 3.86719 42.0469 1.26562 38.8125 1.26562ZM11.1407 20.9531H4.52817V14.0625H11.2125V20.9531H11.1407ZM4.52817 24.1172H11.2125V30.9375H4.52817V24.1172ZM14.375 4.42969H31.625V40.6406H14.375V4.42969ZM41.5438 20.9531H34.8594V14.0625H41.5438V20.9531ZM34.8594 24.1172H41.5438V30.9375H34.8594V24.1172ZM41.5438 7.03125V10.8984H34.8594V4.42969H38.8125C40.3219 4.42969 41.5438 5.55469 41.5438 7.03125ZM7.18755 4.42969H11.1407V10.9688H4.52817V7.03125C4.52817 5.55469 5.67817 4.42969 7.18755 4.42969ZM4.52817 37.9688V34.1016H11.2125V40.6406H7.18755C5.67817 40.6406 4.52817 39.4453 4.52817 37.9688ZM38.8125 40.6406H34.8594V34.1016H41.5438V37.9688C41.5438 39.4453 40.3219 40.6406 38.8125 40.6406Z" fill="#CAD2DB"/>
<path d="M28.6063 20.3203L21.9938 16.3828C21.2032 15.8906 20.1969 15.8906 19.4063 16.3125C18.6157 16.7344 18.1125 17.5781 18.1125 18.4922V26.2969C18.1125 27.2109 18.6157 28.0547 19.4063 28.4766C19.7657 28.6875 20.2688 28.8281 20.7 28.8281C21.2032 28.8281 21.6344 28.6875 22.0657 28.4766L28.6782 24.5391C29.4688 24.0469 29.9 23.2734 29.9 22.3594C29.9 21.4453 29.3969 20.8125 28.6063 20.3203ZM21.3469 25.3125V19.6875L26.0907 22.5L21.3469 25.3125Z" fill="#CAD2DB"/>
</svg>
