<svg width="46" height="34" viewBox="0 0 46 34" fill="none" xmlns="http://www.w3.org/2000/svg">
<path d="M38.4 32.7213H3.2C1.95333 32.7213 1 31.8049 1 30.6066V3.11475C1 1.91639 1.95333 1 3.2 1H38.4C39.6467 1 40.6 1.91639 40.6 3.11475V30.6066C40.6 31.8049 39.6467 32.7213 38.4 32.7213Z" fill="#455A64" stroke="#424242" stroke-miterlimit="10" stroke-linecap="round" stroke-linejoin="round"/>
<path d="M38.4 1H3.2C1.95333 1 1 1.91639 1 3.11475V8.04918H40.6V3.11475C40.6 1.91639 39.6467 1 38.4 1Z" fill="#B0BEC5" stroke="#424242" stroke-miterlimit="10" stroke-linecap="round" stroke-linejoin="round"/>
<path d="M3.2 32.7213H38.4C39.6467 32.7213 40.6 31.8049 40.6 30.6066V25.6721H1V30.6066C1 31.8049 1.95333 32.7213 3.2 32.7213Z" fill="#B0BEC5" stroke="#424242" stroke-miterlimit="10" stroke-linecap="round" stroke-linejoin="round"/>
<path d="M2.4668 25.6721V8.04918" stroke="#546E7A" stroke-miterlimit="10" stroke-linecap="round" stroke-linejoin="round"/>
<path d="M2.4668 30.6066V25.6721" stroke="#CFD8DC" stroke-miterlimit="10" stroke-linecap="round" stroke-linejoin="round"/>
<path d="M3.2 32.7213H38.4C39.6467 32.7213 40.6 31.8049 40.6 30.6066V25.6721H1V30.6066C1 31.8049 1.95333 32.7213 3.2 32.7213Z" stroke="#424242" stroke-miterlimit="10" stroke-linecap="round" stroke-linejoin="round"/>
<path d="M2.4668 8.04919V3.11476" stroke="#CFD8DC" stroke-miterlimit="10" stroke-linecap="round" stroke-linejoin="round"/>
<path d="M38.4 1H3.2C1.95333 1 1 1.91639 1 3.11475V8.04918H40.6V3.11475C40.6 1.91639 39.6467 1 38.4 1Z" stroke="#424242" stroke-miterlimit="10" stroke-linecap="round" stroke-linejoin="round"/>
<path d="M42.7999 32.7213H7.5999C6.35324 32.7213 5.3999 31.8049 5.3999 30.6066V3.11475C5.3999 1.91639 6.35324 1 7.5999 1H42.7999C44.0466 1 44.9999 1.91639 44.9999 3.11475V30.6066C44.9999 31.8049 44.0466 32.7213 42.7999 32.7213Z" fill="#546E7A" stroke="#424242" stroke-miterlimit="10" stroke-linecap="round" stroke-linejoin="round"/>
<path d="M41.3333 8.04918H9.06665V25.6721H41.3333V8.04918Z" fill="#26C6DA" stroke="#424242" stroke-miterlimit="10" stroke-linecap="round" stroke-linejoin="round"/>
<path d="M25.2002 22.5C28.4402 22.5 31.0668 19.9752 31.0668 16.8607C31.0668 13.7461 28.4402 11.2213 25.2002 11.2213C21.9601 11.2213 19.3335 13.7461 19.3335 16.8607C19.3335 19.9752 21.9601 22.5 25.2002 22.5Z" stroke="#0097A7" stroke-miterlimit="10" stroke-linecap="round" stroke-linejoin="round"/>
<path d="M30.4066 21.8656C27.5466 24.6148 22.9266 24.6148 20.0666 21.8656C17.2066 19.1164 17.2066 14.6754 20.0666 11.9262C22.9266 9.17705 27.5466 9.17705 30.4066 11.9262C31.8733 13.3361 32.5333 15.0984 32.5333 16.9312" stroke="#0097A7" stroke-miterlimit="10" stroke-linecap="round" stroke-linejoin="round"/>
<path d="M25.2 8.04918V12.9836" stroke="#0097A7" stroke-miterlimit="10" stroke-linecap="round" stroke-linejoin="round"/>
<path d="M25.2 20.7377V25.6721" stroke="#0097A7" stroke-miterlimit="10" stroke-linecap="round" stroke-linejoin="round"/>
<path d="M41.3334 16.8607H29.2334" stroke="#0097A7" stroke-miterlimit="10" stroke-linecap="round" stroke-linejoin="round"/>
<path d="M21.1666 16.8607H9.06665" stroke="#0097A7" stroke-miterlimit="10" stroke-linecap="round" stroke-linejoin="round"/>
<path d="M23.5867 14.7459H27.2533L24.2467 19.3984" stroke="#0097A7" stroke-miterlimit="10" stroke-linecap="round" stroke-linejoin="round"/>
<path d="M6.8667 25.6721V8.04918" stroke="#78909C" stroke-miterlimit="10" stroke-linecap="round" stroke-linejoin="round"/>
<path d="M43.5334 25.6721V8.04918" stroke="#455A64" stroke-miterlimit="10" stroke-linecap="round" stroke-linejoin="round"/>
<path d="M42.7999 1H7.5999C6.35324 1 5.3999 1.91639 5.3999 3.11475V8.04918H44.9999V3.11475C44.9999 1.91639 44.0466 1 42.7999 1Z" fill="#CFD8DC" stroke="#424242" stroke-miterlimit="10" stroke-linecap="round" stroke-linejoin="round"/>
<path d="M6.8667 8.04919V3.11476" stroke="#ECEFF1" stroke-miterlimit="10" stroke-linecap="round" stroke-linejoin="round"/>
<path d="M43.5334 8.04919V3.11476" stroke="#B0BEC5" stroke-miterlimit="10" stroke-linecap="round" stroke-linejoin="round"/>
<path d="M11.6333 6.28689H9.43328C8.99328 6.28689 8.69995 6.00492 8.69995 5.58197V3.46722C8.69995 3.04427 8.99328 2.7623 9.43328 2.7623H11.6333C12.0733 2.7623 12.3666 3.04427 12.3666 3.46722V5.58197C12.3666 6.00492 12.0733 6.28689 11.6333 6.28689Z" fill="#455A64" stroke="#424242" stroke-miterlimit="10" stroke-linecap="round" stroke-linejoin="round"/>
<path d="M18.9668 6.28689H16.7668C16.3268 6.28689 16.0334 6.00492 16.0334 5.58197V3.46722C16.0334 3.04427 16.3268 2.7623 16.7668 2.7623H18.9668C19.4068 2.7623 19.7001 3.04427 19.7001 3.46722V5.58197C19.7001 6.00492 19.4068 6.28689 18.9668 6.28689Z" fill="#455A64" stroke="#424242" stroke-miterlimit="10" stroke-linecap="round" stroke-linejoin="round"/>
<path d="M26.3 6.28689H24.1C23.66 6.28689 23.3667 6.00492 23.3667 5.58197V3.46722C23.3667 3.04427 23.66 2.7623 24.1 2.7623H26.3C26.74 2.7623 27.0334 3.04427 27.0334 3.46722V5.58197C27.0334 6.00492 26.74 6.28689 26.3 6.28689Z" fill="#455A64" stroke="#424242" stroke-miterlimit="10" stroke-linecap="round" stroke-linejoin="round"/>
<path d="M33.6333 6.28689H31.4333C30.9933 6.28689 30.7 6.00492 30.7 5.58197V3.46722C30.7 3.04427 30.9933 2.7623 31.4333 2.7623H33.6333C34.0733 2.7623 34.3666 3.04427 34.3666 3.46722V5.58197C34.3666 6.00492 34.0733 6.28689 33.6333 6.28689Z" fill="#455A64" stroke="#424242" stroke-miterlimit="10" stroke-linecap="round" stroke-linejoin="round"/>
<path d="M40.9668 6.28689H38.7668C38.3268 6.28689 38.0334 6.00492 38.0334 5.58197V3.46722C38.0334 3.04427 38.3268 2.7623 38.7668 2.7623H40.9668C41.4068 2.7623 41.7001 3.04427 41.7001 3.46722V5.58197C41.7001 6.00492 41.4068 6.28689 40.9668 6.28689Z" fill="#455A64" stroke="#424242" stroke-miterlimit="10" stroke-linecap="round" stroke-linejoin="round"/>
<path d="M7.5999 32.7213H42.7999C44.0466 32.7213 44.9999 31.8049 44.9999 30.6066V25.6721H5.3999V30.6066C5.3999 31.8049 6.35324 32.7213 7.5999 32.7213Z" fill="#CFD8DC" stroke="#424242" stroke-miterlimit="10" stroke-linecap="round" stroke-linejoin="round"/>
<path d="M38.7668 27.4344H40.9668C41.4068 27.4344 41.7001 27.7164 41.7001 28.1393V30.2541C41.7001 30.677 41.4068 30.959 40.9668 30.959H38.7668C38.3268 30.959 38.0334 30.677 38.0334 30.2541V28.1393C38.0334 27.7164 38.3268 27.4344 38.7668 27.4344Z" fill="#455A64" stroke="#424242" stroke-miterlimit="10" stroke-linecap="round" stroke-linejoin="round"/>
<path d="M31.4333 27.4344H33.6333C34.0733 27.4344 34.3666 27.7164 34.3666 28.1393V30.2541C34.3666 30.677 34.0733 30.959 33.6333 30.959H31.4333C30.9933 30.959 30.7 30.677 30.7 30.2541V28.1393C30.7 27.7164 30.9933 27.4344 31.4333 27.4344Z" fill="#455A64" stroke="#424242" stroke-miterlimit="10" stroke-linecap="round" stroke-linejoin="round"/>
<path d="M24.1 27.4344H26.3C26.74 27.4344 27.0334 27.7164 27.0334 28.1393V30.2541C27.0334 30.677 26.74 30.959 26.3 30.959H24.1C23.66 30.959 23.3667 30.677 23.3667 30.2541V28.1393C23.3667 27.7164 23.66 27.4344 24.1 27.4344Z" fill="#455A64" stroke="#424242" stroke-miterlimit="10" stroke-linecap="round" stroke-linejoin="round"/>
<path d="M16.7668 27.4344H18.9668C19.4068 27.4344 19.7001 27.7164 19.7001 28.1393V30.2541C19.7001 30.677 19.4068 30.959 18.9668 30.959H16.7668C16.3268 30.959 16.0334 30.677 16.0334 30.2541V28.1393C16.0334 27.7164 16.3268 27.4344 16.7668 27.4344Z" fill="#455A64" stroke="#424242" stroke-miterlimit="10" stroke-linecap="round" stroke-linejoin="round"/>
<path d="M9.43328 27.4344H11.6333C12.0733 27.4344 12.3666 27.7164 12.3666 28.1393V30.2541C12.3666 30.677 12.0733 30.959 11.6333 30.959H9.43328C8.99328 30.959 8.69995 30.677 8.69995 30.2541V28.1393C8.69995 27.7164 8.99328 27.4344 9.43328 27.4344Z" fill="#455A64" stroke="#424242" stroke-miterlimit="10" stroke-linecap="round" stroke-linejoin="round"/>
<path d="M41.3333 8.04918H9.06665V25.6721H41.3333V8.04918Z" stroke="#424242" stroke-miterlimit="10" stroke-linecap="round" stroke-linejoin="round"/>
<path d="M42.7999 1H7.5999C6.35324 1 5.3999 1.91639 5.3999 3.11475V8.04918H44.9999V3.11475C44.9999 1.91639 44.0466 1 42.7999 1Z" stroke="#424242" stroke-miterlimit="10" stroke-linecap="round" stroke-linejoin="round"/>
<path d="M43.5334 30.6066V25.6721" stroke="#B0BEC5" stroke-miterlimit="10" stroke-linecap="round" stroke-linejoin="round"/>
<path d="M6.8667 30.6066V25.6721" stroke="#ECEFF1" stroke-miterlimit="10" stroke-linecap="round" stroke-linejoin="round"/>
<path d="M7.5999 32.7213H42.7999C44.0466 32.7213 44.9999 31.8049 44.9999 30.6066V25.6721H5.3999V30.6066C5.3999 31.8049 6.35324 32.7213 7.5999 32.7213Z" stroke="#424242" stroke-miterlimit="10" stroke-linecap="round" stroke-linejoin="round"/>
</svg>
