<svg width="44" height="44" viewBox="0 0 44 44" fill="none" xmlns="http://www.w3.org/2000/svg">
<g clip-path="url(#clip0_715_6961)">
<path d="M42.7791 33.958H1.22526C0.549791 33.958 0.00219727 33.4104 0.00219727 32.735V1.22306C0.00219727 0.547594 0.549791 0 1.22526 0H42.779C43.4544 0 44.002 0.547594 44.002 1.22306V32.735C44.0022 33.4104 43.4546 33.958 42.7791 33.958Z" fill="#6770E6"/>
<path d="M42.7791 0H1.22526C0.549791 0 0.00219727 0.547594 0.00219727 1.22306V2.42619C0.00219727 1.75072 0.549791 1.20312 1.22526 1.20312H42.7791C43.4546 1.20312 44.0022 1.75072 44.0022 2.42619V1.22306C44.0022 0.547594 43.4546 0 42.7791 0Z" fill="#8F95E6"/>
<path d="M2.58032 30.1568V4.22744C2.58032 3.3165 3.3187 2.57812 4.22963 2.57812H39.7748C40.6857 2.57812 41.4241 3.3165 41.4241 4.22744V30.1568C41.4241 30.8323 40.8765 31.3799 40.201 31.3799H3.80338C3.12792 31.3799 2.58032 30.8323 2.58032 30.1568Z" fill="#FFEFE4"/>
<path d="M27.3451 33.958H16.8696V40.5641H27.3451V33.958Z" fill="#5861C7"/>
<path d="M32.2984 44H11.9654C11.0167 44 10.2476 43.2309 10.2476 42.2821C10.2476 41.3334 11.0167 40.5642 11.9654 40.5642H32.2984C33.2472 40.5642 34.0163 41.3334 34.0163 42.2821C34.0163 43.2309 33.2472 44 32.2984 44Z" fill="#6770E6"/>
<path d="M32.2984 42.7969H11.9654C11.2285 42.7969 10.6019 42.3321 10.3578 41.6805C10.2875 41.8681 10.2473 42.0702 10.2473 42.2821C10.2473 43.2309 11.0165 44 11.9652 44H32.2982C33.2469 44 34.0161 43.2309 34.0161 42.2821C34.0161 42.0702 33.9759 41.8681 33.9056 41.6805C33.6618 42.3321 33.0352 42.7969 32.2984 42.7969Z" fill="#5861C7"/>
<path d="M39.7748 2.57812H4.22963C3.3187 2.57812 2.58032 3.3165 2.58032 4.22744V6.38447H41.4241V4.22744C41.4241 3.3165 40.6857 2.57812 39.7748 2.57812Z" fill="#D476E2"/>
<path d="M5.23201 5.41423C5.74726 5.41423 6.16495 4.99654 6.16495 4.48129C6.16495 3.96605 5.74726 3.54836 5.23201 3.54836C4.71676 3.54836 4.29907 3.96605 4.29907 4.48129C4.29907 4.99654 4.71676 5.41423 5.23201 5.41423Z" fill="#B665C2"/>
<path d="M8.81673 5.41423C9.33197 5.41423 9.74966 4.99654 9.74966 4.48129C9.74966 3.96605 9.33197 3.54836 8.81673 3.54836C8.30148 3.54836 7.88379 3.96605 7.88379 4.48129C7.88379 4.99654 8.30148 5.41423 8.81673 5.41423Z" fill="#B665C2"/>
<path d="M12.3099 5.41423C12.8251 5.41423 13.2428 4.99654 13.2428 4.48129C13.2428 3.96605 12.8251 3.54836 12.3099 3.54836C11.7946 3.54836 11.377 3.96605 11.377 4.48129C11.377 4.99654 11.7946 5.41423 12.3099 5.41423Z" fill="#B665C2"/>
<path d="M18 11.5789C18 11.6975 17.9609 11.8171 17.8797 11.9201L13.593 17.3576C13.5261 17.4424 13.5261 17.5577 13.593 17.6425L17.8797 23.0799C18.0827 23.3376 18.0227 23.6995 17.7454 23.8882C17.4681 24.0769 17.0787 24.0211 16.8756 23.7634L12.0501 17.6424C11.9833 17.5576 11.9833 17.4424 12.0501 17.3576L16.8756 11.2366C17.0787 10.9789 17.4681 10.9231 17.7454 11.1118C17.9118 11.2252 18 11.4008 18 11.5789Z" fill="#FF8354"/>
<path d="M27 23.4211C27 23.3025 27.0391 23.1829 27.1203 23.0799L31.407 17.6424C31.4739 17.5576 31.4739 17.4423 31.407 17.3575L27.1203 11.9201C26.9173 11.6624 26.9773 11.3005 27.2546 11.1118C27.5319 10.9231 27.9213 10.9789 28.1244 11.2366L32.9499 17.3576C33.0167 17.4424 33.0167 17.5576 32.9499 17.6424L28.1244 23.7634C27.9213 24.0211 27.5319 24.0769 27.2546 23.8882C27.0882 23.7748 27 23.5992 27 23.4211Z" fill="#FF8354"/>
</g>
<defs>
<clipPath id="clip0_715_6961">
<rect width="44" height="44" fill="white"/>
</clipPath>
</defs>
</svg>
