<svg width="45" height="45" viewBox="0 0 45 45" fill="none" xmlns="http://www.w3.org/2000/svg">
<rect x="4" y="5" width="37" height="7" fill="#03A9F4"/>
<path d="M39.375 2.60156H5.625C3.23438 2.60156 1.19531 4.57031 1.19531 7.03125V38.0391C1.19531 40.4297 3.16406 42.4688 5.625 42.4688H39.375C41.7656 42.4688 43.8047 40.5 43.8047 38.0391V6.96094C43.8047 4.57031 41.7656 2.60156 39.375 2.60156ZM5.625 5.76562H39.375C40.0781 5.76562 40.6406 6.32813 40.6406 7.03125V11.3906H4.42969V6.96094C4.42969 6.32812 4.92187 5.76562 5.625 5.76562ZM39.375 39.2344H5.625C4.92187 39.2344 4.35937 38.6719 4.35937 37.9688V14.4844H40.5703V37.9688C40.6406 38.6719 40.0781 39.2344 39.375 39.2344Z" fill="#CAD2DB"/>
<path d="M14.7656 32.2734H14.6953V28.7578C14.6953 28.3359 14.5547 27.9844 14.2734 27.7031L13.2187 26.5781L14.2734 25.4531C14.5547 25.1719 14.6953 24.75 14.6953 24.3984V21.3047H14.7656C15.6094 21.3047 16.3828 20.6016 16.3828 19.6875C16.3828 18.7734 15.6797 18.0703 14.7656 18.0703H13.0781C12.2344 18.0703 11.4609 18.7734 11.4609 19.6875V23.7656L9.91406 25.5234C9.35156 26.1562 9.35156 27.0703 9.91406 27.6328L11.4609 29.3906V33.8906C11.4609 34.7344 12.1641 35.5078 13.0781 35.5078H14.7656C15.6094 35.5078 16.3828 34.8047 16.3828 33.8906C16.3828 32.9766 15.6094 32.2734 14.7656 32.2734Z" fill="#CAD2DB"/>
<path d="M33.4687 23.7656V19.6875C33.4687 18.8437 32.7656 18.0703 31.8516 18.0703H30.2344C29.3906 18.0703 28.6172 18.7734 28.6172 19.6875C28.6172 20.6016 29.3203 21.3047 30.2344 21.3047H30.3047V24.3984C30.3047 24.8203 30.4453 25.1719 30.7266 25.4531L31.7812 26.5781L30.7266 27.7031C30.4453 27.9844 30.3047 28.4063 30.3047 28.7578V32.2734H30.2344C29.3906 32.2734 28.6172 32.9766 28.6172 33.8906C28.6172 34.8047 29.3203 35.5078 30.2344 35.5078H31.9219C32.7656 35.5078 33.5391 34.8047 33.5391 33.8906V29.3906L35.0859 27.6328C35.6484 27 35.6484 26.0859 35.0859 25.5234L33.4687 23.7656Z" fill="#CAD2DB"/>
</svg>
