<svg width="44" height="44" viewBox="0 0 44 44" fill="none" xmlns="http://www.w3.org/2000/svg">
<path d="M21.9712 37.3288C30.5143 37.3288 37.4399 30.4032 37.4399 21.8601C37.4399 13.3169 30.5143 6.39134 21.9712 6.39134C13.428 6.39134 6.50244 13.3169 6.50244 21.8601C6.50244 30.4032 13.428 37.3288 21.9712 37.3288Z" fill="#8479B9"/>
<path d="M8.22119 21.8601C8.22119 13.6055 14.6873 6.86142 22.8306 6.41558C22.5459 6.39994 22.2596 6.39134 21.9712 6.39134C13.428 6.39134 6.50244 13.3169 6.50244 21.8601C6.50244 30.4033 13.428 37.3288 21.9712 37.3288C22.2596 37.3288 22.5459 37.3202 22.8306 37.3046C14.6871 36.8586 8.22119 30.1147 8.22119 21.8601Z" fill="#E8E6F4"/>
<path d="M34.6899 21.8601C34.6899 26.2962 32.4178 30.2029 28.9751 32.4768C28.4303 32.8395 27.8562 33.1592 27.2563 33.4307C25.9192 34.0443 24.4599 34.431 22.9217 34.5427C22.9131 34.5445 22.9045 34.5445 22.8959 34.5445C22.5917 34.5685 22.2823 34.5788 21.9712 34.5788C21.6601 34.5788 21.3507 34.5685 21.0465 34.5445C21.0379 34.5445 21.0293 34.5445 21.0207 34.5427C19.4824 34.431 18.0232 34.0443 16.686 33.4307C16.0862 33.1592 15.5121 32.8395 14.9673 32.4768C11.5246 30.2029 9.25244 26.2962 9.25244 21.8601C9.25244 14.8356 14.9467 9.14134 21.9712 9.14134C28.9957 9.14134 34.6899 14.8354 34.6899 21.8601Z" fill="#94D3CC"/>
<path d="M22.7653 34.5445C22.7567 34.5445 22.7481 34.5445 22.7395 34.5427C21.2012 34.431 19.742 34.0443 18.4048 33.4307C17.8049 33.1592 17.2309 32.8395 16.686 32.4768C13.2434 30.2029 10.9712 26.2962 10.9712 21.8601C10.9712 15.1247 16.2072 9.61589 22.8306 9.17348C22.5463 9.1544 22.2603 9.14134 21.9712 9.14134C14.9467 9.14134 9.25244 14.8356 9.25244 21.8601C9.25244 26.2962 11.5246 30.2029 14.9673 32.4768C15.5121 32.8395 16.0862 33.1592 16.686 33.4307C18.0232 34.0443 19.4824 34.431 21.0207 34.5427C21.0293 34.5445 21.0379 34.5445 21.0465 34.5445C21.3507 34.5685 21.6601 34.5788 21.9712 34.5788C22.2601 34.5788 22.5473 34.5687 22.8306 34.5482C22.8089 34.5465 22.7869 34.5462 22.7653 34.5445Z" fill="#E8E6F4"/>
<path d="M21.9999 25.2067C25.1575 25.2067 27.7173 22.5962 27.7173 19.376C27.7173 16.1558 25.1575 13.5453 21.9999 13.5453C18.8422 13.5453 16.2825 16.1558 16.2825 19.376C16.2825 22.5962 18.8422 25.2067 21.9999 25.2067Z" fill="#FCC800"/>
<path d="M18.0012 19.3732C18.0012 16.4508 20.1094 14.031 22.8593 13.6082C22.5789 13.5651 22.2921 13.5425 21.9999 13.5425C18.8422 13.5425 16.2825 16.153 16.2825 19.3732C16.2825 22.5935 18.8422 25.2039 21.9999 25.2039C22.2921 25.2039 22.5789 25.1812 22.8593 25.1383C20.1094 24.7154 18.0012 22.2954 18.0012 19.3732Z" fill="#E8E6F4"/>
<path d="M21.9999 25.7223C18.5629 25.7223 15.7668 22.8754 15.7668 19.376C15.7668 15.8766 18.5629 13.0297 21.9999 13.0297C25.4369 13.0297 28.2329 15.8766 28.2329 19.376C28.2329 22.8754 25.4369 25.7223 21.9999 25.7223ZM21.9999 14.0609C19.1316 14.0609 16.7981 16.4453 16.7981 19.376C16.7981 22.3066 19.1316 24.691 21.9999 24.691C24.8681 24.691 27.2017 22.3066 27.2017 19.376C27.2017 16.4453 24.8681 14.0609 21.9999 14.0609Z" fill="#44294F"/>
<path d="M28.9751 32.2104V32.4768C28.4303 32.8395 27.8562 33.1592 27.2563 33.4307C25.9192 34.0443 24.4599 34.431 22.9217 34.5427C22.9131 34.5445 22.9045 34.5445 22.8959 34.5445H21.0465C21.0379 34.5445 21.0293 34.5445 21.0207 34.5427C19.4824 34.431 18.0232 34.0443 16.686 33.4307C16.0862 33.1592 15.5121 32.8395 14.9673 32.4768V32.2104C14.9673 31.1826 15.189 30.2063 15.586 29.3263C15.6324 29.2232 15.6823 29.1218 15.7338 29.0221C15.8112 28.8709 15.8937 28.7231 15.9813 28.577C16.069 28.4343 16.1618 28.2934 16.2598 28.1559C16.3578 28.0184 16.4609 27.8843 16.5657 27.7537C16.6379 27.6677 16.7118 27.5835 16.7857 27.501V27.4993C16.8545 27.4237 16.9267 27.3481 16.9988 27.2759C17.0573 27.2174 17.1157 27.1607 17.1759 27.1023C17.1845 27.0954 17.1931 27.0868 17.2017 27.0782C17.2463 27.037 17.291 26.9957 17.3374 26.9579C17.3718 26.9252 17.4062 26.896 17.4406 26.8668C17.5128 26.8049 17.5867 26.7448 17.6623 26.6881C17.676 26.676 17.6898 26.6657 17.7035 26.6554C17.8685 26.5282 18.0387 26.4096 18.214 26.2979C18.2862 26.2515 18.3618 26.2051 18.4374 26.1621C18.4495 26.1535 18.4632 26.1467 18.477 26.1381C18.5509 26.0951 18.6265 26.0538 18.7038 26.0143C18.7365 25.9971 18.7674 25.9799 18.8001 25.9645C18.8379 25.9438 18.8757 25.9249 18.9135 25.9077C18.9737 25.8785 19.0338 25.851 19.094 25.8235C19.1421 25.8012 19.1885 25.7806 19.2384 25.7599C19.3088 25.729 19.3793 25.7015 19.4515 25.6723C19.491 25.6585 19.5306 25.6431 19.5701 25.6293C19.6268 25.6087 19.6853 25.5881 19.742 25.5692C19.7918 25.552 19.8417 25.5365 19.8915 25.521C19.9482 25.5038 20.0032 25.4867 20.0599 25.4712C20.1562 25.4437 20.2542 25.4179 20.3521 25.3956C20.4003 25.3835 20.4501 25.3715 20.4999 25.3612C20.5034 25.3612 20.5051 25.3612 20.5085 25.3595C20.5601 25.3492 20.6117 25.3388 20.6649 25.3285C20.7165 25.3182 20.7698 25.3096 20.8231 25.301C20.9279 25.2838 21.0362 25.2684 21.1428 25.2563L21.4195 25.2288L21.471 25.2254C21.5088 25.222 21.5449 25.2202 21.5828 25.2185C21.5879 25.2168 21.5913 25.2168 21.5948 25.2168L21.6274 25.2151L21.8165 25.2082C21.8681 25.2065 21.9196 25.2065 21.9712 25.2065H22.0468C22.0795 25.2065 22.1121 25.2082 22.1448 25.2082C22.1585 25.2082 22.1706 25.2099 22.1826 25.2099C22.229 25.2117 22.2737 25.2134 22.3184 25.2151H22.3321C22.3923 25.2185 22.4507 25.222 22.5109 25.2271L22.6243 25.2374C22.6363 25.2392 22.6484 25.2409 22.6621 25.2409L22.8254 25.2581C22.8838 25.2649 22.9423 25.2735 23.0007 25.2838C23.0557 25.2924 23.1124 25.301 23.1674 25.3113C23.2242 25.3217 23.2792 25.332 23.3342 25.3423L23.3336 25.343C24.7219 25.614 25.9609 26.295 26.9246 27.2587C28.1913 28.5254 28.9751 30.2768 28.9751 32.2104Z" fill="#8D386D"/>
<path d="M22.8254 25.2581C22.8237 25.2598 22.8203 25.2598 22.8185 25.2598C22.1654 25.3406 21.5415 25.5107 20.9571 25.7582C18.4478 26.8238 16.686 29.3091 16.686 32.2087V33.4307C16.0862 33.1591 15.5121 32.8395 14.9673 32.4768V32.2104C14.9673 31.1826 15.189 30.2063 15.586 29.3263C15.6324 29.2232 15.6806 29.1218 15.7338 29.0221C15.8112 28.8709 15.8937 28.7231 15.9813 28.577C16.069 28.4326 16.1601 28.2916 16.2598 28.1559C16.3578 28.0184 16.4609 27.8843 16.5657 27.7537C16.6362 27.6677 16.7101 27.5835 16.7857 27.501C16.7857 27.501 16.7874 27.501 16.7857 27.4993C16.8613 27.4151 16.9387 27.3343 17.0178 27.2552C17.0805 27.1925 17.1453 27.132 17.2103 27.0719C17.2142 27.0682 17.2182 27.0643 17.2221 27.0605C17.2885 26.9993 17.3563 26.94 17.4249 26.8814C17.4363 26.8716 17.4474 26.8616 17.4588 26.852C17.5255 26.7958 17.5937 26.7413 17.6626 26.6875C17.6764 26.6769 17.6898 26.6659 17.7037 26.6552C17.7726 26.6021 17.8429 26.5507 17.9139 26.5002C17.928 26.4902 17.9419 26.4801 17.956 26.4701C18.0284 26.4194 18.1019 26.3701 18.1764 26.3221C18.1889 26.3141 18.2016 26.3058 18.2142 26.2977C18.2913 26.2486 18.3694 26.2011 18.4484 26.1551C18.4579 26.1496 18.4675 26.1441 18.477 26.1386C18.56 26.0906 18.644 26.0444 18.7293 25.9999C18.7336 25.9976 18.7381 25.9954 18.7423 25.9932C19.6511 25.5202 20.6759 25.241 21.7644 25.2096C21.7732 25.2092 21.7818 25.2086 21.7906 25.2082L21.81 25.208C21.8419 25.2074 21.8736 25.2051 21.9057 25.2048H22.0002C22.0157 25.2048 22.0312 25.2048 22.0466 25.2065C22.0827 25.2065 22.1171 25.2082 22.1515 25.2082C22.2082 25.2099 22.2632 25.2134 22.3182 25.2151H22.332C22.3921 25.2185 22.4506 25.222 22.5107 25.2271L22.6585 25.2409C22.6585 25.2409 22.6602 25.2409 22.662 25.2409L22.8254 25.2581Z" fill="#E8E6F4"/>
<path d="M22.8959 35.0601H21.0465C21.0319 35.0601 21.003 35.0601 20.9661 35.0558C19.4039 34.9403 17.8916 34.5512 16.471 33.8994C15.8557 33.6208 15.2529 33.2863 14.6816 32.9061C14.5379 32.8106 14.4517 32.6494 14.4517 32.4768V32.2104C14.4517 31.1329 14.6751 30.0912 15.116 29.1142C15.166 29.003 15.2199 28.893 15.276 28.7849C15.3549 28.6304 15.4441 28.4702 15.5393 28.3116C15.6378 28.1512 15.738 27.9998 15.8401 27.8566C15.9349 27.7234 16.0408 27.5842 16.1635 27.4311C16.2386 27.3415 16.3093 27.2607 16.3792 27.1822C16.3871 27.1719 16.3956 27.1619 16.4043 27.1523C16.4786 27.0707 16.5564 26.9892 16.6343 26.9113C16.6905 26.8549 16.7469 26.8001 16.8048 26.7439C16.812 26.7369 16.8232 26.7264 16.8342 26.7166C16.8388 26.7121 16.849 26.7021 16.8522 26.6991C16.8998 26.6552 16.9476 26.6114 16.9968 26.5705C17.0318 26.538 17.0666 26.5081 17.1015 26.4782C17.1816 26.4096 17.2603 26.3455 17.3405 26.2848C17.3584 26.2701 17.3763 26.2563 17.3942 26.2429C17.5611 26.1142 17.7455 25.9851 17.9369 25.8631C18.0103 25.816 18.0889 25.7677 18.1676 25.7225C18.1795 25.7149 18.1917 25.7077 18.2042 25.7005C18.2996 25.6448 18.3835 25.5991 18.4692 25.5552L18.488 25.5451C18.5138 25.5313 18.5392 25.5179 18.5653 25.5052C18.6105 25.4808 18.6557 25.4585 18.7011 25.438C18.7491 25.4145 18.8104 25.3863 18.8719 25.3583C18.9318 25.3306 18.9845 25.307 19.0411 25.2837C19.0907 25.2618 19.1499 25.2379 19.2098 25.2139L19.2581 25.1945C19.2661 25.1912 19.274 25.1883 19.282 25.1855L19.4006 25.1426C19.4549 25.1226 19.518 25.1004 19.5792 25.08C19.6289 25.0628 19.6839 25.0456 19.7391 25.0286L19.7733 25.0181C19.8238 25.0026 19.8735 24.9875 19.9245 24.9738C20.0233 24.9454 20.1304 24.9172 20.2375 24.893C20.2815 24.8818 20.3384 24.8681 20.3953 24.8564C20.3968 24.856 20.3985 24.8557 20.4001 24.8554C20.4027 24.8548 20.4052 24.8543 20.4078 24.8538L20.5666 24.8224C20.6191 24.8119 20.6765 24.8024 20.734 24.7931C20.8526 24.7737 20.9697 24.757 21.0848 24.7442L21.4365 24.7112C21.4645 24.7084 21.5001 24.7065 21.5379 24.7046C21.5477 24.7036 21.5573 24.7027 21.5668 24.7022L21.7974 24.6931C21.8567 24.6912 21.9138 24.691 21.971 24.691L22.1446 24.6928C22.1633 24.6928 22.1811 24.6936 22.1982 24.6948C22.1993 24.6948 22.2001 24.6948 22.2012 24.6948L22.3301 24.6996C22.3409 24.6996 22.3546 24.7 22.3615 24.7003C22.4265 24.7039 22.4896 24.7077 22.5545 24.7134L22.6711 24.724C22.6774 24.7246 22.6836 24.7252 22.6898 24.7261C22.6986 24.7266 22.7075 24.7273 22.7161 24.7282L22.8794 24.7454C22.954 24.7541 23.0222 24.7641 23.0904 24.7761L23.1038 24.778C23.1566 24.7863 23.2102 24.7947 23.2625 24.8045L23.4294 24.8356C23.44 24.8377 23.4509 24.8399 23.4613 24.8426C24.913 25.1319 26.2363 25.8409 27.2893 26.8943C28.709 28.314 29.4909 30.202 29.4909 32.2106V32.477C29.4909 32.6495 29.4046 32.8106 29.2609 32.9063C28.6898 33.2863 28.087 33.621 27.4691 33.9008C26.051 34.5515 24.5385 34.9405 22.9765 35.0561C22.9395 35.0601 22.9107 35.0601 22.8959 35.0601ZM22.8185 34.0374C22.8184 34.0374 22.818 34.0376 22.8177 34.0376C22.8178 34.0376 22.8182 34.0376 22.8185 34.0374ZM21.1228 34.0373C21.123 34.0373 21.1233 34.0373 21.1237 34.0374C21.1233 34.0374 21.123 34.0373 21.1228 34.0373ZM22.8196 34.0373C22.8194 34.0373 22.8191 34.0373 22.8189 34.0373C22.8191 34.0374 22.8194 34.0373 22.8196 34.0373ZM21.1218 34.0371C21.122 34.0371 21.1223 34.0371 21.1225 34.0373C21.1223 34.0371 21.1221 34.0371 21.1218 34.0371ZM21.0632 34.0288H22.8789C22.8806 34.0287 22.8825 34.0287 22.8842 34.0285C24.3291 33.9236 25.7277 33.5648 27.0413 32.9622C27.5283 32.7417 28.0038 32.4851 28.4595 32.1968C28.4559 30.4688 27.7818 28.8451 26.5601 27.6234C25.6455 26.7089 24.4957 26.0953 23.2348 25.8491C23.2273 25.8476 23.2197 25.846 23.2121 25.8441L23.0751 25.8187C23.0303 25.8103 22.9871 25.8036 22.9447 25.7971L22.9206 25.7934C22.8624 25.7831 22.8137 25.7761 22.7651 25.7704L22.6259 25.7558C22.6049 25.7546 22.5851 25.7525 22.5655 25.7501L22.464 25.7409C22.4158 25.7367 22.3663 25.7338 22.3156 25.7309C22.3089 25.7309 22.3021 25.7307 22.299 25.7307L22.1685 25.7257C22.1558 25.7256 22.1432 25.7249 22.1302 25.7238L21.971 25.7225C21.926 25.7228 21.8791 25.7225 21.833 25.7238L21.6438 25.7307C21.6314 25.7323 21.619 25.7333 21.6065 25.7338C21.5761 25.7352 21.5473 25.7364 21.5174 25.7391L21.1935 25.7697C21.1022 25.78 21.0027 25.7943 20.9063 25.8101C20.8542 25.8185 20.8093 25.8258 20.766 25.8344L20.6096 25.8653C20.6079 25.8656 20.606 25.866 20.6043 25.8663C20.5615 25.8753 20.5187 25.8856 20.4773 25.8959C20.3776 25.9187 20.2887 25.9423 20.2014 25.9672C20.1541 25.9801 20.1143 25.9923 20.0737 26.0047L20.0409 26.0148C19.9991 26.0277 19.9546 26.0415 19.9099 26.0569C19.8523 26.0762 19.7985 26.0953 19.7461 26.1142L19.5936 26.1711C19.5435 26.1912 19.4941 26.2108 19.4448 26.2324C19.3922 26.2542 19.3522 26.2721 19.3107 26.2914C19.2466 26.3206 19.1928 26.3452 19.139 26.3715C19.099 26.3899 19.0723 26.4033 19.0459 26.4177C19.0378 26.422 19.0296 26.4263 19.0211 26.4302C19.0045 26.4381 18.9886 26.4467 18.9725 26.4553L18.9429 26.471C18.8692 26.5088 18.8018 26.5456 18.736 26.5839L18.7214 26.5925C18.7118 26.5989 18.702 26.6049 18.692 26.6105C18.6244 26.6489 18.5569 26.6903 18.4926 26.7317C18.3252 26.8384 18.1662 26.9498 18.0181 27.0639L17.999 27.0784C17.9895 27.0866 17.9816 27.0928 17.9715 27.1006C17.9048 27.1506 17.8395 27.2039 17.7759 27.2583C17.7444 27.2851 17.7183 27.3073 17.6922 27.3321C17.6827 27.341 17.6731 27.3496 17.6631 27.3577C17.6272 27.3869 17.5927 27.419 17.558 27.451C17.547 27.4618 17.5358 27.4723 17.5248 27.4823C17.4638 27.5416 17.4138 27.5902 17.3637 27.6402C17.3044 27.6995 17.2455 27.7611 17.1886 27.8228C17.1826 27.8303 17.1762 27.8377 17.1699 27.8449C17.0996 27.9235 17.0293 28.0034 16.9605 28.0852C16.8574 28.214 16.7632 28.3377 16.6797 28.4549C16.5912 28.579 16.5042 28.7109 16.4207 28.8466C16.3388 28.9829 16.2634 29.1185 16.1929 29.2566C16.1445 29.3502 16.0987 29.4432 16.0561 29.5377C15.6775 30.3768 15.4846 31.2713 15.4829 32.1967C15.9387 32.4849 16.414 32.7413 16.8986 32.961C18.2143 33.5648 19.6129 33.9235 21.058 34.0283C21.0597 34.0285 21.0616 34.0287 21.0632 34.0288ZM16.8546 26.6987C16.8479 26.704 16.8411 26.7099 16.8344 26.7162C16.8419 26.7095 16.8491 26.7032 16.8546 26.6987ZM18.7387 26.5805C18.7351 26.583 18.7317 26.5854 18.7281 26.5879C18.7315 26.5856 18.7351 26.583 18.7387 26.5805Z" fill="#44294F"/>
<path d="M24.5727 17.9183H27.5372C26.9025 15.4034 24.664 13.5453 21.9999 13.5453C21.4054 13.5453 20.8322 13.6379 20.2932 13.8096C20.4273 16.1016 22.2916 17.9183 24.5727 17.9183Z" fill="#EB6B69"/>
<path d="M20.2934 13.8103C18.417 14.4081 16.9558 15.9646 16.4626 17.9183H16.8543C18.5528 17.9183 20.0194 16.9108 20.7135 15.4502C20.4754 14.9493 20.3278 14.3956 20.2934 13.8103Z" fill="#EB6B69"/>
<path d="M27.5373 18.4339H24.5728C22.0352 18.4339 19.9292 16.4159 19.7785 13.8397C19.7646 13.6044 19.9122 13.3897 20.1367 13.3182C20.7381 13.1266 21.3649 13.0295 22 13.0295C24.8469 13.0295 27.3295 14.988 28.0373 17.792C28.0763 17.9462 28.0417 18.1096 27.9441 18.2351C27.8465 18.3605 27.6963 18.4339 27.5373 18.4339ZM20.8537 14.1903C21.155 16.0217 22.7172 17.4027 24.5729 17.4027H26.8324C26.0535 15.4055 24.151 14.0609 22.0002 14.0609C21.6122 14.0609 21.2281 14.1044 20.8537 14.1903Z" fill="#44294F"/>
<path d="M16.8544 18.4338H16.4625C16.3035 18.4338 16.1535 18.3604 16.0557 18.2351C15.958 18.1096 15.9235 17.9462 15.9625 17.792C16.4946 15.6836 18.0941 13.9698 20.1367 13.3191C20.2882 13.271 20.4539 13.2951 20.5851 13.3855C20.7164 13.4755 20.7985 13.6213 20.8078 13.7803C20.8376 14.2859 20.9623 14.7733 21.1789 15.229C21.2454 15.3691 21.2454 15.5317 21.1789 15.6717C20.3816 17.3496 18.6841 18.4338 16.8544 18.4338ZM19.867 14.5281C18.6484 15.0906 17.6757 16.125 17.1742 17.3891C18.4241 17.2832 19.5263 16.5595 20.1425 15.4347C20.0213 15.1412 19.9294 14.8383 19.867 14.5281Z" fill="#44294F"/>
<path d="M22.0001 27.2475L23.334 25.343C22.8932 25.2543 22.4377 25.2067 21.9714 25.2067C21.5228 25.2067 21.0847 25.2514 20.6597 25.3337L22.0001 27.2475Z" fill="#8479B9"/>
<path d="M22.0001 27.2475L23.4294 29.8714L22.0001 34.2444L20.5708 29.8714L22.0001 27.2475Z" fill="#8479B9"/>
<path d="M22.0001 27.7631C21.8318 27.7631 21.6742 27.681 21.5778 27.5433L20.2373 25.6295C20.1371 25.4863 20.1162 25.3022 20.1816 25.1403C20.2471 24.9784 20.3903 24.8607 20.5618 24.8275C21.519 24.6424 22.4918 24.6477 23.4359 24.8377C23.6066 24.872 23.7482 24.9899 23.8128 25.1515C23.8775 25.3131 23.8563 25.4963 23.7565 25.6389L22.4226 27.5435C22.326 27.681 22.1683 27.7631 22.0001 27.7631ZM21.5704 25.7352L22.0001 26.3486L22.4272 25.7388C22.1417 25.7183 21.8573 25.717 21.5704 25.7352Z" fill="#44294F"/>
<path d="M22 34.76C21.7769 34.76 21.5792 34.6167 21.5098 34.4046L20.0805 30.0315C20.0363 29.8966 20.0499 29.7493 20.1178 29.6247L21.5471 27.0009C21.6373 26.835 21.8111 26.7319 21.9998 26.7319C22.1885 26.7319 22.3623 26.835 22.4525 27.0009L23.8818 29.6247C23.9499 29.7495 23.9633 29.8966 23.9191 30.0315L22.4898 34.4046C22.4207 34.6165 22.2231 34.76 22 34.76ZM21.1299 29.9226L22 32.5847L22.87 29.9226L22 28.3253L21.1299 29.9226Z" fill="#44294F"/>
<path d="M21.9712 35.0945C14.6737 35.0945 8.73682 29.1576 8.73682 21.8601C8.73682 14.5626 14.6737 8.62572 21.9712 8.62572C29.2687 8.62572 35.2056 14.5626 35.2056 21.8601C35.2056 29.1576 29.2687 35.0945 21.9712 35.0945ZM21.9712 9.65697C15.2425 9.65697 9.76807 15.1314 9.76807 21.8601C9.76807 28.5888 15.2425 34.0632 21.9712 34.0632C28.6999 34.0632 34.1743 28.5888 34.1743 21.8601C34.1743 15.1314 28.6999 9.65697 21.9712 9.65697Z" fill="#44294F"/>
<path d="M21.9712 35.0945C21.6391 35.0945 21.3201 35.0828 21.023 35.0599C21.0078 35.0596 20.9884 35.0584 20.9661 35.0558C19.4039 34.9403 17.8916 34.5512 16.471 33.8994C15.8557 33.6208 15.2529 33.2863 14.6816 32.9062C10.9597 30.4478 8.73682 26.3182 8.73682 21.8601C8.73682 14.5626 14.6737 8.62572 21.9712 8.62572C29.2687 8.62572 35.2056 14.5626 35.2056 21.8601C35.2056 26.318 32.9827 30.4477 29.2592 32.907C28.6896 33.2862 28.0868 33.6206 27.469 33.9005C26.0508 34.5512 24.5385 34.9401 22.9763 35.0558C22.954 35.0584 22.9344 35.0594 22.9193 35.0599C22.6221 35.0828 22.3033 35.0945 21.9712 35.0945ZM21.0697 34.0294C21.0757 34.0295 21.0816 34.0299 21.0869 34.0304C21.6374 34.0739 22.3046 34.0739 22.8553 34.0304C22.8613 34.0299 22.8675 34.0295 22.8735 34.0294C22.8771 34.029 22.8808 34.0287 22.8842 34.0285C24.3291 33.9237 25.7277 33.5648 27.0413 32.9622C27.6108 32.7044 28.1645 32.3969 28.6894 32.0476C32.1244 29.7787 34.1743 25.9708 34.1743 21.8603C34.1743 15.1315 28.6999 9.65714 21.9712 9.65714C15.2425 9.65714 9.76807 15.1315 9.76807 21.8603C9.76807 25.9708 11.8178 29.7789 15.2514 32.0468C15.7778 32.3972 16.3316 32.7045 16.8986 32.9613C18.2143 33.5651 19.6129 33.9238 21.058 34.0287C21.062 34.0287 21.0658 34.029 21.0697 34.0294ZM22.8185 34.0374C22.8182 34.0374 22.818 34.0374 22.8177 34.0376C22.818 34.0376 22.8182 34.0376 22.8185 34.0374ZM22.8197 34.0373C22.8194 34.0373 22.8192 34.0374 22.8189 34.0374C22.8191 34.0374 22.8194 34.0373 22.8197 34.0373ZM21.122 34.0371C21.1221 34.0371 21.1223 34.0371 21.1225 34.0371C21.1225 34.0373 21.1221 34.0371 21.122 34.0371ZM22.8206 34.0371C22.8204 34.0371 22.8199 34.0371 22.8197 34.0373C22.8199 34.0371 22.8203 34.0371 22.8206 34.0371ZM21.1208 34.0369C21.1209 34.0369 21.1213 34.0369 21.1214 34.0371C21.1213 34.0369 21.1211 34.0369 21.1208 34.0369ZM21.1197 34.0366C21.1199 34.0366 21.1202 34.0366 21.1204 34.0367C21.1202 34.0367 21.1199 34.0367 21.1197 34.0366ZM21.1187 34.0364C21.1189 34.0364 21.1192 34.0364 21.1194 34.0366C21.119 34.0366 21.1189 34.0364 21.1187 34.0364Z" fill="#44294F"/>
<path d="M32.1863 19.4923C31.5742 16.8506 29.9041 14.4918 27.6042 13.0209L28.1599 12.1521C30.6848 13.767 32.5185 16.3577 33.1909 19.2596L32.1863 19.4923Z" fill="#44294F"/>
<path d="M26.623 12.4652C26.1528 12.2315 25.6612 12.0318 25.1621 11.8719L25.4766 10.8898C26.0253 11.0655 26.5655 11.285 27.0823 11.5419L26.623 12.4652Z" fill="#44294F"/>
<path d="M21.9712 37.8445C13.1574 37.8445 5.98682 30.6738 5.98682 21.8601C5.98682 13.0463 13.1574 5.87572 21.9712 5.87572C30.7849 5.87572 37.9556 13.0463 37.9556 21.8601C37.9556 30.6738 30.7849 37.8445 21.9712 37.8445ZM21.9712 6.90697C13.726 6.90697 7.01807 13.6149 7.01807 21.8601C7.01807 30.1053 13.726 36.8132 21.9712 36.8132C30.2164 36.8132 36.9243 30.1053 36.9243 21.8601C36.9243 13.6149 30.2164 6.90697 21.9712 6.90697Z" fill="#44294F"/>
<path d="M22 11.4617C21.3355 11.4617 20.7969 10.923 20.7969 10.2585V4.75853C20.7969 4.09406 21.3355 3.5554 22 3.5554C22.6645 3.5554 23.2031 4.09406 23.2031 4.75853V10.2585C23.2031 10.923 22.6645 11.4617 22 11.4617Z" fill="#FF8354"/>
<path d="M22 40.4446C21.3355 40.4446 20.7969 39.9059 20.7969 39.2415V33.7415C20.7969 33.077 21.3355 32.5383 22 32.5383C22.6645 32.5383 23.2031 33.077 23.2031 33.7415V39.2415C23.2031 39.9061 22.6645 40.4446 22 40.4446Z" fill="#FF8354"/>
<path d="M39.2415 23.2031H33.7415C33.077 23.2031 32.5383 22.6645 32.5383 22C32.5383 21.3355 33.077 20.7969 33.7415 20.7969H39.2415C39.9059 20.7969 40.4446 21.3355 40.4446 22C40.4446 22.6645 39.9061 23.2031 39.2415 23.2031Z" fill="#FF8354"/>
<path d="M10.2585 23.2031H4.75854C4.09408 23.2031 3.55542 22.6645 3.55542 22C3.55542 21.3355 4.09408 20.7969 4.75854 20.7969H10.2585C10.923 20.7969 11.4617 21.3355 11.4617 22C11.4617 22.6645 10.923 23.2031 10.2585 23.2031Z" fill="#FF8354"/>
<path d="M22 11.9773C21.0523 11.9773 20.2812 11.2062 20.2812 10.2585V4.75853C20.2812 3.81081 21.0523 3.03978 22 3.03978C22.9477 3.03978 23.7188 3.81081 23.7188 4.75853V10.2585C23.7188 11.2062 22.9477 11.9773 22 11.9773ZM22 4.07103C21.6208 4.07103 21.3125 4.37937 21.3125 4.75853V10.2585C21.3125 10.6377 21.6208 10.946 22 10.946C22.3792 10.946 22.6875 10.6377 22.6875 10.2585V4.75853C22.6875 4.37937 22.3792 4.07103 22 4.07103Z" fill="#44294F"/>
<path d="M22 40.9602C21.0523 40.9602 20.2812 40.1892 20.2812 39.2415V33.7415C20.2812 32.7938 21.0523 32.0227 22 32.0227C22.9477 32.0227 23.7188 32.7938 23.7188 33.7415V39.2415C23.7188 40.1894 22.9477 40.9602 22 40.9602ZM22 33.054C21.6208 33.054 21.3125 33.3623 21.3125 33.7415V39.2415C21.3125 39.6206 21.6208 39.929 22 39.929C22.3792 39.929 22.6875 39.6206 22.6875 39.2415V33.7415C22.6875 33.3625 22.3792 33.054 22 33.054Z" fill="#44294F"/>
<path d="M39.2415 23.7188H33.7415C32.7937 23.7188 32.0227 22.9477 32.0227 22C32.0227 21.0523 32.7937 20.2812 33.7415 20.2812H39.2415C40.1892 20.2812 40.9602 21.0523 40.9602 22C40.9602 22.9477 40.1893 23.7188 39.2415 23.7188ZM33.7415 21.3125C33.3623 21.3125 33.054 21.6208 33.054 22C33.054 22.3792 33.3623 22.6875 33.7415 22.6875H39.2415C39.6206 22.6875 39.929 22.3792 39.929 22C39.929 21.6208 39.6206 21.3125 39.2415 21.3125H33.7415Z" fill="#44294F"/>
<path d="M10.2585 23.7188H4.75854C3.81083 23.7188 3.03979 22.9477 3.03979 22C3.03979 21.0523 3.81083 20.2812 4.75854 20.2812H10.2585C11.2063 20.2812 11.9773 21.0523 11.9773 22C11.9773 22.9477 11.2063 23.7188 10.2585 23.7188ZM4.75854 21.3125C4.37939 21.3125 4.07104 21.6208 4.07104 22C4.07104 22.3792 4.37939 22.6875 4.75854 22.6875H10.2585C10.6377 22.6875 10.946 22.3792 10.946 22C10.946 21.6208 10.6377 21.3125 10.2585 21.3125H4.75854Z" fill="#44294F"/>
<path d="M32.2192 37.8211C35.067 37.8211 37.3755 35.5126 37.3755 32.6648C37.3755 29.8171 35.067 27.5086 32.2192 27.5086C29.3715 27.5086 27.063 29.8171 27.063 32.6648C27.063 35.5126 29.3715 37.8211 32.2192 37.8211Z" fill="#FCC800"/>
<path d="M28.7817 32.6648C28.7817 30.1101 30.6402 27.9905 33.0786 27.5813C32.799 27.5344 32.5121 27.5086 32.2192 27.5086C29.3714 27.5086 27.063 29.817 27.063 32.6648C27.063 35.5125 29.3714 37.8211 32.2192 37.8211C32.5121 37.8211 32.799 37.7953 33.0786 37.7484C30.6402 37.3392 28.7817 35.2196 28.7817 32.6648Z" fill="#E8E6F4"/>
<path d="M32.2192 38.3367C29.0918 38.3367 26.5474 35.7923 26.5474 32.6648C26.5474 29.5374 29.0918 26.993 32.2192 26.993C35.3467 26.993 37.8911 29.5374 37.8911 32.6648C37.8911 35.7923 35.3467 38.3367 32.2192 38.3367ZM32.2192 28.0242C29.6604 28.0242 27.5786 30.106 27.5786 32.6648C27.5786 35.2237 29.6604 37.3055 32.2192 37.3055C34.7781 37.3055 36.8599 35.2237 36.8599 32.6648C36.8599 30.106 34.7781 28.0242 32.2192 28.0242Z" fill="#44294F"/>
<path d="M31.8515 35.0601C31.7193 35.0601 31.5875 35.0097 31.4868 34.909L29.1118 32.5341L29.8411 31.805L31.8601 33.824L37.6507 28.3046L38.3623 29.051L32.2073 34.9178C32.1076 35.0127 31.9794 35.0601 31.8515 35.0601Z" fill="#00FF69"/>
</svg>
