<svg width="45" height="45" viewBox="0 0 45 45" fill="none" xmlns="http://www.w3.org/2000/svg">
<path d="M24.1875 1.26562C15.539 1.26562 8.43747 8.29688 8.43747 16.9453V19.7578L5.20309 26.1563C4.99216 26.6484 4.99216 27.2109 5.27341 27.7031C5.55466 28.1953 6.04684 28.4766 6.60934 28.4766H8.43747V36.5625C8.43747 37.0547 8.64841 37.4766 8.99997 37.7578C9.35153 38.0391 9.84372 38.1797 10.2656 38.1094L16.9453 36.9844V42.1875C16.9453 42.6797 17.1562 43.1016 17.5078 43.3828C17.789 43.5938 18.1406 43.7344 18.5625 43.7344C18.6328 43.7344 18.7031 43.7344 18.8437 43.7344L32.9765 41.3438C33.75 41.2031 34.3125 40.5703 34.3125 39.7969V32.2734C34.3125 30.4453 35.0156 28.5469 36.3515 26.9297C38.6718 24.1172 39.9375 20.6016 39.9375 16.9453C39.9375 8.29688 32.8359 1.26562 24.1875 1.26562ZM33.8906 24.9609C32.0625 27.1406 31.0781 29.7422 31.0781 32.2734V38.4609L20.1093 40.2891V36.7734C20.1093 35.8594 19.6875 35.0859 19.0547 34.5234C18.4922 34.0313 17.8593 33.8203 17.0859 33.8203C16.9453 33.8203 16.7343 33.8203 16.5937 33.8906L11.6015 34.7344V28.3359C11.6015 26.8594 10.5468 25.6641 9.21091 25.3828L11.3203 21.1641C11.5312 20.7422 11.6718 20.3203 11.6718 19.8281V17.0156C11.6718 10.0547 17.2968 4.42969 24.2578 4.42969C31.2187 4.42969 36.8437 10.0547 36.8437 17.0156C36.7734 19.8984 35.7187 22.7109 33.8906 24.9609Z" fill="#CAD2DB"/>
<path d="M21.375 18.7031H26.3672C27.2109 18.7031 27.9141 18 27.9141 17.1562C27.9141 16.3125 27.2109 15.6094 26.3672 15.6094H24.8203V14.9063C24.8203 14.0625 24.1172 13.3594 23.2734 13.3594C22.4297 13.3594 21.7266 14.0625 21.7266 14.9063V15.6094H21.375C18.9844 15.6094 17.0859 17.5078 17.0859 19.8984C17.0859 22.2891 18.9844 24.1875 21.375 24.1875H23.6953C24.3281 24.1875 24.8203 24.6797 24.8203 25.3125C24.8203 25.9453 24.3281 26.4375 23.6953 26.4375H18.7031C17.8594 26.4375 17.1563 27.1406 17.1563 27.9844C17.1563 28.8281 17.8594 29.5313 18.7031 29.5313H21.7266V30.2344C21.7266 31.0781 22.4297 31.7813 23.2734 31.7813C24.1172 31.7813 24.8203 31.0781 24.8203 30.2344V29.3203C26.5781 28.8281 27.9141 27.1406 27.9141 25.2422C27.9141 22.9219 26.0156 20.9531 23.625 20.9531H21.3047C20.6719 20.9531 20.1797 20.4609 20.1797 19.8281C20.1797 19.1953 20.7422 18.7031 21.375 18.7031Z" fill="#1A8245"/>
</svg>
