<svg width="44" height="44" viewBox="0 0 44 44" fill="none" xmlns="http://www.w3.org/2000/svg">
<g clip-path="url(#clip0_714_6587)">
<path d="M22 2.0625C27.3255 2.0625 32.3323 4.13634 36.0979 7.90213C39.8637 11.6677 41.9375 16.6745 41.9375 22C41.9375 27.3255 39.8637 32.3323 36.0979 36.0979C32.3323 39.8637 27.3255 41.9375 22 41.9375C16.6745 41.9375 11.6677 39.8637 7.90213 36.0979C4.13634 32.3323 2.0625 27.3255 2.0625 22C2.0625 16.6745 4.13634 11.6677 7.90213 7.90213C11.6677 4.13634 16.6745 2.0625 22 2.0625ZM22 0C9.84981 0 0 9.84981 0 22C0 34.1502 9.84981 44 22 44C34.1502 44 44 34.1502 44 22C44 9.84981 34.1502 0 22 0Z" fill="#B665C2"/>
<path d="M22 1.20312C33.9491 1.20312 43.6728 10.7295 43.9916 22.6016C43.9969 22.4017 44 22.2013 44 22C44 9.84981 34.1502 0 22 0C9.84981 0 0 9.84981 0 22C0 22.2013 0.00309375 22.4017 0.00842187 22.6016C0.32725 10.7295 10.0509 1.20312 22 1.20312Z" fill="#D476E2"/>
<path d="M22 42.7969C10.0509 42.7969 0.32725 33.2705 0.00842187 21.3984C0.00309375 21.5983 0 21.7987 0 22C0 34.1502 9.84981 44 22 44C34.1502 44 44 34.1502 44 22C44 21.7987 43.9969 21.5983 43.9916 21.3984C43.6728 33.2705 33.9491 42.7969 22 42.7969Z" fill="#9654A1"/>
<path d="M22.0216 39.0529C31.4375 39.0529 39.0707 31.4198 39.0707 22.0038C39.0707 12.5878 31.4375 4.95464 22.0216 4.95464C12.6056 4.95464 4.97241 12.5878 4.97241 22.0038C4.97241 31.4198 12.6056 39.0529 22.0216 39.0529Z" fill="#A1F1FC"/>
<path d="M39.0708 22.0038C39.0708 21.8596 39.0689 21.7159 39.0653 21.5725C38.8401 12.4991 31.5262 5.18512 22.4527 4.95997C22.3094 4.95636 22.1657 4.95447 22.0215 4.95447C21.8773 4.95447 21.7336 4.95636 21.5902 4.95997C12.5168 5.18512 5.20282 12.4991 4.97767 21.5725C4.97406 21.7159 4.97217 21.8596 4.97217 22.0038C4.97217 22.148 4.97406 22.2917 4.97767 22.435C5.08595 26.8008 6.83615 30.7587 9.63307 33.7162C9.63411 33.7174 9.63514 33.7184 9.63634 33.7196C10.0263 34.1318 10.4366 34.5249 10.8658 34.8965C10.8689 34.8992 10.8718 34.9021 10.8749 34.9049C10.875 34.9047 10.875 34.9047 10.8752 34.9045C13.7629 37.4017 17.4974 38.946 21.5902 39.0476C21.7336 39.0512 21.8773 39.0531 22.0215 39.0531C22.1657 39.0531 22.3094 39.0512 22.4527 39.0476C26.5456 38.946 30.2801 37.4015 33.1677 34.9045C33.1679 34.9045 33.1679 34.9047 33.1681 34.9049C33.1712 34.9021 33.1743 34.8992 33.1774 34.8963C33.6064 34.5247 34.0165 34.132 34.4064 33.7198C34.4077 33.7186 34.4089 33.7176 34.4101 33.7162C34.4101 33.7162 34.4101 33.7162 34.4099 33.716C37.2068 30.7586 38.9568 26.8006 39.0653 22.435C39.0691 22.2917 39.0708 22.148 39.0708 22.0038ZM31.9127 10.2914C30.9402 11.1153 29.8806 11.8073 28.7559 12.3582C28.0637 10.2561 27.1521 8.49355 26.0894 7.21669C28.2202 7.79934 30.2012 8.84125 31.9127 10.2914ZM22.8814 6.83822C24.0707 7.28595 25.261 8.635 26.2457 10.6908C26.5916 11.413 26.8991 12.1962 27.1681 13.0274C25.8014 13.5132 24.361 13.8033 22.8814 13.8844V6.83822ZM22.8814 15.6064C24.5391 15.5241 26.1344 15.2049 27.6344 14.6821C28.1186 16.6636 28.4013 18.855 28.4577 21.1442H22.8812V15.6064H22.8814ZM28.4577 22.8635C28.4013 25.1527 28.1187 27.3443 27.6347 29.3258C26.1346 28.8028 24.5391 28.4836 22.8812 28.4013V22.8635H28.4577ZM15.5856 22.8635H21.1621V28.4013C19.5042 28.4836 17.9087 28.8028 16.4086 29.3258C15.9246 27.3441 15.642 25.1525 15.5856 22.8635ZM15.5856 21.1442C15.642 18.855 15.9249 16.6638 16.4089 14.6821C17.9089 15.2049 19.5042 15.5241 21.1619 15.6064V21.1442H15.5856ZM21.1621 6.83822V13.8846C19.6824 13.8033 18.2421 13.5133 16.8754 13.0276C17.1444 12.1964 17.4518 11.4132 17.7978 10.691C18.7823 8.635 19.9726 7.28595 21.1621 6.83822ZM17.9541 7.21686C16.8914 8.49372 15.9797 10.2563 15.2876 12.3583C14.1628 11.8075 13.1032 11.1155 12.1308 10.2915C13.8421 8.84125 15.8232 7.79934 17.9541 7.21686ZM10.8757 11.4795C12.0546 12.4991 13.3748 13.3597 14.8027 14.0283C14.2586 16.1702 13.9265 18.5824 13.8655 21.1442H6.71618C6.91521 17.5182 8.37134 14.1278 10.8757 11.4795ZM13.8655 22.8635C13.9265 25.4253 14.2589 27.8374 14.8029 29.9795C13.3758 30.6475 12.0565 31.5074 10.8781 32.5261C8.37409 29.8777 6.91521 26.4895 6.71618 22.8635H13.8655ZM12.1335 33.7174C13.1058 32.8938 14.1644 32.2022 15.2888 31.6515C15.9808 33.7523 16.8917 35.5144 17.9541 36.7907C15.8242 36.2086 13.8445 35.1665 12.1335 33.7174ZM17.7977 33.3168C17.4517 32.5945 17.1442 31.8117 16.8754 30.9805C18.2421 30.4947 19.6826 30.2055 21.1621 30.1242V37.1693C19.9726 36.7216 18.7823 35.3726 17.7977 33.3168ZM22.8814 37.1693V30.1242C24.3609 30.2055 25.8014 30.4947 27.1681 30.9805C26.8993 31.8117 26.5916 32.5945 26.2458 33.3168C25.261 35.3726 24.0707 36.7216 22.8814 37.1693ZM28.7545 31.6515C29.8789 32.2022 30.9375 32.8938 31.9098 33.7174C30.1988 35.1665 28.2191 36.2086 26.0894 36.7907C27.1516 35.5145 28.0625 33.7523 28.7545 31.6515ZM33.1652 32.5261C31.9868 31.5074 30.6675 30.6475 29.2404 29.9795C29.7844 27.8376 30.1168 25.4253 30.1778 22.8635H37.3273C37.1281 26.4894 35.6692 29.8777 33.1652 32.5261ZM30.1778 21.1442C30.117 18.5824 29.7847 16.1702 29.2406 14.0283C30.6685 13.3597 31.9887 12.4991 33.1676 11.4795C35.6718 14.128 37.1281 17.5182 37.3271 21.1442H30.1778Z" fill="#5FD4E3"/>
<path d="M6.87351 9.14581C8.14796 9.14581 9.18111 8.11267 9.18111 6.83822C9.18111 5.56377 8.14796 4.53062 6.87351 4.53062C5.59906 4.53062 4.56592 5.56377 4.56592 6.83822C4.56592 8.11267 5.59906 9.14581 6.87351 9.14581Z" fill="#D476E2"/>
<path d="M6.87334 5.73392C7.93931 5.73392 8.83392 6.45768 9.09895 7.43995C9.15086 7.24796 9.18093 7.04687 9.18093 6.83839C9.18093 5.56393 8.14779 4.53079 6.87334 4.53079C5.59889 4.53079 4.56592 5.56393 4.56592 6.83839C4.56592 7.04687 4.596 7.24796 4.6479 7.43995C4.91293 6.45768 5.80754 5.73392 6.87334 5.73392Z" fill="#EA82FA"/>
<path d="M28.4577 16.1922C29.7322 16.1922 30.7653 15.159 30.7653 13.8846C30.7653 12.6101 29.7322 11.577 28.4577 11.577C27.1833 11.577 26.1501 12.6101 26.1501 13.8846C26.1501 15.159 27.1833 16.1922 28.4577 16.1922Z" fill="#D476E2"/>
<path d="M28.4576 12.7803C29.5235 12.7803 30.4181 13.504 30.6832 14.4863C30.7351 14.2943 30.7652 14.0932 30.7652 13.8847C30.7652 12.6103 29.732 11.5771 28.4576 11.5771C27.1831 11.5771 26.1501 12.6103 26.1501 13.8847C26.1501 14.0932 26.1802 14.2943 26.2321 14.4863C26.497 13.504 27.3916 12.7803 28.4576 12.7803Z" fill="#EA82FA"/>
<path d="M14.8027 24.3076C16.0772 24.3076 17.1103 23.2745 17.1103 22C17.1103 20.7256 16.0772 19.6924 14.8027 19.6924C13.5283 19.6924 12.4951 20.7256 12.4951 22C12.4951 23.2745 13.5283 24.3076 14.8027 24.3076Z" fill="#D476E2"/>
<path d="M14.8028 20.8955C15.8688 20.8955 16.7634 21.6193 17.0284 22.6016C17.0803 22.4096 17.1104 22.2085 17.1104 22C17.1104 20.7256 16.0772 19.6924 14.8028 19.6924C13.5283 19.6924 12.4954 20.7256 12.4954 22C12.4954 22.2085 12.5254 22.4096 12.5773 22.6016C12.8422 21.6193 13.7368 20.8955 14.8028 20.8955Z" fill="#EA82FA"/>
<path d="M36.7634 39.0531C38.0379 39.0531 39.071 38.0199 39.071 36.7455C39.071 35.471 38.0379 34.4379 36.7634 34.4379C35.489 34.4379 34.4558 35.471 34.4558 36.7455C34.4558 38.0199 35.489 39.0531 36.7634 39.0531Z" fill="#D476E2"/>
<path d="M36.7635 35.6412C37.8294 35.6412 38.7241 36.365 38.9891 37.3472C39.041 37.1553 39.0711 36.9542 39.0711 36.7457C39.0711 35.4712 38.0379 34.4381 36.7635 34.4381C35.489 34.4381 34.4561 35.4712 34.4561 36.7457C34.4561 36.9542 34.4861 37.1553 34.538 37.3472C34.8029 36.365 35.6975 35.6412 36.7635 35.6412Z" fill="#EA82FA"/>
</g>
<defs>
<clipPath id="clip0_714_6587">
<rect width="44" height="44" fill="white"/>
</clipPath>
</defs>
</svg>
