<svg width="45" height="51" viewBox="0 0 45 51" fill="none" xmlns="http://www.w3.org/2000/svg">
<ellipse cx="31" cy="25.5" rx="10" ry="17.5" fill="#03A9F4"/>
<path d="M22.8312 6.21867L36.6093 9.64327L23.0452 20.4143L22.8312 6.21867Z" fill="#03A9F4"/>
<path d="M22.8312 32.2187L36.6093 35.6433L23.0452 46.4143L22.8312 32.2187Z" fill="#03A9F4"/>
<path d="M43.8047 25.5C43.8047 21.9141 42.8906 18.3281 41.0625 15.0234C38.1797 9.96094 33.3281 6.30469 27.6328 4.82812C25.8047 4.40625 24.1172 4.19531 22.4297 4.19531C21.5859 4.19531 20.8828 4.89844 20.8125 5.74219V25.9219V45.1172C20.8125 45.9609 21.5156 46.6641 22.4297 46.6641C23.2734 46.6641 24.1875 46.5938 25.0312 46.5234C31.3594 45.75 36.9844 42.2344 40.4297 36.8203C42.5391 33.5859 43.6641 29.7891 43.8047 25.8516V25.5ZM36.0703 24.375C35.8594 22.1953 35.3672 20.0859 34.5938 18.1172H39.0937C39.9375 20.1562 40.5 22.2656 40.6406 24.375H36.0703ZM24.0469 42.5156V37.8047H29.1797C27.7031 39.7734 25.9453 41.3203 24.0469 42.5156ZM29.25 14.9531H23.9766V8.69531C25.7344 10.0313 27.4922 12.1406 29.25 14.9531ZM23.9766 34.6406V27.5391H32.9766C32.8359 30 32.2031 32.4609 31.0781 34.6406H23.9766ZM23.9766 24.375V18.1172H31.0781C32.0625 20.0859 32.625 22.1953 32.8359 24.375H23.9766ZM37.2656 14.9531H32.9766C31.3594 12.2109 29.7422 10.0312 28.1953 8.27344C31.8516 9.53906 35.0156 11.8594 37.2656 14.9531ZM29.5312 42.2344C30.7969 40.9688 31.9922 39.4922 32.9766 37.875H35.7891C33.9609 39.7031 31.8516 41.25 29.5312 42.2344ZM38.1094 34.6406H34.5938C35.5078 32.3906 36.0703 30 36.2109 27.5391H40.5703C40.2188 30.0703 39.375 32.5312 38.1094 34.6406Z" fill="#CAD2DB"/>
<path d="M9.77344 26.5547C12.7266 26.5547 15.1875 24.1641 15.1875 21.1406C15.1875 18.1172 12.7969 15.7266 9.77344 15.7266C6.75 15.7266 4.35938 18.1172 4.35938 21.1406C4.35938 24.1641 6.75 26.5547 9.77344 26.5547ZM9.77344 18.9609C11.0391 18.9609 12.0234 19.9453 12.0234 21.2109C12.0234 22.4766 10.9688 23.3906 9.77344 23.3906C8.57812 23.3906 7.52344 22.4062 7.52344 21.1406C7.52344 19.875 8.50781 18.9609 9.77344 18.9609Z" fill="#CAD2DB"/>
<path d="M9.77334 29.0156C6.67959 29.0156 3.72646 30.2813 1.6874 32.5313C1.1249 33.1641 1.1249 34.1484 1.75771 34.7813C2.39052 35.3438 3.3749 35.3438 4.00771 34.7109C5.48427 33.0938 7.59365 32.1797 9.77334 32.1797C11.953 32.1797 14.0624 33.0938 15.539 34.7109C15.8202 35.0625 16.2421 35.2031 16.7343 35.2031C17.0858 35.2031 17.5077 35.0625 17.789 34.7813C18.4218 34.2188 18.4921 33.1641 17.8593 32.5313C15.8202 30.3516 12.8671 29.0156 9.77334 29.0156Z" fill="#CAD2DB"/>
</svg>
