<svg width="44" height="44" viewBox="0 0 44 44" fill="none" xmlns="http://www.w3.org/2000/svg">
<g clip-path="url(#clip0_714_6554)">
<path d="M38.8187 0H12.33C9.46848 0 7.14868 2.3198 7.14868 5.18134V20.3796C7.14868 23.2411 9.46848 25.5609 12.33 25.5609H27.8565V31.0234C27.8565 31.8854 28.8986 32.317 29.5081 31.7075L35.6548 25.5607H38.8187C41.6803 25.5607 44.0001 23.2409 44.0001 20.3794V5.18134C44.0001 2.3198 41.6803 0 38.8187 0Z" fill="#FF0F0F"/>
<path d="M38.8187 0H12.33C9.46848 0 7.14868 2.3198 7.14868 5.18134V6.38447C7.14868 3.52292 9.46848 1.20312 12.33 1.20312H38.8187C41.6803 1.20312 44.0001 3.52292 44.0001 6.38447V5.18134C44.0001 2.3198 41.6803 0 38.8187 0Z" fill="#F45555"/>
<path d="M9.97974 36.1436L21.446 40.3903V22.554L9.97974 26.8008V36.1436Z" fill="#6770E6"/>
<path d="M7.75031 44C8.98163 44 9.97988 43.0017 9.97988 41.7704V36.1436H5.52075V41.7704C5.52075 43.0017 6.51883 44 7.75031 44Z" fill="#B665C2"/>
<path d="M7.75031 42.7969C6.519 42.7969 5.52075 41.7986 5.52075 40.5673V41.7704C5.52075 43.0018 6.519 44 7.75031 44C8.98163 44 9.97988 43.0018 9.97988 41.7704V40.5673C9.97971 41.7986 8.98163 42.7969 7.75031 42.7969Z" fill="#A059AB"/>
<path d="M4.67139 36.1436H9.97975V26.8008H4.67139C2.09138 26.8008 0 28.8922 0 31.4722C0 34.052 2.09138 36.1436 4.67139 36.1436Z" fill="#D476E2"/>
<path d="M9.97974 26.8008V28.1758L21.446 23.929V22.554L9.97974 26.8008Z" fill="#8F95E6"/>
<path d="M4.67139 26.8008C2.09138 26.8008 0 28.8922 0 31.4722C0 31.7058 0.0177031 31.9352 0.0507031 32.1597C0.383281 29.9057 2.32495 28.1758 4.67139 28.1758H9.97975V26.8008H4.67139Z" fill="#EA82FA"/>
<path d="M22.2592 34.0563H21.446V28.8881H22.2592C23.6864 28.8881 24.8433 30.045 24.8433 31.4722C24.8433 32.8993 23.6864 34.0563 22.2592 34.0563Z" fill="#D476E2"/>
<path d="M16.9272 9.3433C16.9272 8.82406 17.0273 8.33439 17.2277 7.87428C17.4279 7.41452 17.7024 7.00992 18.0513 6.66119C18.3999 6.3128 18.8117 6.03814 19.2866 5.83756C19.7613 5.63733 20.2805 5.53712 20.8446 5.53712C21.4084 5.53712 21.9314 5.63716 22.4137 5.83756C22.8958 6.03797 23.3114 6.3128 23.6601 6.66119C24.0087 7.01009 24.2833 7.41452 24.4837 7.87428C24.684 8.33439 24.7843 8.82406 24.7843 9.3433C24.7843 9.86287 24.6841 10.356 24.4837 10.8235C24.2835 11.2908 24.0087 11.6954 23.6601 12.0364C23.3112 12.3779 22.8958 12.6485 22.4137 12.8489C21.9314 13.0491 21.4084 13.1495 20.8446 13.1495C20.2805 13.1495 19.7613 13.0493 19.2866 12.8489C18.8115 12.6486 18.3997 12.3779 18.0513 12.0364C17.7024 11.6952 17.4281 11.2908 17.2277 10.8235C17.0273 10.356 16.9272 9.86287 16.9272 9.3433ZM19.3087 9.3433C19.3087 9.83297 19.4569 10.2264 19.7541 10.5229C20.0507 10.8199 20.4141 10.968 20.8446 10.968C21.2748 10.968 21.6383 10.8199 21.9352 10.5229C22.232 10.2262 22.3803 9.83297 22.3803 9.3433C22.3803 8.85362 22.232 8.46055 21.9352 8.16372C21.6383 7.86689 21.2748 7.71839 20.8446 7.71839C20.4139 7.71839 20.0507 7.86689 19.7541 8.16372C19.4569 8.46072 19.3087 8.85362 19.3087 9.3433ZM20.3426 19.415L29.0467 6.41764C29.3722 5.93158 30.0303 5.80164 30.5162 6.12752C31.0014 6.45305 31.1312 7.1103 30.806 7.59584L22.1019 20.5932C21.7764 21.0793 21.1182 21.2092 20.6324 20.8833C20.1472 20.5578 20.0174 19.9005 20.3426 19.415ZM26.3644 17.6675C26.3644 17.1483 26.4644 16.6586 26.665 16.1985C26.8652 15.7388 27.1397 15.3343 27.4884 14.9856C27.837 14.637 28.2488 14.3624 28.7237 14.162C29.1984 13.9618 29.7177 13.8614 30.2818 13.8614C30.8455 13.8614 31.3685 13.9616 31.851 14.162C32.3329 14.3622 32.7485 14.637 33.0972 14.9856C33.4458 15.3345 33.7205 15.7388 33.9209 16.1985C34.1211 16.6586 34.2215 17.1483 34.2215 17.6675C34.2215 18.1871 34.1213 18.6804 33.9209 19.1477C33.7206 19.6152 33.4458 20.0197 33.0972 20.3607C32.7483 20.7022 32.3329 20.9729 31.851 21.1731C31.3685 21.3733 30.8455 21.4735 30.2818 21.4735C29.7177 21.4735 29.1984 21.3735 28.7237 21.1731C28.2487 20.9729 27.8368 20.7022 27.4884 20.3607C27.1397 20.0195 26.8654 19.6151 26.665 19.1477C26.4644 18.6804 26.3644 18.1871 26.3644 17.6675ZM28.7459 17.6675C28.7459 18.1572 28.894 18.5506 29.191 18.8471C29.4877 19.1441 29.851 19.2925 30.2816 19.2925C30.7118 19.2925 31.0753 19.1443 31.3723 18.8471C31.669 18.5505 31.8175 18.1572 31.8175 17.6675C31.8175 17.1779 31.669 16.785 31.3723 16.488C31.0753 16.1913 30.7118 16.0428 30.2816 16.0428C29.851 16.0428 29.4877 16.1913 29.191 16.488C28.894 16.785 28.7459 17.1779 28.7459 17.6675Z" fill="#FFEFE4"/>
</g>
<defs>
<clipPath id="clip0_714_6554">
<rect width="44" height="44" fill="white"/>
</clipPath>
</defs>
</svg>
