<svg width="46" height="45" viewBox="0 0 46 45" fill="none" xmlns="http://www.w3.org/2000/svg">
<rect x="7" y="29.5453" width="4.94036" height="13.5135" transform="rotate(-18.2271 7 29.5453)" fill="#FCD34D"/>
<rect x="24.2485" y="3.7764" width="17.7528" height="28.8721" rx="4" transform="rotate(0.721686 24.2485 3.7764)" fill="#FCD34D"/>
<rect x="4" y="9" width="8" height="18" fill="#1A8245"/>
<rect x="13" y="8" width="12" height="21" fill="#1A8245"/>
<path d="M42.5501 2.8125C41.472 1.75781 40.0345 1.19531 38.5251 1.19531H38.4532C38.022 1.19531 37.5188 1.26562 37.0876 1.33594L12.6501 7.24219H7.83447C4.45635 7.24219 1.7251 9.91406 1.7251 13.2187V23.5547C1.7251 26.2266 3.52197 28.4766 5.96572 29.25L8.98447 41.1328C9.34385 42.6797 10.7813 43.8047 12.4345 43.8047H13.7282H13.8001C14.0876 43.8047 14.3751 43.8047 14.6626 43.7344C16.6032 43.3125 17.7532 41.4141 17.322 39.5156L15.0938 30.1641L37.1595 35.5078C37.5907 35.6484 38.0938 35.6484 38.5251 35.6484C39.6032 35.6484 40.6095 35.3672 41.5438 34.8047C42.8376 34.0312 43.772 32.7656 44.1313 31.2891C44.2032 30.8672 44.2751 30.5156 44.2751 30.0234V6.82031C44.2751 5.27344 43.6282 3.86719 42.5501 2.8125ZM14.447 10.125L23.0001 8.08594V28.8281L14.447 26.7187V10.125ZM4.95947 13.2187C4.95947 11.6719 6.25322 10.4062 7.83447 10.4062H11.2845V26.2969H7.83447C6.25322 26.2969 4.95947 25.0312 4.95947 23.4844V13.2187ZM13.872 40.5703C13.872 40.5703 13.8001 40.5703 13.7282 40.5703H12.3626C12.2188 40.5703 12.0751 40.4297 12.0032 40.2891L9.34385 29.5312H11.572L14.1595 40.2187C14.1595 40.3594 14.0876 40.5703 13.872 40.5703ZM40.9688 30.5156C40.8251 31.1484 40.3938 31.7109 39.8188 32.0625C39.2438 32.4141 38.5251 32.4844 37.8782 32.3437L26.2345 29.5312V7.24219L37.8782 4.42969C38.0938 4.35938 38.2376 4.35937 38.4532 4.35937C39.1001 4.35937 39.747 4.64062 40.1782 5.0625C40.6813 5.48437 40.897 6.11719 40.9688 6.75V29.8828C41.0407 30.1641 40.9688 30.3047 40.9688 30.5156Z" fill="#CAD2DB"/>
</svg>
