<svg id="Layer_1" data-name="Layer 1" xmlns="http://www.w3.org/2000/svg" xmlns:xlink="http://www.w3.org/1999/xlink" viewBox="0 0 391.3 370.9"><defs><style>.cls-1{fill:none;}.cls-2{clip-path:url(#clip-path);}.cls-3{clip-path:url(#clip-path-2);}.cls-4{fill:#1fbfb8;}.cls-5{clip-path:url(#clip-path-4);}.cls-6{fill:#05716c;}.cls-7{clip-path:url(#clip-path-7);}.cls-8{fill:#1f4959;}.cls-9{clip-path:url(#clip-path-8);}.cls-10{fill:#1978a5;}</style><clipPath id="clip-path" transform="translate(-50 -62.6)"><rect class="cls-1" x="249.33" y="137.33" width="192" height="229.33"/></clipPath><clipPath id="clip-path-2" transform="translate(-50 -62.6)"><rect class="cls-1" x="208.26" y="170.03" width="263" height="186" transform="translate(-58.05 100.65) rotate(-15.54)"/></clipPath><clipPath id="clip-path-4" transform="translate(-50 -62.6)"><rect class="cls-1" x="196" y="217.33" width="121.33" height="149.33"/></clipPath><clipPath id="clip-path-7" transform="translate(-50 -62.6)"><rect class="cls-1" x="49.73" y="62.84" width="236.93" height="186"/></clipPath><clipPath id="clip-path-8" transform="translate(-50 -62.6)"><rect class="cls-1" x="230.67" y="62.84" width="82.07" height="154.49"/></clipPath></defs><g class="cls-2"><g class="cls-3"><g class="cls-3"><path class="cls-4" d="M347.06,164.53,249.61,328.47,317,365.79,441.3,138.33Z" transform="translate(-50 -62.6)"/></g></g></g><g class="cls-5"><g class="cls-3"><g class="cls-3"><path class="cls-6" d="M316.14,366.39l-19.69-70.58-19.61-70.53-2.08-7.51-78,21.7,19.64,70.65Z" transform="translate(-50 -62.6)"/></g></g></g><g class="cls-7"><path class="cls-8" d="M147.81,248.79,285.62,117,230.74,63,50,248.79Z" transform="translate(-50 -62.6)"/></g><g class="cls-9"><path class="cls-10" d="M231.68,62.6l0,73.26v81h81V143.54Z" transform="translate(-50 -62.6)"/></g><path class="cls-4" d="M154.42,400.81a19.09,19.09,0,0,1,0-25,15.36,15.36,0,0,1,11.86-5.12,15,15,0,0,1,10.89,4.14v-3.16h11.46v33.25H177.3v-3.75h-.13a14.07,14.07,0,0,1-10.89,4.73A15.4,15.4,0,0,1,154.42,400.81Zm9.73-18.12a7.58,7.58,0,0,0-2.23,5.64,7.67,7.67,0,0,0,2.15,5.61,7.57,7.57,0,0,0,5.65,2.16,7.44,7.44,0,0,0,5.54-2.2,7.64,7.64,0,0,0,2.16-5.57,7.56,7.56,0,0,0-2.25-5.64,7.46,7.46,0,0,0-5.45-2.21A7.66,7.66,0,0,0,164.15,382.69Z" transform="translate(-50 -62.6)"/><path class="cls-4" d="M198.75,371.67l8.1,18.08,8.1-18.08h13.61l-17.81,33.25H203l-17.81-33.25Z" transform="translate(-50 -62.6)"/><path class="cls-4" d="M227.34,400.81a19.06,19.06,0,0,1,0-25,15.34,15.34,0,0,1,11.85-5.12,15.05,15.05,0,0,1,10.9,4.14v-3.16h11.46v33.25H250.21v-3.75h-.12a14.08,14.08,0,0,1-10.9,4.73A15.38,15.38,0,0,1,227.34,400.81Zm9.73-18.12a7.75,7.75,0,0,0,5.56,13.41,7.42,7.42,0,0,0,5.54-2.2,8.21,8.21,0,0,0-.08-11.21,7.48,7.48,0,0,0-5.46-2.21A7.63,7.63,0,0,0,237.07,382.69Z" transform="translate(-50 -62.6)"/><path class="cls-4" d="M263.24,404.92V349.19H274.7v55.73Z" transform="translate(-50 -62.6)"/><path class="cls-4" d="M279.55,401A16.16,16.16,0,0,1,274,388.33a16,16,0,0,1,5.75-12.68,21.09,21.09,0,0,1,14.27-5,20.64,20.64,0,0,1,14.08,5,16.88,16.88,0,0,1,.15,25.25q-5.61,5-14.23,5Q285.09,405.9,279.55,401Zm8.85-18.29a7.58,7.58,0,0,0-2.23,5.64,7.67,7.67,0,0,0,2.15,5.61A7.56,7.56,0,0,0,294,396.1a7.46,7.46,0,0,0,5.55-2.2,7.64,7.64,0,0,0,2.16-5.57,7.56,7.56,0,0,0-2.25-5.64,7.47,7.47,0,0,0-5.46-2.21A7.65,7.65,0,0,0,288.4,382.69Z" transform="translate(-50 -62.6)"/><path class="cls-4" d="M313.15,404.92V371.67h11.46v3.5h.15q4.44-4.49,9.52-4.48a18.43,18.43,0,0,1,4.87.66,18.09,18.09,0,0,1,4.67,2,10.19,10.19,0,0,1,3.64,3.86,11.7,11.7,0,0,1,1.4,5.79v21.92H337.38V386.13a6.82,6.82,0,0,0-1.65-4.55,5.37,5.37,0,0,0-4.31-1.93,6.69,6.69,0,0,0-4.71,2,6,6,0,0,0-2.1,4.46v18.79Z" transform="translate(-50 -62.6)"/><path class="cls-4" d="M207.26,423.69q3.17,0,3.17,3.94v4.81a.85.85,0,0,1-.25.63.83.83,0,0,1-.61.25.82.82,0,0,1-.85-.88v-4.81c0-1.57-.66-2.36-2-2.36A2.43,2.43,0,0,0,205,426a2.21,2.21,0,0,0-.71,1.67v4.81a.85.85,0,0,1-.25.63.82.82,0,0,1-.62.25.84.84,0,0,1-.61-.23.94.94,0,0,1-.23-.65V420.82a.89.89,0,0,1,.23-.61.8.8,0,0,1,.61-.27.77.77,0,0,1,.62.27.82.82,0,0,1,.25.61v4.56a3.94,3.94,0,0,1,1.27-1.19A3.28,3.28,0,0,1,207.26,423.69Z" transform="translate(-50 -62.6)"/><path class="cls-4" d="M233.73,428.59a5,5,0,0,1-.65,2.52,4.53,4.53,0,0,1-1.73,1.77,4.66,4.66,0,0,1-2.39.62,4.72,4.72,0,0,1-2.42-.62,4.82,4.82,0,0,1-1.73-1.77,5.47,5.47,0,0,1,0-5.06,4.63,4.63,0,0,1,1.73-1.78,4.73,4.73,0,0,1,2.42-.64,4.67,4.67,0,0,1,2.39.64,4.36,4.36,0,0,1,1.73,1.78A5,5,0,0,1,233.73,428.59Zm-1.73,0a3.59,3.59,0,0,0-.42-1.75,2.92,2.92,0,0,0-2.62-1.61,3,3,0,0,0-1.56.42,3.11,3.11,0,0,0-1.11,1.19,3.82,3.82,0,0,0-.39,1.75,3.76,3.76,0,0,0,.39,1.73,3,3,0,0,0,1.11,1.16,3,3,0,0,0,1.56.42,2.88,2.88,0,0,0,1.52-.42,2.8,2.8,0,0,0,1.1-1.16A3.54,3.54,0,0,0,232,428.59Z" transform="translate(-50 -62.6)"/><path class="cls-4" d="M254.52,423.86a.76.76,0,0,1,.6.25.8.8,0,0,1,.25.6v4.81a4,4,0,0,1-1,2.92,3.89,3.89,0,0,1-2.92,1,3.85,3.85,0,0,1-2.91-1,4,4,0,0,1-1-2.92v-4.81a.82.82,0,0,1,.23-.6.79.79,0,0,1,.6-.25.82.82,0,0,1,.63.25.84.84,0,0,1,.25.6v4.81c0,1.59.73,2.38,2.22,2.38a2.23,2.23,0,0,0,1.67-.6,2.46,2.46,0,0,0,.58-1.78v-4.81a.86.86,0,0,1,.23-.6A.85.85,0,0,1,254.52,423.86Z" transform="translate(-50 -62.6)"/><path class="cls-4" d="M269.17,431.84a.94.94,0,0,1-.17-.5.81.81,0,0,1,.8-.73.9.9,0,0,1,.6.27,4.05,4.05,0,0,0,1.15.92,3.4,3.4,0,0,0,1.5.31,2.57,2.57,0,0,0,1.2-.31,1.07,1.07,0,0,0,.53-1,1,1,0,0,0-.55-.92,5.73,5.73,0,0,0-1.54-.6,11.4,11.4,0,0,1-1.69-.57,3.2,3.2,0,0,1-1.12-.87,2.33,2.33,0,0,1-.46-1.5,2.28,2.28,0,0,1,.46-1.42,2.9,2.9,0,0,1,1.23-1,4,4,0,0,1,1.67-.35,4.73,4.73,0,0,1,1.72.33,3.09,3.09,0,0,1,1.4,1,.83.83,0,0,1,.21.52.79.79,0,0,1-.29.57.7.7,0,0,1-.44.14.66.66,0,0,1-.52-.21,2.68,2.68,0,0,0-.94-.66,3.17,3.17,0,0,0-1.23-.23,2.14,2.14,0,0,0-1.14.29,1,1,0,0,0-.48.94,1,1,0,0,0,.54.93,7.89,7.89,0,0,0,1.62.59,9.42,9.42,0,0,1,1.59.54,2.93,2.93,0,0,1,1.08.87,2.37,2.37,0,0,1,.44,1.48,2.28,2.28,0,0,1-.5,1.48,3.07,3.07,0,0,1-1.27,1,4.25,4.25,0,0,1-1.67.33,5.46,5.46,0,0,1-2.1-.39A3.86,3.86,0,0,1,269.17,431.84Z" transform="translate(-50 -62.6)"/><path class="cls-4" d="M298.38,428.23a.68.68,0,0,1-.27.54.81.81,0,0,1-.58.23h-6.36a3.17,3.17,0,0,0,1,2.11,3.07,3.07,0,0,0,2.13.79,3.41,3.41,0,0,0,1.42-.25,3.64,3.64,0,0,0,.95-.65,1,1,0,0,1,.52-.16.72.72,0,0,1,.53.23.7.7,0,0,1,.2.5.86.86,0,0,1-.37.68,4.34,4.34,0,0,1-1.4.9,4.63,4.63,0,0,1-1.75.35,5.29,5.29,0,0,1-2.58-.6,4.31,4.31,0,0,1-1.71-1.73,5.14,5.14,0,0,1-.6-2.5,5.6,5.6,0,0,1,.62-2.67,4.57,4.57,0,0,1,1.65-1.75,4.15,4.15,0,0,1,2.19-.62,4.19,4.19,0,0,1,2.16.6,4.68,4.68,0,0,1,1.63,1.65A4.56,4.56,0,0,1,298.38,428.23Zm-4.41-3a2.85,2.85,0,0,0-1.78.57,2.74,2.74,0,0,0-.95,1.75h5.33v-.15a2.17,2.17,0,0,0-.88-1.54A2.59,2.59,0,0,0,294,425.23Z" transform="translate(-50 -62.6)"/></svg>