<svg id="Layer_1" data-name="Layer 1" xmlns="http://www.w3.org/2000/svg" xmlns:xlink="http://www.w3.org/1999/xlink" viewBox="0 0 391.3 303.78"><defs><style>.cls-1{fill:none;}.cls-2{clip-path:url(#clip-path);}.cls-3{clip-path:url(#clip-path-2);}.cls-4{fill:#1fbfb8;}.cls-5{clip-path:url(#clip-path-4);}.cls-6{fill:#05716c;}.cls-7{clip-path:url(#clip-path-7);}.cls-8{fill:#1f4959;}.cls-9{clip-path:url(#clip-path-8);}.cls-10{fill:#1978a5;}</style><clipPath id="clip-path" transform="translate(-50 -103.2)"><rect class="cls-1" x="249.33" y="178.67" width="192" height="228"/></clipPath><clipPath id="clip-path-2" transform="translate(-50 -103.2)"><rect class="cls-1" x="208.26" y="210.63" width="263" height="186" transform="translate(-68.93 102.13) rotate(-15.54)"/></clipPath><clipPath id="clip-path-4" transform="translate(-50 -103.2)"><rect class="cls-1" x="196" y="257.33" width="121.33" height="150.67"/></clipPath><clipPath id="clip-path-7" transform="translate(-50 -103.2)"><rect class="cls-1" x="49.73" y="103.44" width="236.93" height="186"/></clipPath><clipPath id="clip-path-8" transform="translate(-50 -103.2)"><rect class="cls-1" x="230.67" y="103.44" width="82.07" height="155.23"/></clipPath></defs><g class="cls-2"><g class="cls-3"><g class="cls-3"><path class="cls-4" d="M347.06,205.13,249.61,369.07,317,406.39,441.3,178.93Z" transform="translate(-50 -103.2)"/></g></g></g><g class="cls-5"><g class="cls-3"><g class="cls-3"><path class="cls-6" d="M316.14,407l-19.69-70.57-19.61-70.53-2.08-7.51-78,21.7,19.64,70.65Z" transform="translate(-50 -103.2)"/></g></g></g><g class="cls-7"><path class="cls-8" d="M147.81,289.39,285.62,157.55l-54.88-54L50,289.39Z" transform="translate(-50 -103.2)"/></g><g class="cls-9"><path class="cls-10" d="M231.68,103.2l0,73.26v81h81V184.14Z" transform="translate(-50 -103.2)"/></g></svg>