<svg width="46" height="46" viewBox="0 0 46 46" fill="none" xmlns="http://www.w3.org/2000/svg">
<ellipse cx="23.5" cy="25" rx="5.5" ry="8" fill="#1A8245"/>
<path d="M38.525 12.9375C34.2843 8.76875 28.6781 6.54062 22.6406 6.68437C10.8531 6.82812 1.2937 16.3875 1.2937 27.9594V36.225C1.2937 37.8781 2.65933 39.3156 4.38433 39.3156H8.84058C10.4937 39.3156 11.9312 37.95 11.9312 36.225V29.9C11.9312 28.2469 10.5656 26.8094 8.84058 26.8094H4.52808C5.10308 17.4656 13.0093 9.91875 22.6406 9.775C27.7437 9.63125 32.6312 11.5719 36.225 15.0937C39.4593 18.2562 41.3281 22.3531 41.4718 26.7375H37.2312C35.5781 26.7375 34.1406 28.1031 34.1406 29.8281V36.1531C34.1406 37.8062 35.5062 39.2437 37.2312 39.2437H41.6875C43.3406 39.2437 44.7781 37.8781 44.7781 36.1531V27.5281C44.7781 22.1375 42.5499 16.8906 38.525 12.9375ZM8.55308 36.0812H4.52808V30.1156H8.62495V36.0812H8.55308ZM41.5437 36.0812H37.4468V30.1156H41.5437V36.0812Z" fill="#CAD2DB"/>
<path d="M22.9999 33.4937C26.342 33.4937 29.0913 31.05 29.0913 28.0792V21.6104C29.0913 18.6396 26.342 16.1958 22.9999 16.1958C19.6577 16.1958 16.9084 18.6396 16.9084 21.6104V28.0792C16.9084 31.05 19.6577 33.4937 22.9999 33.4937ZM22.9999 18.3521C24.8866 18.3521 26.3959 19.5979 26.6655 21.2271H26.5038C25.8569 21.2271 25.2639 21.7062 25.2639 22.3292C25.2639 22.9521 25.803 23.4312 26.5038 23.4312H26.7194V24.1979H26.5038C25.8569 24.1979 25.2639 24.6771 25.2639 25.3C25.2639 25.9229 25.803 26.4021 26.5038 26.4021H26.7194V27.1208H26.5038C25.8569 27.1208 25.2639 27.6 25.2639 28.2229C25.2639 28.7979 25.803 29.2771 26.4499 29.2771C25.9647 30.5229 24.5631 31.4333 22.9999 31.4333C21.3827 31.4333 20.035 30.5229 19.5499 29.2771C20.1967 29.2771 20.7358 28.7979 20.7358 28.2229C20.7358 27.6479 20.1967 27.1208 19.4959 27.1208H19.2803V26.4021H19.4959C20.1428 26.4021 20.7358 25.9229 20.7358 25.3C20.7358 24.6771 20.1967 24.1979 19.4959 24.1979H19.2803V23.4312H19.4959C20.1428 23.4312 20.7358 22.9521 20.7358 22.3292C20.7358 21.7062 20.1967 21.2271 19.4959 21.2271H19.3342C19.6038 19.5979 21.1131 18.3521 22.9999 18.3521Z" fill="#CAD2DB"/>
<path d="M33.2421 28.3188C33.2421 27.7438 32.7031 27.2167 32.0023 27.2167C31.3015 27.2167 30.7625 27.6958 30.7625 28.3188C30.8164 32.1042 27.3125 35.1708 23 35.1708C18.6875 35.1708 15.1835 32.1042 15.1835 28.2708C15.1835 27.6958 14.6445 27.1688 13.9437 27.1688C13.2429 27.1688 12.7039 27.6479 12.7039 28.2708C12.7039 32.8708 16.639 36.7042 21.7062 37.2313V44.0833C21.7062 44.6583 22.2453 45.1854 22.946 45.1854C23.5929 45.1854 24.1859 44.7063 24.1859 44.0833V37.2792C29.307 36.7521 33.2421 32.9188 33.2421 28.3188Z" fill="#CAD2DB"/>
</svg>
