<svg width="44" height="44" viewBox="0 0 44 44" fill="none" xmlns="http://www.w3.org/2000/svg">
<path d="M22 44C34.1503 44 44 34.1503 44 22C44 9.84974 34.1503 0 22 0C9.84974 0 0 9.84974 0 22C0 34.1503 9.84974 44 22 44Z" fill="#8F95E6"/>
<path d="M22 42.2812C10.1377 42.2812 0.469906 32.8924 0.0182187 21.1406C0.00721875 21.4259 0 21.7121 0 22C0 34.1502 9.84981 44 22 44C34.1502 44 44 34.1502 44 22C44 21.7121 43.9928 21.4259 43.9818 21.1406C43.5301 32.8924 33.8623 42.2812 22 42.2812Z" fill="#6770E6"/>
<path d="M22 1.71875C33.8623 1.71875 43.5301 11.1076 43.9818 22.8594C43.9928 22.5741 44 22.2879 44 22C44 9.84981 34.1502 0 22 0C9.84981 0 0 9.84981 0 22C0 22.2879 0.00721875 22.5741 0.0182187 22.8594C0.469906 11.1076 10.1377 1.71875 22 1.71875Z" fill="#9FA5FF"/>
<path d="M31.7877 28.1724L26.8012 26.5339H17.1977L12.1991 28.1734C10.5517 28.7138 9.43774 30.2514 9.43774 31.9851V40.0615C12.9225 42.4897 17.1426 43.9349 21.6972 43.9964H22.3024C26.8507 43.935 31.0651 42.4939 34.547 40.072V31.9835C34.5471 30.2503 33.4342 28.7133 31.7877 28.1724Z" fill="#5FD4E3"/>
<path d="M34.5471 38.3532C30.9885 40.8291 26.6641 42.2812 21.9999 42.2812C17.3292 42.2812 12.9993 40.8249 9.43774 38.3427V40.0615C9.43792 40.0616 9.43826 40.0618 9.43843 40.062C9.87345 40.3652 10.3202 40.6529 10.7773 40.9248C10.778 40.9252 10.7787 40.9255 10.7794 40.926C11.2364 41.1976 11.7041 41.453 12.1817 41.6915C12.1826 41.6921 12.1836 41.6924 12.1845 41.6929C12.6621 41.9313 13.1496 42.153 13.6461 42.357C13.647 42.3574 13.6477 42.3577 13.6485 42.3581C16.1355 43.3794 18.8512 43.9581 21.6974 43.9966H22.3026C24.5767 43.9658 26.7674 43.5902 28.8247 42.9196C28.8247 42.9196 28.8247 42.9196 28.8249 42.9196C29.3388 42.752 29.8445 42.566 30.341 42.3625C30.3417 42.3624 30.3424 42.362 30.3431 42.3617C30.8393 42.1582 31.3264 41.937 31.8037 41.6991C31.8044 41.6988 31.805 41.6984 31.8056 41.6981C32.2829 41.46 32.7504 41.2051 33.2072 40.9341C33.2077 40.9337 33.2081 40.9336 33.2086 40.9332C33.6656 40.662 34.1121 40.3748 34.5471 40.0721V38.3532Z" fill="#5BCAD9"/>
<path d="M29.6992 10.3857C29.3106 6.27207 22.8208 5.18496 20.7205 5.86988C18.6201 6.5548 18.693 7.50029 18.693 7.50029C18.693 7.50029 14.4824 7.14382 14.2485 11.44C14.0146 15.736 14.6852 17.0351 14.6852 17.0351C14.7072 17.3138 14.734 17.595 14.7652 17.8781H21.9614H29.1576C29.1645 17.8166 29.1707 17.7552 29.177 17.6938L29.3104 18.2038C29.3106 18.2035 30.0686 14.2947 29.6992 10.3857Z" fill="#333399"/>
<path d="M14.2487 12.6431C14.4826 8.34711 18.6932 8.70358 18.6932 8.70358C18.6932 8.70358 18.6203 7.75792 20.7207 7.07317C22.8208 6.38842 29.3108 7.47536 29.6994 11.589C29.7529 12.1547 29.7821 12.7198 29.7941 13.2734C29.8139 12.3523 29.7924 11.3692 29.6994 10.3859C29.3108 6.27223 22.821 5.1853 20.7207 5.87005C18.6205 6.5548 18.6932 7.50045 18.6932 7.50045C18.6932 7.50045 14.4826 7.14398 14.2487 11.44C14.2001 12.3324 14.1909 13.0938 14.2062 13.7428C14.2138 13.3999 14.2274 13.0341 14.2487 12.6431Z" fill="#5861C7"/>
<path d="M26.0048 25.0836H17.9951V28.4723H26.0048V25.0836Z" fill="#5FD4E3"/>
<path d="M23.3862 31.861H20.6136L19.9976 28.4723H24.0022L23.3862 31.861Z" fill="#6770E6"/>
<path d="M16.5817 16.6841C16.5817 16.6841 15.9963 15.6118 14.8255 15.6118C13.6547 15.6118 12.8254 20.7592 16.5817 19.9012V16.6841Z" fill="#FFE4D1"/>
<path d="M27.4185 16.6841C27.4185 16.6841 28.0039 15.6118 29.1747 15.6118C30.3455 15.6118 31.1748 20.7592 27.4185 19.9012V16.6841Z" fill="#FFE4D1"/>
<path d="M25.078 21.696H18.9221V25.8679L22.0001 28.4723L25.0806 25.8656L25.078 21.696Z" fill="#FFE4D1"/>
<path d="M21.9999 9.78639C13.0299 9.78639 14.7451 24.4977 21.9999 24.4977C29.2549 24.4979 30.9699 9.78639 21.9999 9.78639Z" fill="#FFEFE4"/>
<path d="M28.7774 27.2401L24.7725 31.553L22 28.4723L26.0049 25.0836L28.7774 27.2401Z" fill="#69EBFC"/>
<path d="M15.2227 27.2401L19.2275 31.553L22 28.4723L17.9952 25.0836L15.2227 27.2401Z" fill="#69EBFC"/>
<path d="M15.8388 16.0064C15.8388 16.0064 16.796 15.7565 17.379 14.4662C18.4116 12.1806 19.1796 11.8829 19.1796 11.8829C19.1796 11.8829 20.1357 14.5784 23.8195 15.5885C27.5033 16.5987 28.1607 16.0064 28.1607 16.0064L29.0138 12.4183L24.172 8.52225L18.1384 9.25942L14.9783 13.0054L15.8388 16.0064Z" fill="#333399"/>
<path d="M23.3864 31.861H20.6137L19.3918 43.8455C20.2473 43.9466 21.1173 44 21.9999 44C22.8825 44 23.7527 43.9466 24.6081 43.8455L23.3864 31.861Z" fill="#5861C7"/>
<path d="M24.4347 42.1456C23.635 42.2338 22.8231 42.2814 22 42.2814C21.1768 42.2814 20.3649 42.2338 19.5652 42.1456L19.3921 43.8439C19.4241 43.8477 19.4559 43.8518 19.4878 43.8555C19.6083 43.8692 19.7293 43.8812 19.8503 43.8931C19.9307 43.9008 20.0108 43.9096 20.0914 43.9165C20.2013 43.9259 20.312 43.9331 20.4223 43.9411C20.6313 43.9558 20.8408 43.9682 21.0514 43.9771C21.0976 43.9792 21.1437 43.9816 21.1901 43.9833C21.335 43.9887 21.4804 43.9919 21.6261 43.9943C21.6663 43.995 21.7064 43.9957 21.7466 43.996H22.2536C22.2841 43.9957 22.3145 43.9952 22.3451 43.9947C22.5976 43.9909 22.849 43.9825 23.0993 43.9701C23.1252 43.9687 23.1512 43.968 23.1769 43.9667C23.6585 43.9412 24.1352 43.8979 24.608 43.8421L24.4347 42.1456Z" fill="#5058B5"/>
<path d="M14.4015 33.7578H13.2766V35.9303H14.4015V33.7578Z" fill="#B665C2"/>
<path d="M10.6733 36.4927C10.6733 36.1821 10.9251 35.9303 11.2357 35.9303H16.4422C16.7527 35.9303 17.0045 36.1821 17.0045 36.4927C17.0045 36.8033 16.7527 37.055 16.4422 37.055H11.2357C10.9251 37.0552 10.6733 36.8034 10.6733 36.4927Z" fill="#D476E2"/>
<path d="M8.37622 27.3635C8.37622 27.0529 8.62802 26.8011 8.9386 26.8011H18.7396C19.0502 26.8011 19.302 27.0529 19.302 27.3635C19.302 27.6741 19.0502 27.9259 18.7396 27.9259H8.9386C8.62802 27.9261 8.37622 27.6743 8.37622 27.3635Z" fill="#B665C2"/>
<path d="M14.7185 32.0705H12.9597C11.8023 32.0705 10.864 31.1322 10.864 29.9748V24.7524C10.864 23.595 11.8023 22.6567 12.9597 22.6567H14.7185C15.8759 22.6567 16.8142 23.595 16.8142 24.7524V29.9748C16.8142 31.1322 15.8759 32.0705 14.7185 32.0705Z" fill="#6770E6"/>
<path d="M13.7009 24.8091C13.402 24.8091 13.1597 25.0515 13.1597 25.3504C13.1597 25.6493 13.402 25.8916 13.7009 25.8916H16.8141V25.0336C16.8141 24.9578 16.8098 24.8829 16.802 24.8091H13.7009Z" fill="#5861C7"/>
<path d="M13.7009 27.9048H16.8141V26.8225H13.7009C13.402 26.8225 13.1597 27.0648 13.1597 27.3637C13.1597 27.6624 13.402 27.9048 13.7009 27.9048Z" fill="#5861C7"/>
<path d="M13.1597 29.3767C13.1597 29.6756 13.402 29.9179 13.7009 29.9179H16.802C16.8099 29.8442 16.8141 29.7694 16.8141 29.6936V28.8356H13.7009C13.402 28.8356 13.1597 29.078 13.1597 29.3767Z" fill="#5861C7"/>
<path d="M17.3766 26.9148V29.9748C17.3766 31.4428 16.1865 32.633 14.7184 32.633H12.9597C11.4917 32.633 10.3015 31.443 10.3015 29.9748V26.9148C10.3015 26.6042 10.0497 26.3524 9.73913 26.3524C9.42855 26.3524 9.17676 26.6042 9.17676 26.9148V29.9748C9.17676 32.0641 10.8704 33.7578 12.9597 33.7578H14.7185C16.8078 33.7578 18.5015 32.0641 18.5015 29.9748V26.9148C18.5015 26.6042 18.2497 26.3524 17.9391 26.3524C17.6284 26.3524 17.3766 26.6042 17.3766 26.9148Z" fill="#D476E2"/>
<path d="M5.95996 37.0552C9.90913 41.261 15.4928 43.9125 21.6975 43.9962H22.3027C28.5074 43.9125 34.0911 41.261 38.0403 37.0552H5.95996Z" fill="#B665C2"/>
<path d="M36.2328 37.0552C32.3964 40.3141 27.4284 42.2814 22 42.2814C16.5717 42.2814 11.6036 40.3143 7.76723 37.0552H5.95996C5.96013 37.0554 5.96031 37.0556 5.96048 37.0557C9.90948 41.2612 15.4932 43.9125 21.6975 43.9962H22.3027C28.5067 43.9125 34.0901 41.2615 38.0391 37.0564C38.0394 37.0561 38.0399 37.0556 38.0403 37.0552H36.2328Z" fill="#A75DB3"/>
</svg>
