<svg width="44" height="44" viewBox="0 0 44 44" fill="none" xmlns="http://www.w3.org/2000/svg">
<path d="M22.0217 44.0038C34.172 44.0038 44.0217 34.154 44.0217 22.0038C44.0217 9.85352 34.172 0.00378418 22.0217 0.00378418C9.87146 0.00378418 0.0217285 9.85352 0.0217285 22.0038C0.0217285 34.154 9.87146 44.0038 22.0217 44.0038Z" fill="#8F95E6"/>
<path d="M22.0217 42.285C10.1594 42.285 0.491635 32.8962 0.0399473 21.1444C0.0289473 21.4297 0.0217285 21.7159 0.0217285 22.0038C0.0217285 34.154 9.87154 44.0038 22.0217 44.0038C34.1719 44.0038 44.0217 34.154 44.0217 22.0038C44.0217 21.7159 44.0145 21.4297 44.0035 21.1444C43.5518 32.8962 33.884 42.285 22.0217 42.285Z" fill="#6770E6"/>
<path d="M26.4892 8.56334C26.2963 7.81757 25.4734 6.76054 22.3547 6.76054C17.5366 6.76054 16.8506 7.474 15.5683 6.24182C14.4863 5.20215 13.851 10.2058 15.2936 11.7948C14.6846 14.0453 15.1717 16.2994 15.1717 16.2994H21.9498H28.7279C28.7279 16.2994 29.8655 11.034 26.4892 8.56334Z" fill="#333399"/>
<path d="M15.5681 7.44511C16.8503 8.67728 17.5364 7.96383 22.3546 7.96383C25.4733 7.96383 26.2964 9.02086 26.4891 9.76663C28.2846 11.0804 28.8034 13.1845 28.8957 14.867C28.9864 13.1268 28.7511 10.2187 26.4891 8.5635C26.2962 7.81774 25.4733 6.7607 22.3546 6.7607C17.5364 6.7607 16.8505 7.47416 15.5681 6.24199C14.8571 5.55861 14.339 7.48602 14.4769 9.33849C14.5769 7.96864 15.0133 6.91196 15.5681 7.44511Z" fill="#5861C7"/>
<path d="M16.5405 16.5364C16.5405 16.5364 15.9561 15.4658 14.7872 15.4658C13.6183 15.4658 12.7906 20.6046 16.5405 19.7481V16.5364Z" fill="#FFE4D1"/>
<path d="M27.3589 16.5364C27.3589 16.5364 27.9433 15.4658 29.1122 15.4658C30.2809 15.4658 31.1089 20.6046 27.3589 19.7481V16.5364Z" fill="#FFE4D1"/>
<path d="M21.9495 9.65044C12.9948 9.65044 14.707 24.3368 21.9495 24.3368C29.1921 24.3368 30.9043 9.65044 21.9495 9.65044Z" fill="#FFEFE4"/>
<path d="M21.9495 8.85105C21.9495 8.85105 15.8586 7.99185 15.8586 15.8068C15.8586 15.8068 16.6255 12.5768 18.385 11.6958C19.2045 11.2855 19.5046 12.3248 21.9495 12.3248C24.3945 12.3248 24.6946 11.2853 25.5141 11.6958C27.2736 12.5766 28.0405 15.8068 28.0405 15.8068C28.0405 7.99167 21.9495 8.85105 21.9495 8.85105Z" fill="#333399"/>
<path d="M31.8097 28.1762L26.3067 26.368C25.7877 26.1975 25.435 25.7149 25.4302 25.1685L25.4106 22.9464C24.4907 23.7744 23.3458 24.2877 22.0069 24.2995C20.6682 24.3114 19.5144 23.8183 18.5801 23.0067L18.599 25.1508C18.604 25.7058 18.2491 26.2001 17.7217 26.373L12.2211 28.1772C10.5736 28.7176 9.45972 30.2552 9.45972 31.9889V40.0653C12.9445 42.4935 17.1645 43.9386 21.7192 44.0002H22.3244C26.8727 43.9388 31.0871 42.4976 34.5689 40.0758V31.9873C34.5689 30.2541 33.456 28.7171 31.8097 28.1762Z" fill="#FF8354"/>
<path d="M34.5689 38.357C31.0102 40.8329 26.6858 42.285 22.0216 42.285C17.3509 42.285 13.0211 40.8287 9.45947 38.3465V40.0653C9.45964 40.0654 9.45999 40.0656 9.46016 40.0658C9.89518 40.369 10.3419 40.6567 10.7991 40.9286C10.7998 40.9289 10.8004 40.9293 10.8011 40.9298C11.2581 41.2014 11.7258 41.4568 12.2035 41.6953C12.2043 41.6958 12.2053 41.6962 12.2062 41.6967C12.6838 41.9351 13.1713 42.1568 13.6678 42.3608C13.6687 42.3612 13.6694 42.3615 13.6702 42.3619C16.1573 43.3831 18.8729 43.9618 21.7191 44.0003H22.3243C24.5984 43.9696 26.7891 43.594 28.8465 42.9234C28.8465 42.9234 28.8465 42.9234 28.8466 42.9234C29.3605 42.7558 29.8662 42.5698 30.3627 42.3663C30.3634 42.3662 30.3641 42.3658 30.3648 42.3655C30.861 42.162 31.3481 41.9408 31.8254 41.7029C31.8261 41.7025 31.8268 41.7022 31.8273 41.7019C32.3046 41.4638 32.7721 41.2089 33.2289 40.9379C33.2294 40.9375 33.2298 40.9374 33.2303 40.937C33.6873 40.6658 34.1338 40.3786 34.5689 40.0759V38.357Z" fill="#E0734A"/>
<path d="M21.8178 31.1829C24.6395 31.1829 27.0462 29.4118 27.9905 26.9213L26.3067 26.368C25.7876 26.1974 25.4349 25.7149 25.4301 25.1685L25.4105 22.9464C24.4906 23.7744 23.3458 24.2877 22.0069 24.2995C20.6681 24.3114 19.5143 23.8183 18.58 23.0067L18.5989 25.1508C18.6037 25.7058 18.249 26.2001 17.7217 26.373L15.6917 27.0389C16.6662 29.4673 19.041 31.1829 21.8178 31.1829Z" fill="#FFE4D1"/>
<path d="M22.0217 1.72253C33.884 1.72253 43.5518 11.1114 44.0035 22.8632C44.0145 22.5778 44.0217 22.2917 44.0217 22.0038C44.0217 9.8536 34.1719 0.00378418 22.0217 0.00378418C9.87154 0.00378418 0.0217285 9.8536 0.0217285 22.0038C0.0217285 22.2917 0.0289473 22.5778 0.0399473 22.8632C0.491635 11.1114 10.1594 1.72253 22.0217 1.72253Z" fill="#9FA5FF"/>
<path d="M6.46411 26.3942V37.5588C10.3793 41.4745 15.7636 43.9196 21.7192 44H22.3244C22.3354 43.9998 22.3464 43.9998 22.3574 43.9997V30.8392L7.14078 25.9024C6.80666 25.794 6.46411 26.043 6.46411 26.3942Z" fill="#69EBFC"/>
<path d="M22.0217 42.285C15.9451 42.285 10.4451 39.8205 6.46411 35.8377V37.559C6.51086 37.6057 6.55899 37.6515 6.60625 37.6979C6.68325 37.7735 6.75991 37.8496 6.83811 37.9242C6.8993 37.9827 6.96203 38.0397 7.02391 38.0975C7.08956 38.1587 7.15453 38.2204 7.22088 38.2809C7.28825 38.3421 7.357 38.402 7.42506 38.4624C7.48728 38.5175 7.54881 38.5734 7.61155 38.6279C7.68442 38.6911 7.75867 38.753 7.83258 38.8152C7.89188 38.8652 7.95049 38.9161 8.0103 38.9654C8.08867 39.0302 8.16842 39.0937 8.24783 39.1574C8.30403 39.2026 8.35972 39.2487 8.41644 39.2934C8.50049 39.3596 8.58574 39.4243 8.67081 39.4893C8.7241 39.5301 8.77669 39.5713 8.83014 39.6115C8.91917 39.6782 9.00924 39.7435 9.0993 39.8088C9.15017 39.8458 9.20036 39.8834 9.25158 39.9199C9.3456 39.9871 9.44099 40.0526 9.53603 40.1184C9.58399 40.1516 9.6316 40.1852 9.67989 40.2181C9.77941 40.2856 9.87995 40.3514 9.98067 40.4174C10.0255 40.4468 10.0702 40.4769 10.1153 40.5061C10.2192 40.5732 10.3244 40.6386 10.4298 40.7041C10.4726 40.7308 10.515 40.7579 10.558 40.7842C10.6671 40.8511 10.7775 40.9162 10.888 40.9812C10.9275 41.0044 10.9669 41.0283 11.0068 41.0513C11.1212 41.1175 11.2366 41.1823 11.3522 41.2464C11.389 41.2669 11.4255 41.2876 11.4622 41.3079C11.5817 41.3734 11.702 41.4372 11.8228 41.5004C11.8567 41.5181 11.8902 41.5364 11.9241 41.5539C12.0487 41.6183 12.1743 41.6812 12.3005 41.7435C12.3309 41.7584 12.3611 41.7739 12.3917 41.7888C12.5213 41.8521 12.6518 41.9136 12.7829 41.9743C12.8106 41.9872 12.8383 42.0004 12.8659 42.0131C13.0003 42.0748 13.1358 42.1346 13.2717 42.1936C13.2965 42.2043 13.3209 42.2153 13.3456 42.2259C13.4849 42.2857 13.6249 42.3438 13.7655 42.4007C13.7875 42.4096 13.8094 42.4188 13.8315 42.4277C13.975 42.4853 14.1196 42.5413 14.2647 42.596C14.2841 42.6032 14.3035 42.6107 14.3229 42.6181C14.4709 42.6735 14.6198 42.7269 14.7693 42.7792C14.7861 42.785 14.8028 42.791 14.8195 42.7969C14.9719 42.8496 15.1252 42.9007 15.2791 42.9502C15.2932 42.9547 15.3073 42.9595 15.3213 42.9639C15.4781 43.014 15.6355 43.0623 15.7937 43.1088C15.8053 43.1123 15.8169 43.1159 15.8284 43.1191C15.9893 43.1662 16.1508 43.2114 16.3132 43.2549C16.3223 43.2573 16.3313 43.2599 16.3404 43.2623C16.505 43.3061 16.6706 43.3483 16.8368 43.3883C16.8438 43.39 16.8507 43.3917 16.8577 43.3935C17.026 43.4338 17.1951 43.4724 17.3648 43.509C17.3698 43.51 17.3747 43.511 17.3795 43.5122C17.5511 43.549 17.7233 43.5839 17.8964 43.6167C17.8998 43.6174 17.9031 43.6181 17.9065 43.6186C18.081 43.6516 18.2563 43.6826 18.4323 43.7114C18.4342 43.7118 18.4361 43.7121 18.438 43.7123C18.6152 43.7413 18.793 43.7683 18.9718 43.7931C18.9725 43.7931 18.9733 43.7932 18.974 43.7934C19.8729 43.9179 20.7892 43.9881 21.7194 44.0007H22.3246C22.3254 44.0007 22.3265 44.0007 22.3273 44.0007C22.3375 44.0005 22.3474 44.0005 22.3576 44.0004V42.2816C22.2455 42.2826 22.134 42.285 22.0217 42.285Z" fill="#5FD4E3"/>
<path d="M38.2505 36.8564V26.3942C38.2505 26.043 37.908 25.7941 37.574 25.9024L22.3574 30.8392V43.9997C28.648 43.9055 34.2986 41.1721 38.2505 36.8564Z" fill="#A1F1FC"/>
<path d="M38.2505 35.1356C34.299 39.4524 28.6487 42.1869 22.3574 42.2809V43.9997C25.6985 43.9497 28.8589 43.1551 31.6804 41.7746C31.6832 41.7732 31.6858 41.7718 31.6883 41.7706C31.849 41.6919 32.0085 41.6113 32.1668 41.5288C32.178 41.5229 32.189 41.5171 32.2002 41.5113C32.3501 41.4329 32.4989 41.353 32.6467 41.2713C32.6639 41.2619 32.6809 41.2521 32.6981 41.2426C32.8396 41.1641 32.98 41.084 33.1194 41.0023C33.141 40.9896 33.1625 40.9769 33.1842 40.964C33.3188 40.8846 33.4525 40.8038 33.5853 40.7217C33.6101 40.7064 33.6345 40.6909 33.6591 40.6756C33.7883 40.595 33.9167 40.513 34.0441 40.4297C34.0707 40.4123 34.0972 40.3948 34.1238 40.3772C34.2486 40.2949 34.3725 40.2114 34.4954 40.1265C34.5233 40.1072 34.5511 40.088 34.5789 40.0687C34.7001 39.9843 34.8203 39.8989 34.9395 39.8121C34.9679 39.7915 34.9963 39.7709 35.0246 39.7501C35.1427 39.6634 35.2596 39.5756 35.3758 39.4867C35.4043 39.4649 35.4328 39.4431 35.4612 39.4213C35.5767 39.3321 35.6911 39.2415 35.8047 39.15C35.8326 39.1277 35.8604 39.1054 35.8881 39.083C36.0021 38.9904 36.1148 38.8965 36.2269 38.8017C36.2532 38.7795 36.2795 38.7575 36.3056 38.7351C36.4187 38.6385 36.5308 38.5404 36.642 38.4416C36.6658 38.4203 36.6901 38.3991 36.714 38.3776C36.8272 38.2759 36.9393 38.1728 37.0505 38.0688C37.0711 38.0494 37.0921 38.0303 37.1127 38.0109C37.2274 37.9027 37.3405 37.7933 37.4529 37.6827C37.4692 37.6666 37.4859 37.6508 37.5022 37.6346C37.6199 37.5179 37.7363 37.3998 37.8514 37.2806C37.8616 37.2702 37.8717 37.2599 37.8817 37.2496C38.0053 37.1211 38.1273 36.9911 38.2478 36.8596C38.2488 36.8584 38.2498 36.8574 38.251 36.8562V35.1356H38.2505Z" fill="#69EBFC"/>
<path d="M25.425 39.9661L35.7359 36.6209C36.1053 36.5011 36.3554 36.157 36.3554 35.7686V29.8036C36.3554 29.195 35.7617 28.7636 35.1828 28.9513L24.8719 32.2965C24.5025 32.4163 24.2524 32.7604 24.2524 33.1489V39.1138C24.2524 39.7224 24.8461 40.1538 25.425 39.9661Z" fill="#69EBFC"/>
<path d="M19.6278 33.6213L15.7154 32.3448C15.4396 32.2547 15.2529 31.9976 15.2529 31.7075C15.2529 31.2517 15.6979 30.9289 16.1312 31.0702L20.0436 32.3467C20.3195 32.4368 20.5061 32.6939 20.5061 32.984C20.5061 33.4398 20.0611 33.7626 19.6278 33.6213Z" fill="#5FD4E3"/>
<path d="M19.6278 35.8909L15.7154 34.6144C15.4396 34.5244 15.2529 34.2672 15.2529 33.9771C15.2529 33.5213 15.6979 33.1985 16.1312 33.3398L20.0436 34.6163C20.3195 34.7064 20.5061 34.9635 20.5061 35.2536C20.5061 35.7094 20.0611 36.0322 19.6278 35.8909Z" fill="#5FD4E3"/>
<path d="M19.6278 38.1193L15.7154 36.8428C15.4396 36.7527 15.2529 36.4956 15.2529 36.2055C15.2529 35.7497 15.6979 35.4269 16.1312 35.5682L20.0436 36.8447C20.3195 36.9347 20.5061 37.1919 20.5061 37.482C20.5061 37.9378 20.0611 38.2608 19.6278 38.1193Z" fill="#5FD4E3"/>
<path d="M19.629 40.388L8.86687 36.8964C8.59049 36.8067 8.40332 36.5492 8.40332 36.2587V36.2581C8.40332 35.8028 8.84745 35.48 9.28057 35.6204L20.0427 39.112C20.3191 39.2018 20.5062 39.4592 20.5062 39.7497V39.7504C20.5062 40.2057 20.0621 40.5285 19.629 40.388Z" fill="#5FD4E3"/>
<path d="M13.2822 36.0616L9.02276 34.6797C8.6534 34.5599 8.40332 34.2159 8.40332 33.8274V29.8036C8.40332 29.195 8.99698 28.7636 9.57585 28.9513L13.8353 30.3332C14.2046 30.453 14.4547 30.7971 14.4547 31.1855V35.2093C14.4545 35.8179 13.8609 36.2495 13.2822 36.0616Z" fill="#FF8354"/>
</svg>
