<svg width="46" height="45" viewBox="0 0 46 45" fill="none" xmlns="http://www.w3.org/2000/svg">
<path d="M43.1249 5.13281C42.2624 5.13281 41.5437 5.83594 41.5437 6.67969V35.2969C41.5437 37.9687 39.3155 40.1484 36.5843 40.1484H8.6249C6.3249 40.1484 4.45615 38.3203 4.45615 36.0703V6.53906C4.45615 5.625 5.1749 4.92187 6.10928 4.92187H32.703C33.6374 4.92187 34.3562 5.625 34.3562 6.53906V33.9609C34.3562 34.8047 35.0749 35.5078 35.9374 35.5078C36.7999 35.5078 37.5187 34.8047 37.5187 33.9609V6.53906C37.5187 3.86719 35.2905 1.75781 32.6312 1.75781H6.0374C3.30615 1.75781 1.1499 3.9375 1.1499 6.53906V36.0703C1.22178 40.0781 4.52803 43.3125 8.6249 43.3125H36.5843C41.1124 43.3125 44.778 39.7266 44.778 35.2969V6.67969C44.778 5.83594 43.9874 5.13281 43.1249 5.13281Z" fill="#CAD2DB"/>
<path d="M30.5468 8.08594H9.1999C8.3374 8.08594 7.61865 8.78906 7.61865 9.63281C7.61865 10.4766 8.3374 11.1797 9.1999 11.1797H30.6187C31.4812 11.1797 32.1999 10.4766 32.1999 9.63281C32.1999 8.78906 31.4812 8.08594 30.5468 8.08594Z" fill="#CAD2DB"/>
<path d="M9.1999 34.875H30.6187C31.4812 34.875 32.1999 34.1719 32.1999 33.3281C32.1999 32.4844 31.4812 31.7812 30.6187 31.7812H9.1999C8.3374 31.7812 7.61865 32.4844 7.61865 33.3281C7.61865 34.1719 8.26553 34.875 9.1999 34.875Z" fill="#CAD2DB"/>
<path d="M10.2062 27.0703H17.4656C19.1187 27.0703 20.4844 25.7344 20.4844 24.1172V17.0859C20.4844 15.4687 19.1187 14.1328 17.4656 14.1328H10.2062C8.55312 14.1328 7.1875 15.4687 7.1875 17.0859V24.1172C7.25937 25.7344 8.55312 27.0703 10.2062 27.0703ZM10.4938 17.2969H17.25V23.9062H10.4938V17.2969Z" fill="#CAD2DB"/>
<path d="M25.228 18.4219H30.1155C30.978 18.4219 31.6967 17.7188 31.6967 16.875C31.6967 16.0313 30.978 15.3281 30.1155 15.3281H25.228C24.3655 15.3281 23.6467 16.0313 23.6467 16.875C23.6467 17.7188 24.3655 18.4219 25.228 18.4219Z" fill="#CAD2DB"/>
<path d="M25.228 25.5234H30.1155C30.978 25.5234 31.6967 24.8203 31.6967 23.9766C31.6967 23.1328 30.978 22.4297 30.1155 22.4297H25.228C24.3655 22.4297 23.6467 23.1328 23.6467 23.9766C23.6467 24.8203 24.3655 25.5234 25.228 25.5234Z" fill="#CAD2DB"/>
</svg>
