<svg width="44" height="44" viewBox="0 0 44 44" fill="none" xmlns="http://www.w3.org/2000/svg">
<g clip-path="url(#clip0_714_6717)">
<path d="M43.5599 27.3416H0.439941V43.56H43.5599V27.3416Z" fill="#7A7979"/>
<path d="M12.8567 29.7176H4.02154C3.77514 29.7176 3.58154 29.524 3.58154 29.2776C3.58154 29.0312 3.77514 28.8376 4.02154 28.8376H12.8567C13.1031 28.8376 13.2967 29.0312 13.2967 29.2776C13.2967 29.524 13.0943 29.7176 12.8567 29.7176Z" fill="#C9C9C9"/>
<path d="M27.896 27.3416H16.104V13.5608C16.104 12.9008 16.6408 12.364 17.3008 12.364H26.6992C27.3592 12.364 27.896 12.9008 27.896 13.5608V27.3416Z" fill="#C9C9C9"/>
<path d="M27.8961 27.7816H16.1041C15.8577 27.7816 15.6641 27.588 15.6641 27.3416V13.5608C15.6641 12.6632 16.3945 11.924 17.3009 11.924H26.6993C27.5969 11.924 28.3361 12.6544 28.3361 13.5608V27.3416C28.3361 27.5792 28.1337 27.7816 27.8961 27.7816ZM16.5441 26.9016H27.4561V13.5608C27.4561 13.1472 27.1217 12.804 26.6993 12.804H17.3009C16.8873 12.804 16.5441 13.1384 16.5441 13.5608V26.9016Z" fill="#231F20"/>
<path d="M25.0361 27.3416H18.9641V10.6392C18.9641 10.34 19.1401 10.0672 19.4041 9.9352L23.9185 7.788C24.4377 7.5416 25.0273 7.92 25.0273 8.492V27.3416H25.0361Z" fill="#C9C9C9"/>
<path d="M25.0359 27.7816H18.9639C18.7175 27.7816 18.5239 27.588 18.5239 27.3416V10.6392C18.5239 10.1728 18.7967 9.74161 19.2191 9.53921L23.7335 7.39201C24.1119 7.21601 24.5519 7.24241 24.9039 7.46241C25.2559 7.68241 25.4671 8.06961 25.4671 8.49201V27.3416C25.4759 27.5792 25.2823 27.7816 25.0359 27.7816ZM19.4039 26.9016H24.5959V8.49201C24.5959 8.32481 24.4903 8.23681 24.4375 8.21041C24.3847 8.18401 24.2615 8.12241 24.1119 8.19281L19.5975 10.34C19.4831 10.3928 19.4039 10.516 19.4039 10.648V26.9016Z" fill="#231F20"/>
<path d="M43.56 27.7816H0.44C0.1936 27.7816 0 27.588 0 27.3416C0 27.0952 0.1936 26.9016 0.44 26.9016H43.56C43.8064 26.9016 44 27.0952 44 27.3416C44 27.588 43.8064 27.7816 43.56 27.7816Z" fill="#231F20"/>
<path d="M43.56 44H0.44C0.1936 44 0 43.8064 0 43.56C0 43.3136 0.1936 43.12 0.44 43.12H43.56C43.8064 43.12 44 43.3136 44 43.56C44 43.8064 43.8064 44 43.56 44Z" fill="#231F20"/>
<path d="M43.56 44H0.44C0.1936 44 0 43.8064 0 43.56C0 43.3136 0.1936 43.12 0.44 43.12H43.56C43.8064 43.12 44 43.3136 44 43.56C44 43.8064 43.8064 44 43.56 44Z" fill="#231F20"/>
<path d="M3.89834 21.4368C3.94234 21.3136 3.95994 21.1816 3.95994 21.0408C3.95994 20.328 3.37914 19.7472 2.67514 19.7472C1.96234 19.7472 1.39034 20.328 1.39034 21.0408C1.39034 21.1816 1.40794 21.3136 1.45194 21.4368C0.871141 21.5688 0.439941 22.088 0.439941 22.6952C0.439941 23.408 1.02074 23.9888 1.72474 23.9888C2.09434 23.9888 2.43754 23.8304 2.66634 23.5752C2.90394 23.8304 3.23834 23.9888 3.60794 23.9888C4.32074 23.9888 4.89274 23.408 4.89274 22.6952C4.91034 22.088 4.47914 21.5688 3.89834 21.4368Z" fill="#08B26C"/>
<path d="M3.6168 24.4288C3.2824 24.4288 2.948 24.332 2.6752 24.1472C2.3936 24.332 2.068 24.4288 1.7336 24.4288C0.7744 24.4288 0 23.6544 0 22.704C0 22.044 0.3784 21.4544 0.9504 21.164C0.9504 21.1288 0.9504 21.0936 0.9504 21.0496C0.9504 20.0992 1.7248 19.316 2.6752 19.316C3.6256 19.316 4.4 20.0904 4.4 21.0408C4.4 21.076 4.4 21.1112 4.4 21.1552C4.972 21.4456 5.3504 22.044 5.3504 22.6952C5.3504 23.6544 4.5672 24.4288 3.6168 24.4288ZM2.6752 23.1352C2.7984 23.1352 2.9128 23.188 3.0008 23.276C3.1592 23.452 3.388 23.5488 3.6256 23.5488C4.092 23.5488 4.4704 23.1704 4.4704 22.6952C4.4704 22.2992 4.1888 21.956 3.8104 21.868C3.6872 21.8416 3.5816 21.7624 3.52 21.6568C3.4584 21.5512 3.4408 21.4192 3.4848 21.3048C3.5112 21.2168 3.5288 21.1288 3.5288 21.0408C3.5288 20.5744 3.1504 20.1872 2.684 20.1872C2.2176 20.1872 1.8392 20.5656 1.8392 21.0408C1.8392 21.1288 1.8568 21.2168 1.8832 21.3048C1.9184 21.4192 1.9096 21.5512 1.848 21.6568C1.7864 21.7624 1.6808 21.8416 1.5576 21.868C1.1704 21.956 0.8976 22.2992 0.8976 22.6952C0.8976 23.1616 1.276 23.5488 1.7424 23.5488C1.98 23.5488 2.2 23.452 2.3672 23.276C2.4376 23.188 2.552 23.1352 2.6752 23.1352Z" fill="#231F20"/>
<path d="M2.67511 27.7816C2.42871 27.7816 2.23511 27.588 2.23511 27.3416V23.5752C2.23511 23.3288 2.42871 23.1352 2.67511 23.1352C2.92151 23.1352 3.11511 23.3288 3.11511 23.5752V27.3416C3.11511 27.5792 2.91271 27.7816 2.67511 27.7816Z" fill="#231F20"/>
<path d="M8.36879 21.4368C8.41279 21.3136 8.43039 21.1816 8.43039 21.0408C8.43039 20.328 7.84959 19.7472 7.14559 19.7472C6.43279 19.7472 5.86079 20.328 5.86079 21.0408C5.86079 21.1816 5.87839 21.3136 5.92239 21.4368C5.35039 21.5688 4.91919 22.0792 4.91919 22.6952C4.91919 23.408 5.49999 23.9888 6.20399 23.9888C6.57359 23.9888 6.91679 23.8304 7.14559 23.5752C7.38319 23.8304 7.71759 23.9888 8.08719 23.9888C8.79999 23.9888 9.37199 23.408 9.37199 22.6952C9.37199 22.088 8.94079 21.5688 8.36879 21.4368Z" fill="#08B26C"/>
<path d="M8.08725 24.4288C7.75285 24.4288 7.41845 24.332 7.14565 24.1472C6.86405 24.332 6.53845 24.4288 6.20405 24.4288C5.25365 24.4288 4.47925 23.6544 4.47925 22.6952C4.47925 22.0352 4.85765 21.4456 5.42965 21.1552C5.42965 21.12 5.42965 21.0848 5.42965 21.0408C5.42965 20.0904 6.20405 19.3072 7.15445 19.3072C8.10485 19.3072 8.87925 20.0816 8.87925 21.0408C8.87925 21.076 8.87925 21.1112 8.87925 21.1552C9.45125 21.4456 9.82965 22.044 9.82965 22.6952C9.81205 23.6544 9.03765 24.4288 8.08725 24.4288ZM7.13685 23.1352C7.26005 23.1352 7.37445 23.188 7.46245 23.276C7.62085 23.452 7.84965 23.5488 8.08725 23.5488C8.55365 23.5488 8.93205 23.1704 8.93205 22.6952C8.93205 22.2992 8.65045 21.956 8.27205 21.868C8.14885 21.8416 8.04325 21.7624 7.98165 21.6568C7.92005 21.5512 7.90245 21.4192 7.94645 21.3048C7.97285 21.2168 7.99045 21.1288 7.99045 21.0408C7.99045 20.5744 7.61205 20.1872 7.14565 20.1872C6.67925 20.1872 6.30085 20.5656 6.30085 21.0408C6.30085 21.1288 6.31845 21.2168 6.34485 21.3048C6.38005 21.4192 6.37125 21.5512 6.30965 21.6568C6.24805 21.7624 6.14245 21.8416 6.01925 21.868C5.63205 21.956 5.35925 22.2992 5.35925 22.6952C5.35925 23.1616 5.73765 23.5488 6.20405 23.5488C6.44165 23.5488 6.66165 23.452 6.82885 23.276C6.89925 23.188 7.01365 23.1352 7.13685 23.1352Z" fill="#231F20"/>
<path d="M7.13678 27.7816C6.89038 27.7816 6.69678 27.588 6.69678 27.3416V23.5752C6.69678 23.3288 6.89038 23.1352 7.13678 23.1352C7.38318 23.1352 7.57678 23.3288 7.57678 23.5752V27.3416C7.57678 27.5792 7.38318 27.7816 7.13678 27.7816Z" fill="#231F20"/>
<path d="M38.0863 21.4368C38.1303 21.3136 38.1479 21.1816 38.1479 21.0408C38.1479 20.328 37.5671 19.7472 36.8631 19.7472C36.1503 19.7472 35.5783 20.328 35.5783 21.0408C35.5783 21.1816 35.5959 21.3136 35.6399 21.4368C35.0679 21.5688 34.6367 22.0792 34.6367 22.6952C34.6367 23.408 35.2175 23.9888 35.9215 23.9888C36.2911 23.9888 36.6343 23.8304 36.8631 23.5752C37.1007 23.8304 37.4351 23.9888 37.8047 23.9888C38.5175 23.9888 39.0895 23.408 39.0895 22.6952C39.0983 22.088 38.6671 21.5688 38.0863 21.4368Z" fill="#08B26C"/>
<path d="M37.8048 24.4288C37.4704 24.4288 37.136 24.332 36.8632 24.1472C36.5816 24.332 36.256 24.4288 35.9216 24.4288C34.9712 24.4288 34.1968 23.6544 34.1968 22.6952C34.1968 22.0352 34.5752 21.4456 35.1472 21.1552C35.1472 21.12 35.1472 21.0848 35.1472 21.0408C35.1472 20.0904 35.9216 19.3072 36.872 19.3072C37.8224 19.3072 38.5968 20.0816 38.5968 21.0408C38.5968 21.076 38.5968 21.1112 38.5968 21.1552C39.1688 21.4456 39.5472 22.044 39.5472 22.6952C39.5384 23.6544 38.7552 24.4288 37.8048 24.4288ZM36.8632 23.1352C36.9864 23.1352 37.1008 23.188 37.1888 23.276C37.3472 23.452 37.576 23.5488 37.8136 23.5488C38.28 23.5488 38.6584 23.1704 38.6584 22.6952C38.6584 22.2992 38.3768 21.956 37.9984 21.868C37.8752 21.8416 37.7696 21.7624 37.708 21.6568C37.6464 21.5512 37.6288 21.4192 37.6728 21.3048C37.6992 21.2168 37.7168 21.1288 37.7168 21.0408C37.7168 20.5744 37.3384 20.1872 36.872 20.1872C36.4056 20.1872 36.0272 20.5656 36.0272 21.0408C36.0272 21.1288 36.0448 21.2168 36.0712 21.3048C36.1064 21.4192 36.0976 21.5512 36.036 21.6568C35.9744 21.7624 35.8688 21.8416 35.7456 21.868C35.3584 21.956 35.0856 22.2992 35.0856 22.6952C35.0856 23.1616 35.464 23.5488 35.9304 23.5488C36.168 23.5488 36.388 23.452 36.5552 23.276C36.6256 23.188 36.74 23.1352 36.8632 23.1352Z" fill="#231F20"/>
<path d="M36.8631 27.7816C36.6167 27.7816 36.4231 27.588 36.4231 27.3416V23.5752C36.4231 23.3288 36.6167 23.1352 36.8631 23.1352C37.1095 23.1352 37.3031 23.3288 37.3031 23.5752V27.3416C37.3031 27.5792 37.1007 27.7816 36.8631 27.7816Z" fill="#231F20"/>
<path d="M42.5568 21.4368C42.6008 21.3136 42.6184 21.1816 42.6184 21.0408C42.6184 20.328 42.0376 19.7472 41.3336 19.7472C40.6296 19.7472 40.0488 20.328 40.0488 21.0408C40.0488 21.1816 40.0664 21.3136 40.1104 21.4368C39.5384 21.5688 39.1072 22.0792 39.1072 22.6952C39.1072 23.408 39.688 23.9888 40.392 23.9888C40.7616 23.9888 41.1048 23.8304 41.3336 23.5752C41.5712 23.8304 41.9056 23.9888 42.2752 23.9888C42.988 23.9888 43.56 23.408 43.56 22.6952C43.56 22.088 43.1288 21.5688 42.5568 21.4368Z" fill="#08B26C"/>
<path d="M42.2752 24.4288C41.9408 24.4288 41.6064 24.332 41.3336 24.1472C41.052 24.332 40.7264 24.4288 40.392 24.4288C39.4416 24.4288 38.6672 23.6544 38.6672 22.6952C38.6672 22.0352 39.0456 21.4456 39.6176 21.1552C39.6176 21.12 39.6176 21.0848 39.6176 21.0408C39.6176 20.0904 40.392 19.3072 41.3424 19.3072C42.2928 19.3072 43.0672 20.0816 43.0672 21.0408C43.0672 21.076 43.0672 21.1112 43.0672 21.1552C43.6392 21.4456 44.0176 22.044 44.0176 22.6952C44 23.6544 43.2256 24.4288 42.2752 24.4288ZM41.3248 23.1352C41.448 23.1352 41.5624 23.188 41.6504 23.276C41.8088 23.452 42.0376 23.5488 42.2752 23.5488C42.7416 23.5488 43.12 23.1704 43.12 22.6952C43.12 22.2992 42.8384 21.956 42.46 21.868C42.3368 21.8416 42.2312 21.7624 42.1696 21.6568C42.108 21.5512 42.0904 21.4192 42.1344 21.3048C42.1608 21.2168 42.1784 21.1288 42.1784 21.0408C42.1784 20.5744 41.8 20.1872 41.3336 20.1872C40.8672 20.1872 40.4888 20.5656 40.4888 21.0408C40.4888 21.1288 40.5064 21.2168 40.5328 21.3048C40.568 21.4192 40.5592 21.5512 40.4976 21.6568C40.436 21.7624 40.3304 21.8416 40.2072 21.868C39.82 21.956 39.5472 22.2992 39.5472 22.6952C39.5472 23.1616 39.9256 23.5488 40.392 23.5488C40.6296 23.5488 40.8496 23.452 41.0168 23.276C41.0872 23.188 41.2016 23.1352 41.3248 23.1352Z" fill="#231F20"/>
<path d="M41.3248 27.7816C41.0784 27.7816 40.8848 27.588 40.8848 27.3416V23.5752C40.8848 23.3288 41.0784 23.1352 41.3248 23.1352C41.5712 23.1352 41.7648 23.3288 41.7648 23.5752V27.3416C41.7648 27.5792 41.5712 27.7816 41.3248 27.7816Z" fill="#231F20"/>
<path d="M27.5353 40.876H16.4649C16.2185 40.876 16.0249 40.6824 16.0249 40.436C16.0249 40.1896 16.2185 39.996 16.4649 39.996H27.5353C27.7817 39.996 27.9753 40.1896 27.9753 40.436C27.9753 40.6824 27.7729 40.876 27.5353 40.876Z" fill="#231F20"/>
<path d="M14.2735 40.876H13.4639C13.2175 40.876 13.0239 40.6824 13.0239 40.436C13.0239 40.1896 13.2175 39.996 13.4639 39.996H14.2735C14.5199 39.996 14.7135 40.1896 14.7135 40.436C14.7135 40.6824 14.5111 40.876 14.2735 40.876Z" fill="#231F20"/>
<path d="M30.5448 40.876H29.7352C29.4888 40.876 29.2952 40.6824 29.2952 40.436C29.2952 40.1896 29.4888 39.996 29.7352 39.996H30.5448C30.7912 39.996 30.9848 40.1896 30.9848 40.436C30.9848 40.6824 30.7824 40.876 30.5448 40.876Z" fill="#231F20"/>
<path d="M1.5576 29.7176H0.44C0.1936 29.7176 0 29.524 0 29.2776C0 29.0312 0.1936 28.8376 0.44 28.8376H1.5576C1.804 28.8376 1.9976 29.0312 1.9976 29.2776C1.9976 29.524 1.7952 29.7176 1.5576 29.7176Z" fill="#C9C9C9"/>
<path d="M40.2777 29.7176H33.5897C33.3433 29.7176 33.1497 29.524 33.1497 29.2776C33.1497 29.0312 33.3433 28.8376 33.5897 28.8376H40.2777C40.5241 28.8376 40.7177 29.0312 40.7177 29.2776C40.7177 29.524 40.5153 29.7176 40.2777 29.7176Z" fill="#C9C9C9"/>
<path d="M20.8912 24.86C20.6448 24.86 20.4512 24.6664 20.4512 24.42V10.8944C20.4512 10.648 20.6448 10.4544 20.8912 10.4544C21.1376 10.4544 21.3312 10.648 21.3312 10.8944V24.42C21.3312 24.6576 21.1288 24.86 20.8912 24.86Z" fill="#F9F9F9"/>
<path d="M22.8535 12.364H21.1375C20.8999 12.364 20.7063 12.5576 20.7063 12.7952V14.5112C20.7063 14.7488 20.8999 14.9424 21.1375 14.9424H22.8535C23.0911 14.9424 23.2847 14.7488 23.2847 14.5112V12.7952C23.2847 12.5576 23.0911 12.364 22.8535 12.364Z" fill="#71CCFF"/>
<path d="M22.8536 15.3736H21.1376C20.6624 15.3736 20.2664 14.9864 20.2664 14.5024V12.7864C20.2664 12.3112 20.6536 11.9152 21.1376 11.9152H22.8536C23.3288 11.9152 23.7248 12.3024 23.7248 12.7864V14.5024C23.7248 14.9864 23.3376 15.3736 22.8536 15.3736ZM21.1552 14.4936H22.8448V12.804H21.1552V14.4936Z" fill="#231F20"/>
<path d="M22.8535 14.9336H21.1375C20.8999 14.9336 20.7063 15.1272 20.7063 15.3648V17.0808C20.7063 17.3184 20.8999 17.512 21.1375 17.512H22.8535C23.0911 17.512 23.2847 17.3184 23.2847 17.0808V15.3648C23.2847 15.1272 23.0911 14.9336 22.8535 14.9336Z" fill="#71CCFF"/>
<path d="M22.8536 17.952H21.1376C20.6624 17.952 20.2664 17.5648 20.2664 17.0808V15.3648C20.2664 14.8896 20.6536 14.4936 21.1376 14.4936H22.8536C23.3288 14.4936 23.7248 14.8808 23.7248 15.3648V17.0808C23.7248 17.556 23.3376 17.952 22.8536 17.952ZM21.1552 17.072H22.8448V15.3824H21.1552V17.072Z" fill="#231F20"/>
<path d="M22.8535 23.9888H21.1375C20.8999 23.9888 20.7063 24.1824 20.7063 24.42V26.9104C20.7063 27.148 20.8999 27.3416 21.1375 27.3416H22.8535C23.0911 27.3416 23.2847 27.148 23.2847 26.9104V24.42C23.2847 24.1824 23.0911 23.9888 22.8535 23.9888Z" fill="#7A7979"/>
<path d="M22.8536 27.7816H21.1376C20.6624 27.7816 20.2664 27.3944 20.2664 26.9104V24.42C20.2664 23.9448 20.6536 23.5488 21.1376 23.5488H22.8536C23.3288 23.5488 23.7248 23.936 23.7248 24.42V26.9104C23.7248 27.3856 23.3376 27.7816 22.8536 27.7816ZM21.1552 26.9016H22.8448V24.4288H21.1552V26.9016Z" fill="#231F20"/>
<path d="M22.8535 17.512H21.1375C20.8999 17.512 20.7063 17.7056 20.7063 17.9432V19.6592C20.7063 19.8968 20.8999 20.0904 21.1375 20.0904H22.8535C23.0911 20.0904 23.2847 19.8968 23.2847 19.6592V17.9432C23.2847 17.6968 23.0911 17.512 22.8535 17.512Z" fill="#71CCFF"/>
<path d="M22.8536 20.5216H21.1376C20.6624 20.5216 20.2664 20.1344 20.2664 19.6504V17.9344C20.2664 17.4592 20.6536 17.0632 21.1376 17.0632H22.8536C23.3288 17.0632 23.7248 17.4504 23.7248 17.9344V19.6504C23.7248 20.1344 23.3376 20.5216 22.8536 20.5216ZM21.1552 19.6416H22.8448V17.952H21.1552V19.6416Z" fill="#231F20"/>
<path d="M22.4488 0.448802C22.2992 0.440002 22.1496 0.440002 22 0.440002C21.8504 0.440002 21.7008 0.440002 21.5512 0.448802C18.2688 0.536802 15.3824 1.6104 13.0504 3.3264C6.76719 7.9552 4.51439 17.2656 9.54799 24.5168L19.8176 39.292C20.8736 40.8144 23.1352 40.8144 24.1912 39.292L34.4608 24.5168C41.36 14.564 34.5576 0.756802 22.4488 0.448802ZM22 26.708C15.8488 26.708 10.868 21.7272 10.868 15.576C10.868 9.4248 15.8488 4.444 22 4.444C28.1512 4.444 33.132 9.4248 33.132 15.576C33.132 21.7272 28.1512 26.708 22 26.708Z" fill="#F9B630"/>
<path d="M21.9999 40.876C20.9879 40.876 20.0287 40.3744 19.4479 39.5472L9.18708 24.7632C6.68788 21.1728 5.79908 16.8608 6.66148 12.6104C6.71428 12.3728 6.94308 12.2144 7.18068 12.2672C7.41828 12.32 7.57668 12.5488 7.52388 12.7864C6.70548 16.7992 7.55028 20.8736 9.90868 24.2616L20.1783 39.0368C20.6007 39.644 21.2607 39.9872 21.9999 39.9872C22.7391 39.9872 23.4079 39.6352 23.8215 39.0368L34.0911 24.2616C37.2767 19.6768 37.6639 13.948 35.1295 8.9496C32.6479 4.0392 27.8959 1.0296 22.4399 0.888797C22.1495 0.879997 21.8503 0.879997 21.5599 0.888797C18.3919 0.967997 15.4263 2.024 12.9799 3.9248C12.7863 4.0744 12.5135 4.0392 12.3639 3.8456C12.2143 3.652 12.2495 3.3792 12.4431 3.2296C15.0303 1.2056 18.1807 0.0967973 21.5423 0.00879727C21.8415 -2.73442e-06 22.1583 -2.73442e-06 22.4663 0.00879727C28.2567 0.158397 33.2903 3.3528 35.9215 8.5536C37.1799 11.044 37.7783 13.8072 37.6375 16.5616C37.4967 19.4832 36.5199 22.3168 34.8127 24.772L24.5519 39.5472C23.9711 40.3744 23.0119 40.876 21.9999 40.876Z" fill="#231F20"/>
<path d="M7.8495 10.5864C7.7967 10.5864 7.7439 10.5776 7.6911 10.56C7.4623 10.472 7.3567 10.2168 7.4447 9.988C8.0519 8.4392 8.8791 7.0048 9.9175 5.72C10.0671 5.5352 10.3487 5.5 10.5335 5.6584C10.7183 5.808 10.7535 6.0896 10.5951 6.2744C9.6095 7.4888 8.8263 8.844 8.2543 10.3136C8.1927 10.4808 8.0255 10.5864 7.8495 10.5864Z" fill="#231F20"/>
<path d="M11.3609 5.20961C11.2465 5.20961 11.1321 5.16561 11.0529 5.07761C10.8857 4.90161 10.8857 4.62881 11.0529 4.45281C11.0881 4.41761 11.1233 4.38241 11.1585 4.34721C11.3345 4.18001 11.6073 4.18001 11.7833 4.35601C11.9593 4.53201 11.9505 4.80481 11.7745 4.98081C11.7393 5.01601 11.7041 5.05121 11.6689 5.08641C11.5897 5.16561 11.4753 5.20961 11.3609 5.20961Z" fill="#231F20"/>
<path d="M19.4393 2.89519C19.2281 2.89519 19.0433 2.74559 19.0081 2.53439C18.9641 2.29679 19.1225 2.06799 19.3601 2.02399C19.4305 2.01519 19.5009 1.99759 19.5713 1.98879C19.8089 1.94479 20.0377 2.11199 20.0817 2.34959C20.1257 2.58719 19.9585 2.81599 19.7209 2.85999C19.6593 2.86879 19.5889 2.88639 19.5273 2.89519C19.4921 2.88639 19.4657 2.89519 19.4393 2.89519Z" fill="#FFEDCC"/>
<path d="M11.0089 23.936C10.8681 23.936 10.7361 23.8744 10.6481 23.7512C9.13448 21.5688 8.26328 19.052 8.14008 16.4736C8.01688 14.036 8.54488 11.572 9.67128 9.3632C11.3609 6.0368 14.1857 3.5816 17.6353 2.464C17.8641 2.3848 18.1105 2.5168 18.1897 2.7456C18.2689 2.9744 18.1369 3.2208 17.9081 3.3C14.6873 4.3472 12.0385 6.644 10.4633 9.7592C9.40728 11.836 8.91448 14.1416 9.02888 16.4296C9.15208 18.8496 9.96168 21.208 11.3785 23.2496C11.5193 23.452 11.4665 23.7248 11.2641 23.8656C11.1849 23.9096 11.0969 23.936 11.0089 23.936Z" fill="#FFEDCC"/>
<path d="M22 27.148C15.62 27.148 10.428 21.956 10.428 15.576C10.428 9.196 15.62 4.004 22 4.004C28.38 4.004 33.572 9.196 33.572 15.576C33.572 21.956 28.38 27.148 22 27.148ZM22 4.884C16.104 4.884 11.308 9.68 11.308 15.576C11.308 21.472 16.104 26.268 22 26.268C27.896 26.268 32.692 21.472 32.692 15.576C32.692 9.68 27.896 4.884 22 4.884Z" fill="#231F20"/>
</g>
<defs>
<clipPath id="clip0_714_6717">
<rect width="44" height="44" fill="white"/>
</clipPath>
</defs>
</svg>
