<svg width="45" height="45" viewBox="0 0 45 45" fill="none" xmlns="http://www.w3.org/2000/svg">
<path d="M37.5 0.328125C34.1953 0.328125 31.5234 2.88281 31.5234 6C31.5234 8.36719 34.7109 12.0938 36.6094 14.1094C36.8438 14.3672 37.1719 14.5078 37.5 14.5078C37.8516 14.5078 38.1562 14.3672 38.3906 14.1094C40.2891 12.0938 43.4766 8.36719 43.4766 6C43.4766 2.88281 40.8047 0.328125 37.5 0.328125ZM37.6172 13.3828C37.5703 13.4297 37.5234 13.4531 37.5 13.4531C37.4766 13.4531 37.4062 13.4531 37.3828 13.3828C35.0625 10.9219 32.5781 7.6875 32.5781 6C32.5781 3.46875 34.7812 1.40625 37.5 1.40625C40.2188 1.40625 42.4219 3.46875 42.4219 6C42.4219 7.6875 39.9375 10.9219 37.6172 13.3828Z" fill="#1A8245"/>
<path d="M38.1094 5.85938H36.9141C36.7266 5.85938 36.5625 5.69531 36.5625 5.50781C36.5625 5.32031 36.7266 5.15625 36.9141 5.15625H38.8359C39.1172 5.15625 39.3516 4.92187 39.3516 4.64062C39.3516 4.35937 39.1172 4.125 38.8359 4.125H38.0625V3.98437C38.0625 3.70312 37.8281 3.46875 37.5469 3.46875C37.2656 3.46875 37.0312 3.70312 37.0312 3.98437V4.10156H36.9609C36.1875 4.10156 35.5547 4.73438 35.5547 5.50781C35.5547 6.28125 36.1875 6.91406 36.9609 6.91406H38.1562C38.3438 6.91406 38.5078 7.07813 38.5078 7.26563C38.5078 7.45313 38.3438 7.61719 38.1562 7.61719H36.2344C35.9531 7.61719 35.7187 7.85156 35.7187 8.13281C35.7187 8.41406 35.9531 8.64844 36.2344 8.64844H37.0078V8.76563C37.0078 9.04688 37.2422 9.28125 37.5234 9.28125C37.8047 9.28125 38.0391 9.04688 38.0391 8.76563V8.64844H38.1094C38.8828 8.64844 39.5156 8.01562 39.5156 7.24219C39.5156 6.46875 38.8828 5.85938 38.1094 5.85938Z" fill="#1A8245"/>
<path d="M36.9141 18.8438H31.9922V11.3906C31.9922 10.2656 31.5 9.14062 30.5859 8.36719C29.7422 7.59375 28.5469 7.24219 27.4219 7.38281L24.8906 7.73438V5.27344C24.8906 3.02344 23.0625 1.26562 20.8828 1.26562H13.4297C11.1797 1.26562 9.42187 3.09375 9.42187 5.27344V9.84375L7.59375 10.0547C5.625 10.3359 4.07812 12.0234 4.07812 14.0625V39.7969C4.07812 42.0469 5.90625 43.8047 8.08594 43.8047H36.8438C39.0938 43.8047 40.8516 41.9766 40.8516 39.7969V22.9219C40.9219 20.6719 39.0937 18.8438 36.9141 18.8438ZM12.5156 5.27344C12.5156 4.78125 12.8672 4.42969 13.3594 4.42969H20.8125C21.3047 4.42969 21.6562 4.78125 21.6562 5.27344V8.15625L12.4453 9.35156V5.27344H12.5156ZM8.08594 40.6406C7.59375 40.6406 7.24219 40.2891 7.24219 39.7969V14.0625C7.24219 13.6406 7.59375 13.2891 8.01562 13.2188L27.8437 10.5469C27.9141 10.5469 27.9141 10.5469 27.9844 10.5469C28.2656 10.5469 28.4766 10.6875 28.5469 10.7578C28.6875 10.8281 28.8281 11.0391 28.8281 11.3906V39.7266C28.8281 40.2188 28.4766 40.5703 27.9844 40.5703H8.08594V40.6406ZM37.7578 39.7266C37.7578 40.2188 37.4062 40.5703 36.9141 40.5703H31.8516C31.9219 40.2891 31.9219 40.0078 31.9219 39.7266V22.0078H36.8438C37.3359 22.0078 37.6875 22.3594 37.6875 22.8516V39.7266H37.7578Z" fill="#CAD2DB"/>
<path d="M14.8359 16.2422H13.0078C12.5859 16.2422 12.3047 16.5234 12.3047 16.9453V18.7734C12.3047 19.1953 12.5859 19.4766 13.0078 19.4766H14.8359C15.2578 19.4766 15.5391 19.1953 15.5391 18.7734V16.9453C15.5391 16.5234 15.2578 16.2422 14.8359 16.2422Z" fill="#CAD2DB"/>
<path d="M22.9922 16.2422H21.1641C20.7422 16.2422 20.4609 16.5234 20.4609 16.9453V18.7734C20.4609 19.1953 20.7422 19.4766 21.1641 19.4766H22.9922C23.4141 19.4766 23.6953 19.1953 23.6953 18.7734V16.9453C23.6953 16.5234 23.4141 16.2422 22.9922 16.2422Z" fill="#CAD2DB"/>
<path d="M14.8359 24.3984H13.0078C12.5859 24.3984 12.3047 24.6797 12.3047 25.1016V26.9297C12.3047 27.3516 12.5859 27.6328 13.0078 27.6328H14.8359C15.2578 27.6328 15.5391 27.3516 15.5391 26.9297V25.1016C15.5391 24.6797 15.2578 24.3984 14.8359 24.3984Z" fill="#CAD2DB"/>
<path d="M22.9922 24.3984H21.1641C20.7422 24.3984 20.4609 24.6797 20.4609 25.1016V26.9297C20.4609 27.3516 20.7422 27.6328 21.1641 27.6328H22.9922C23.4141 27.6328 23.6953 27.3516 23.6953 26.9297V25.1016C23.6953 24.6797 23.4141 24.3984 22.9922 24.3984Z" fill="#CAD2DB"/>
<path d="M14.8359 32.5547H13.0078C12.5859 32.5547 12.3047 32.8359 12.3047 33.2578V35.0859C12.3047 35.5078 12.5859 35.7891 13.0078 35.7891H14.8359C15.2578 35.7891 15.5391 35.5078 15.5391 35.0859V33.2578C15.5391 32.8359 15.2578 32.5547 14.8359 32.5547Z" fill="#CAD2DB"/>
<path d="M22.9922 32.5547H21.1641C20.7422 32.5547 20.4609 32.8359 20.4609 33.2578V35.0859C20.4609 35.5078 20.7422 35.7891 21.1641 35.7891H22.9922C23.4141 35.7891 23.6953 35.5078 23.6953 35.0859V33.2578C23.6953 32.8359 23.4141 32.5547 22.9922 32.5547Z" fill="#CAD2DB"/>
<path d="M35.7891 23.9766H33.9609C33.5391 23.9766 33.2578 24.2578 33.2578 24.6797V26.5078C33.2578 26.9297 33.5391 27.2109 33.9609 27.2109H35.7891C36.2109 27.2109 36.4922 26.9297 36.4922 26.5078V24.6797C36.4922 24.2578 36.1406 23.9766 35.7891 23.9766Z" fill="#CAD2DB"/>
<path d="M35.7891 32.0625H33.9609C33.5391 32.0625 33.2578 32.3437 33.2578 32.7656V34.5938C33.2578 35.0156 33.5391 35.2969 33.9609 35.2969H35.7891C36.2109 35.2969 36.4922 35.0156 36.4922 34.5938V32.7656C36.4922 32.4141 36.1406 32.0625 35.7891 32.0625Z" fill="#CAD2DB"/>
</svg>
