<svg width="46" height="41" viewBox="0 0 46 41" fill="none" xmlns="http://www.w3.org/2000/svg">
<path d="M39.8667 39.5328H3.2C1.95333 39.5328 1 38.6164 1 37.418V2.87705C1 1.67869 1.95333 0.762299 3.2 0.762299H39.8667C41.1133 0.762299 42.0667 1.67869 42.0667 2.87705V37.418C42.0667 38.6164 41.1133 39.5328 39.8667 39.5328Z" fill="#455A64" stroke="#424242" stroke-miterlimit="10" stroke-linecap="round" stroke-linejoin="round"/>
<path d="M42.8 39.5328H6.13335C4.88668 39.5328 3.93335 38.6164 3.93335 37.418V2.87705C3.93335 1.67869 4.88668 0.762299 6.13335 0.762299H42.8C44.0467 0.762299 45 1.67869 45 2.87705V37.418C45 38.6164 44.0467 39.5328 42.8 39.5328Z" fill="#546E7A" stroke="#424242" stroke-miterlimit="10" stroke-linecap="round" stroke-linejoin="round"/>
<path d="M5.3999 37.418V2.87706" stroke="#78909C" stroke-miterlimit="10" stroke-linecap="round" stroke-linejoin="round"/>
<path d="M43.5334 37.418V2.87706" stroke="#455A64" stroke-miterlimit="10" stroke-linecap="round" stroke-linejoin="round"/>
<path d="M13.4665 37.418H8.33319C7.89319 37.418 7.59985 37.1361 7.59985 36.7131V35.3033C7.59985 34.8803 7.89319 34.5984 8.33319 34.5984H13.4665C13.9065 34.5984 14.1999 34.8803 14.1999 35.3033V36.7131C14.1999 37.1361 13.9065 37.418 13.4665 37.418Z" fill="#CFD8DC" stroke="#424242" stroke-miterlimit="10" stroke-linecap="round" stroke-linejoin="round"/>
<path d="M17.1335 36.0082H41.3335" stroke="#424242" stroke-miterlimit="10" stroke-linecap="round" stroke-linejoin="round"/>
<path d="M45 7.81148H3.93335V32.8361H45V7.81148Z" fill="#FF0F0F" stroke="#424242" stroke-miterlimit="10" stroke-linecap="round" stroke-linejoin="round"/>
<path d="M5.3999 32.8361V7.81148" stroke="#F48FB1" stroke-miterlimit="10" stroke-linecap="round" stroke-linejoin="round"/>
<path d="M43.5334 32.8361V7.81148" stroke="#D81B60" stroke-miterlimit="10" stroke-linecap="round" stroke-linejoin="round"/>
<path d="M20.4333 15.0016L31.4333 20.359L20.4333 25.5754V15.0016Z" fill="#CFD8DC" stroke="#424242" stroke-miterlimit="10" stroke-linecap="round" stroke-linejoin="round"/>
<path d="M45 7.81148H3.93335V32.8361H45V7.81148Z" stroke="#424242" stroke-miterlimit="10" stroke-linecap="round" stroke-linejoin="round"/>
<path d="M33.6334 37.418C34.4434 37.418 35.1001 36.7868 35.1001 36.0082C35.1001 35.2296 34.4434 34.5984 33.6334 34.5984C32.8234 34.5984 32.1667 35.2296 32.1667 36.0082C32.1667 36.7868 32.8234 37.418 33.6334 37.418Z" fill="#CFD8DC" stroke="#424242" stroke-miterlimit="10" stroke-linecap="round" stroke-linejoin="round"/>
</svg>
