<svg width="44" height="31" viewBox="0 0 44 31" fill="none" xmlns="http://www.w3.org/2000/svg">
<rect x="9.29688" y="4.75793" width="24" height="20" fill="#CAD2DB"/>
<path d="M42.6797 4.78125C42.1875 2.88281 40.7109 1.40625 38.8125 0.914063C35.4375 1.67638e-07 21.7969 0 21.7969 0C21.7969 0 8.15625 1.67638e-07 4.78125 0.914063C2.88281 1.40625 1.40625 2.88281 0.914062 4.78125C0 8.22656 0 15.2578 0 15.2578C0 15.2578 0 22.3594 0.914062 25.7344C1.40625 27.6328 2.88281 29.1094 4.78125 29.6016C8.15625 30.5156 21.7969 30.5156 21.7969 30.5156C21.7969 30.5156 35.4375 30.5156 38.8125 29.6016C40.7109 29.1094 42.1875 27.6328 42.6797 25.7344C43.5938 22.3594 43.5938 15.2578 43.5938 15.2578C43.5938 15.2578 43.5938 8.22656 42.6797 4.78125ZM17.4375 21.7969V8.71875L28.7578 15.2578L17.4375 21.7969Z" fill="#FF0F0F"/>
</svg>
